<?xml version="1.0" standalone="no"?>
<!DOCTYPE svg PUBLIC "-//W3C//DTD SVG 1.1//EN" "http://www.w3.org/Graphics/SVG/1.1/DTD/svg11.dtd" >
<svg xmlns="http://www.w3.org/2000/svg">
    <defs>
        <font id="AlegreyaSans-Light">
            <font-face font-family="AlegreyaSans-Light"
                       units-per-em="1000"
                       ascent="900"
                       descent="-300"
                       bbox="-413 -264 1137 984"
                    />
            <missing-glyph horiz-adv-x="0" />
            
            <glyph glyph-name="!" unicode="&#x21;" horiz-adv-x="160" d=" M160,651 L145,209 L112,206 L106,213 L109,649 L115,655 L154,657 M133,65 Q150,47 150,32 Q150,16 141,6.5 Q132,-3 116,-3 Q100,-3 91.5,5.5 Q83,14 83,30 Q83,46 92,55.5 Q101,65 117,65"/> 
            <glyph glyph-name="&quot;" unicode="&#x22;" horiz-adv-x="209" d=" M103,631 L84,467 L55,463 L50,468 L58,633 L98,637 M209,631 L191,467 L161,463 L156,468 L164,633 L204,637"/> 
            <glyph glyph-name="#" unicode="&#x23;" horiz-adv-x="479" d=" M354,369 L325,247 L438,247 L442,242 L439,212 L317,212 L274,32 L242,32 L238,37 L279,212 L166,212 L123,32 L90,32 L87,37 L128,212 L24,212 L20,216 L23,247 L137,247 L165,369 L61,369 L57,374 L60,405 L174,405 L214,575 L246,575 L250,568 L211,405 L325,405 L365,575 L397,575 L401,568 L362,405 L474,405 L479,400 L475,369 M316,369 L203,369 L174,247 L288,247"/> 
            <glyph glyph-name="$" unicode="&#x24;" horiz-adv-x="359" d=" M359,80 Q279,3 212,-3 L202,-127 L174,-127 L168,-121 L178,-4 Q108,0 55,31 L59,76 L67,79 Q90,59 120.5,47 Q151,35 181,33 L197,233 Q155,252 129,268 Q103,284 85,308 Q67,332 67,367 Q67,420 109,456.5 Q151,493 219,497 L231,641 L259,641 L266,635 L254,496 Q298,493 343,474 L335,432 L327,430 Q290,453 252,459 L235,265 Q294,239 326.5,210.5 Q359,182 359,133 M111,340 Q157,300 201,280 L216,461 Q168,458 139.5,430.5 Q111,403 111,370 M260,39 Q316,93 316,126 Q316,157 294,178 Q272,199 231,218 L215,33"/> 
            <glyph glyph-name="%" unicode="&#x25;" horiz-adv-x="764" d=" M634,661 L639,650 L161,-90 L138,-78 L133,-67 L611,674 M257,642 Q328,554 328,471 Q328,385 291,339.5 Q254,294 184,294 Q117,294 81,338 Q45,382 45,465 Q45,551 82.5,596.5 Q120,642 190,642 M136,602 Q83,534 83,469 Q83,401 109.5,366.5 Q136,332 188,332 Q238,332 264.5,366.5 Q291,401 291,466 Q291,533 264,567.5 Q237,602 186,602 M692,344 Q764,256 764,174 Q764,88 726.5,42 Q689,-4 619,-4 Q552,-4 516,40.5 Q480,85 480,168 Q480,253 517.5,298.5 Q555,344 625,344 M571,305 Q518,236 518,171 Q518,104 545,69 Q572,34 623,34 Q673,34 699.5,68.5 Q726,103 726,168 Q726,236 699.5,270.5 Q673,305 621,305"/> 
            <glyph glyph-name="&amp;" unicode="&#x26;" horiz-adv-x="674" d=" M505,364 L504,359 Q530,290 530,227 Q530,163 506,115 L639,-3 L639,-7 Q623,-23 608,-31 L604,-30 L483,77 Q453,37 403,16 Q353,-5 288,-5 Q190,-5 129.5,41 Q69,87 69,167 Q69,278 184,339 L184,343 Q146,378 129,413 Q112,448 112,490 Q112,562 159,603.5 Q206,645 293,645 Q375,645 448,607 L436,567 L426,567 Q366,605 293,605 Q227,605 192.5,574 Q158,543 158,487 Q158,451 173.5,422 Q189,393 227,362 L475,142 Q492,182 492,231 Q492,303 458,364 L384,364 L380,369 L385,404 L669,404 L674,399 L668,364 M346,34 Q428,70 453,104 L213,318 Q166,294 140,257.5 Q114,221 114,174 Q114,110 163.5,72 Q213,34 292,34"/> 
            <glyph glyph-name="'" unicode="&#x27;" horiz-adv-x="103" d=" M103,631 L84,467 L55,463 L50,468 L58,633 L98,637"/> 
            <glyph glyph-name="(" unicode="&#x28;" horiz-adv-x="279" d=" M279,643 L279,637 Q200,577 166.5,490.5 Q133,404 132,259 Q133,115 166.5,29 Q200,-57 279,-117 L279,-123 L260,-142 L254,-142 Q165,-78 127,14 Q89,106 88,258 Q89,412 127,505 Q165,598 254,663 L260,663"/> 
            <glyph glyph-name=")" unicode="&#x29;" horiz-adv-x="201" d=" M10,-123 L10,-117 Q89,-57 122.5,29.5 Q156,116 157,261 Q156,405 122.5,491 Q89,577 10,637 L10,643 L29,662 L35,662 Q124,598 162,506 Q200,414 201,262 Q200,108 162,15 Q124,-78 35,-143 L29,-143"/> 
            <glyph glyph-name="*" unicode="&#x2A;" horiz-adv-x="337" d=" M213,720 L196,604 L172,601 L167,607 L169,718 Q187,725 210,725 M150,589 L146,565 L140,563 L38,599 Q38,622 44,641 L49,643 M331,607 L337,587 L334,584 L223,564 L213,586 L216,592 L318,625 M219,540 L280,449 Q272,436 251,419 L245,420 L194,525 L211,541 M170,529 L170,521 L108,432 Q96,435 84.5,442 Q73,449 70,451 L69,456 L149,540"/> 
            <glyph glyph-name="+" unicode="&#x2B;" horiz-adv-x="445" d=" M260,468 L260,287 L440,287 L445,282 L442,248 L260,248 L260,65 L225,62 L220,67 L220,248 L39,248 L35,252 L38,287 L220,287 L220,469 L255,473"/> 
            <glyph glyph-name="," unicode="&#x2C;" horiz-adv-x="160" d=" M160,42 L160,7 Q160,-46 79,-107 L60,-89 L60,-84 Q115,-43 115,-1 Q115,23 84,40 L84,46 Q100,59 120,66"/> 
            <glyph glyph-name="-" unicode="&#x2D;" horiz-adv-x="279" d=" M279,286 L279,251 L36,217 L30,223 L30,258 L273,291"/> 
            <glyph glyph-name="." unicode="&#x2E;" horiz-adv-x="148" d=" M131,65 Q148,47 148,32 Q148,16 139,6.5 Q130,-3 114,-3 Q98,-3 89.5,5.5 Q81,14 81,30 Q81,46 90,55.5 Q99,65 115,65"/> 
            <glyph glyph-name="/" unicode="&#x2F;" horiz-adv-x="280" d=" M280,670 L75,-111 L38,-111 L34,-106 L238,676 L275,676"/> 
            <glyph glyph-name="0" unicode="&#x30;" horiz-adv-x="481" d=" M371,500 Q481,369 481,248 Q481,126 424.5,60.5 Q368,-5 263,-5 Q161,-5 106,59 Q51,123 51,241 Q51,366 107.5,433 Q164,500 269,500 M182,452 Q93,346 93,245 Q93,145 137.5,93 Q182,41 267,41 Q350,41 394,92.5 Q438,144 438,242 Q438,345 393.5,398.5 Q349,452 265,452"/> 
            <glyph glyph-name="1" unicode="&#x31;" horiz-adv-x="207" d=" M207,491 L204,206 L206,0 L154,0 L157,199 L156,437 L20,396 L13,400 L13,441 L198,498"/> 
            <glyph glyph-name="2" unicode="&#x32;" horiz-adv-x="415" d=" M279,497 Q350,438 350,392 Q350,352 321,301 Q292,250 231,178 L118,46 L120,42 L329,42 L411,46 L415,41 L408,-2 L315,0 L92,0 L54,-1 L51,1 L51,35 L190,196 Q246,261 272.5,304.5 Q299,348 299,381 Q299,412 276.5,432 Q254,452 214,452 Q177,452 141,433 Q105,414 75,380 L69,380 L60,420 Q94,456 136,476.5 Q178,497 223,497"/> 
            <glyph glyph-name="3" unicode="&#x33;" horiz-adv-x="352" d=" M247,498 Q326,430 326,375 Q326,331 299,290.5 Q272,250 223,226 L223,222 Q286,208 319,172 Q352,136 352,82 Q352,29 324.5,-12 Q297,-53 248,-75.5 Q199,-98 135,-98 Q87,-98 42,-90 L38,-46 L42,-41 Q87,-56 137,-56 Q212,-56 257.5,-19.5 Q303,17 303,77 Q303,131 264.5,162 Q226,193 154,196 L101,196 L97,200 L98,238 L142,238 Q171,238 202,255 Q233,272 253.5,301 Q274,330 274,365 Q274,405 247.5,429.5 Q221,454 177,454 Q144,454 113,439 Q82,424 49,393 L43,393 L35,434 Q72,467 108,482.5 Q144,498 184,498"/> 
            <glyph glyph-name="4" unicode="&#x34;" horiz-adv-x="436" d=" M436,124 L431,86 L349,87 L332,87 L334,-89 L330,-94 L291,-98 L287,-93 L289,87 L88,87 L34,86 L29,92 L29,127 L285,495 L333,495 L332,130 L431,130 M289,130 L289,425 L283,425 L78,130"/> 
            <glyph glyph-name="5" unicode="&#x35;" horiz-adv-x="363" d=" M363,493 L358,451 L353,447 L295,451 L125,451 L120,271 L184,257 Q277,237 318,198.5 Q359,160 359,99 Q359,41 329.5,-4 Q300,-49 247,-74 Q194,-99 126,-99 Q86,-99 42,-90 L37,-45 L42,-40 Q93,-56 135,-56 Q214,-56 262,-15.5 Q310,25 310,92 Q310,140 275,170 Q240,200 163,217 L83,233 L78,239 L83,486 L94,496 L145,495 L281,495 L360,497"/> 
            <glyph glyph-name="6" unicode="&#x36;" horiz-adv-x="415" d=" M332,342 Q415,254 415,177 Q415,92 366,42.5 Q317,-7 229,-7 Q143,-7 98,48.5 Q53,104 53,208 Q53,339 130.5,439.5 Q208,540 350,593 L355,593 L392,569 L392,563 Q270,520 200.5,453.5 Q131,387 109,296 L114,291 Q179,342 258,342 M297,31 Q368,104 368,171 Q368,234 336,268 Q304,302 246,302 Q169,302 101,242 Q100,232 100,209 Q100,122 133.5,76.5 Q167,31 233,31"/> 
            <glyph glyph-name="7" unicode="&#x37;" horiz-adv-x="381" d=" M107,495 L340,495 L380,496 L381,457 L173,0 L133,-104 L90,-91 L87,-82 L331,450 L97,450 L30,446 L25,453 L29,497"/> 
            <glyph glyph-name="8" unicode="&#x38;" horiz-adv-x="406" d=" M308,590 Q387,518 387,454 Q387,400 357.5,366 Q328,332 278,308 L278,304 Q317,287 343.5,270 Q370,253 388,225 Q406,197 406,155 Q406,82 356,38.5 Q306,-5 222,-5 Q143,-5 97,36 Q51,77 51,144 Q51,203 87,239.5 Q123,276 179,300 L179,304 Q132,327 104,359 Q76,391 76,443 Q76,511 121.5,550.5 Q167,590 239,590 M185,551 Q121,493 121,444 Q121,397 149.5,371.5 Q178,346 232,324 Q283,343 313.5,372 Q344,401 344,451 Q344,497 315.5,524 Q287,551 237,551 M165,261 Q97,201 97,147 Q97,96 132,65 Q167,34 226,34 Q288,34 324.5,66.5 Q361,99 361,151 Q361,187 342.5,211 Q324,235 298.5,248.5 Q273,262 224,283"/> 
            <glyph glyph-name="9" unicode="&#x39;" horiz-adv-x="410" d=" M131,154 Q48,242 48,319 Q48,404 97,453.5 Q146,503 234,503 Q320,503 365,447.5 Q410,392 410,288 Q410,157 332.5,56.5 Q255,-44 113,-97 L108,-97 L71,-73 L71,-67 Q193,-24 262.5,42.5 Q332,109 354,200 L349,205 Q284,154 205,154 M166,465 Q95,392 95,325 Q95,262 127,228 Q159,194 217,194 Q294,194 362,254 Q363,264 363,287 Q363,374 329.5,419.5 Q296,465 230,465"/> 
            <glyph glyph-name=":" unicode="&#x3A;" horiz-adv-x="144" d=" M383,65 Q400,47 400,32 Q400,16 391,6.5 Q382,-3 366,-3 Q350,-3 341.5,5.5 Q333,14 333,30 Q333,46 342,55.5 Q351,65 367,65 M65663,338 Q65680,320 65680,305 Q65680,289 65671,279.5 Q65662,270 65646,270 Q65630,270 65621.5,278.5 Q65613,287 65613,303 Q65613,319 65622,328.5 Q65631,338 65647,338"/> 
            <glyph glyph-name=";" unicode="&#x3B;" horiz-adv-x="156" d=" M412,42 L412,7 Q412,-46 331,-107 L312,-89 L312,-84 Q367,-43 367,-1 Q367,23 336,40 L336,46 Q352,59 372,66 M65663,338 Q65680,320 65680,305 Q65680,289 65671,279.5 Q65662,270 65646,270 Q65630,270 65621.5,278.5 Q65613,287 65613,303 Q65613,319 65622,328.5 Q65631,338 65647,338"/> 
            <glyph glyph-name="&lt;" unicode="&#x3C;" horiz-adv-x="440" d=" M440,428 L437,422 L83,271 L83,266 L440,124 L431,92 L424,88 L38,244 L38,289 L43,296 L428,459"/> 
            <glyph glyph-name="=" unicode="&#x3D;" horiz-adv-x="445" d=" M445,360 L442,326 L39,326 L35,330 L38,365 L440,365 M445,460 L442,426 L39,426 L35,430 L38,465 L440,465"/> 
            <glyph glyph-name="&gt;" unicode="&#x3E;" horiz-adv-x="442" d=" M437,296 L442,289 L442,244 L56,88 L49,92 L40,124 L397,266 L397,271 L43,422 L40,428 L52,459"/> 
            <glyph glyph-name="?" unicode="&#x3F;" horiz-adv-x="325" d=" M201,650 Q325,569 325,502 Q325,464 304,430.5 Q283,397 244,371 L154,311 L153,308 L158,206 L121,202 L116,208 L109,320 L114,330 L212,392 Q244,412 260.5,438 Q277,464 277,495 Q277,549 224.5,580.5 Q172,612 71,618 L67,624 L78,654 L86,658 M156,65 Q174,47 174,32 Q174,16 165,6.5 Q156,-3 140,-3 Q124,-3 115.5,5.5 Q107,14 107,30 Q107,46 116,55.5 Q125,65 141,65"/> 
            <glyph glyph-name="@" unicode="&#x40;" horiz-adv-x="779" d=" M779,155 Q614,4 459,-4 L492,235 L483,235 Q400,84 303,-6 L290,-6 Q257,16 241,51 Q225,86 225,144 Q225,222 252,291.5 Q279,361 331.5,407 Q384,453 458,461 L462,461 L526,445 L558,462 L565,458 L517,108 L513,36 Q623,48 682,113.5 Q741,179 741,290 Q741,372 705.5,434.5 Q670,497 604.5,531.5 Q539,566 450,566 Q340,566 255.5,519.5 Q171,473 124.5,389 Q78,305 78,196 Q78,87 125.5,7.5 Q173,-72 260,-114.5 Q347,-157 463,-157 L465,-163 L446,-192 Q325,-190 233,-143 Q141,-96 90.5,-10.5 Q40,75 40,189 Q40,311 91,405 Q142,499 235,551.5 Q328,604 450,604 Q549,604 623.5,565 Q698,526 738.5,455 Q779,384 779,292 M315,51 Q380,123 423,189.5 Q466,256 507,343 L509,360 L512,405 L451,420 Q396,419 355,382.5 Q314,346 292,286 Q270,226 270,156 Q270,102 281.5,76.5 Q293,51 305,51"/> 
            <glyph glyph-name="A" unicode="&#x41;" horiz-adv-x="542" d=" M542,0 L488,0 L474,54 L426,192 L274,194 L137,192 L85,56 L70,0 L16,0 L260,639 L319,639 M410,238 L291,579 L285,579 L155,238 L280,237"/> 
            <glyph glyph-name="B" unicode="&#x42;" horiz-adv-x="474" d=" M401,323 Q474,244 474,177 Q474,90 411,43.5 Q348,-3 228,-3 Q158,-3 101,0 L104,194 L101,639 L253,640 Q337,640 383,601 Q429,562 429,489 Q429,431 404,392 Q379,353 333,334 M376,539 Q311,596 248,596 L154,596 L152,352 L272,350 Q323,361 349.5,394.5 Q376,428 376,484 M323,41 Q422,113 422,180 Q422,236 386,268 Q350,300 282,307 L152,306 L151,197 L153,44 Q192,41 232,41"/> 
            <glyph glyph-name="C" unicode="&#x43;" horiz-adv-x="493" d=" M367,644 Q457,617 493,591 L482,544 L474,543 Q404,599 316,599 Q209,599 152.5,527 Q96,455 96,319 Q96,183 151,111.5 Q206,40 309,40 Q355,40 400,56.5 Q445,73 484,103 L492,100 L488,51 Q402,-6 306,-6 Q180,-6 111.5,77.5 Q43,161 43,316 Q43,473 114.5,558.5 Q186,644 318,644"/> 
            <glyph glyph-name="D" unicode="&#x44;" horiz-adv-x="599" d=" M454,643 Q599,487 599,341 Q599,174 522,84.5 Q445,-5 301,-5 Q264,-5 206.5,-3.5 Q149,-2 101,0 L104,194 L101,639 L318,643 M423,39 Q546,189 546,332 Q546,464 487,531.5 Q428,599 315,599 Q287,599 240,597.5 Q193,596 154,594 L151,197 L153,45 Q194,43 237.5,41 Q281,39 308,39"/> 
            <glyph glyph-name="E" unicode="&#x45;" horiz-adv-x="443" d=" M443,41 L438,0 L101,0 L104,194 L101,639 L437,639 L441,633 L435,592 L286,594 L154,593 L152,352 L277,351 L384,352 L388,347 L383,306 L152,307 L151,197 L153,45 L282,44 L439,47"/> 
            <glyph glyph-name="F" unicode="&#x46;" horiz-adv-x="426" d=" M154,593 L152,340 L269,339 L371,341 L376,335 L370,295 L152,296 L151,197 L153,0 L101,0 L104,194 L101,639 L421,639 L426,633 L420,591 L277,594"/> 
            <glyph glyph-name="G" unicode="&#x47;" horiz-adv-x="531" d=" M441,644 L531,594 L519,546 L511,545 Q421,599 341,599 Q221,599 158.5,526.5 Q96,454 96,312 Q96,176 152,108 Q208,40 318,40 Q356,40 389.5,45.5 Q423,51 476,66 L477,159 L476,251 L526,255 L525,165 L527,30 Q460,11 413.5,3 Q367,-5 317,-6 Q182,-6 112.5,76 Q43,158 43,310 Q43,471 122,557.5 Q201,644 347,644"/> 
            <glyph glyph-name="H" unicode="&#x48;" horiz-adv-x="576" d=" M574,197 L575,0 L524,0 L526,194 L526,301 L151,301 L151,197 L153,0 L101,0 L103,194 L101,639 L153,639 L152,346 L525,346 L524,639 L576,639"/> 
            <glyph glyph-name="I" unicode="&#x49;" horiz-adv-x="154" d=" M151,197 L153,0 L101,0 L104,194 L101,639 L154,639"/> 
            <glyph glyph-name="J" unicode="&#x4A;" horiz-adv-x="190" d=" M188,212 L189,116 Q189,43 155,-5.5 Q121,-54 38,-100 L17,-71 L17,-63 Q84,-23 112,16.5 Q140,56 140,115 L140,206 L138,595 L13,595 L7,600 L11,639 L190,639"/> 
            <glyph glyph-name="K" unicode="&#x4B;" horiz-adv-x="524" d=" M151,197 L153,0 L101,0 L103,194 L101,639 L153,639 M230,340 Q367,168 524,11 L524,4 Q509,-2 477,-8 L470,-5 Q304,169 173,337 L173,341 L403,588 L445,639 L507,639"/> 
            <glyph glyph-name="L" unicode="&#x4C;" horiz-adv-x="404" d=" M404,39 L398,0 L99,0 L102,194 L99,639 L152,639 L149,197 L151,45 L399,45"/> 
            <glyph glyph-name="M" unicode="&#x4D;" horiz-adv-x="717" d=" M717,0 L669,0 L652,195 L613,549 L607,549 L412,77 L365,77 L177,549 L171,549 L132,198 L113,0 L67,0 L136,639 L195,639 L231,541 L388,146 L393,146 L559,549 L593,639 L652,639"/> 
            <glyph glyph-name="N" unicode="&#x4E;" horiz-adv-x="576" d=" M573,182 L573,0 L520,0 L154,552 L149,552 L148,205 L149,0 L101,0 L103,190 L102,639 L156,639 L521,87 L526,87 L527,636 L576,640"/> 
            <glyph glyph-name="O" unicode="&#x4F;" horiz-adv-x="589" d=" M451,645 Q589,482 589,331 Q589,168 516,81 Q443,-6 308,-6 Q181,-6 112,77.5 Q43,161 43,316 Q43,474 115.5,559.5 Q188,645 322,645 M209,601 Q95,459 95,321 Q95,180 150,108 Q205,36 312,36 Q422,36 479,109 Q536,182 536,323 Q536,461 481,531 Q426,601 319,601"/> 
            <glyph glyph-name="P" unicode="&#x50;" horiz-adv-x="460" d=" M362,640 Q460,545 460,457 Q460,353 400.5,294.5 Q341,236 233,236 L151,236 L151,197 L153,0 L101,0 L104,194 L101,639 L271,640 M333,289 Q407,379 407,453 Q407,522 370.5,558 Q334,594 265,596 L154,594 L152,282 L263,280"/> 
            <glyph glyph-name="Q" unicode="&#x51;" horiz-adv-x="731" d=" M731,-153 Q718,-177 708,-186 L702,-187 Q603,-168 509,-121.5 Q415,-75 335,-5 Q327,-6 310,-6 Q181,-6 112,77.5 Q43,161 43,316 Q43,474 115.5,559.5 Q188,645 322,645 Q451,645 520,563.5 Q589,482 589,329 Q589,193 536.5,109 Q484,25 386,2 Q460,-55 547.5,-92.5 Q635,-130 729,-145 M95,181 Q206,38 313,38 Q421,38 478.5,111.5 Q536,185 536,326 Q536,461 480.5,530.5 Q425,600 318,600 Q208,600 151.5,529 Q95,458 95,319"/> 
            <glyph glyph-name="R" unicode="&#x52;" horiz-adv-x="494" d=" M396,141 L494,12 L494,5 Q478,-3 449,-8 L441,-4 Q344,135 277,250 L151,250 L151,197 L153,0 L101,0 L104,194 L101,639 L271,640 Q362,640 411,594 Q460,548 460,461 Q460,391 424,339.5 Q388,288 321,262 M152,296 L282,294 Q343,311 375,352.5 Q407,394 407,458 Q407,525 370.5,559.5 Q334,594 265,596 L154,594"/> 
            <glyph glyph-name="S" unicode="&#x53;" horiz-adv-x="411" d=" M323,643 L390,613 L381,565 L371,562 Q343,580 311.5,589.5 Q280,599 251,599 Q209,599 177.5,581.5 Q146,564 129.5,536 Q113,508 113,479 Q113,448 131,425 Q149,402 175.5,385.5 Q202,369 247,348 Q300,322 332.5,301.5 Q365,281 388,248.5 Q411,216 411,170 Q411,123 385.5,82.5 Q360,42 313.5,18.5 Q267,-5 209,-5 Q168,-5 125,6.5 Q82,18 47,40 L53,93 L60,96 Q93,67 134,52.5 Q175,38 213,38 Q257,38 290,56 Q323,74 341,103 Q359,132 359,164 Q359,197 340.5,221.5 Q322,246 295.5,262 Q269,278 222,301 Q170,326 138,346 Q106,366 84,398 Q62,430 62,475 Q62,521 86.5,559.5 Q111,598 155.5,620.5 Q200,643 257,643"/> 
            <glyph glyph-name="T" unicode="&#x54;" horiz-adv-x="459" d=" M459,633 L454,593 L347,596 L269,596 L266,197 L268,0 L216,0 L219,194 L216,596 L138,596 L29,593 L25,599 L30,639 L454,639"/> 
            <glyph glyph-name="U" unicode="&#x55;" horiz-adv-x="541" d=" M539,313 L539,236 Q541,121 480,58 Q419,-5 306,-5 Q196,-5 137.5,56 Q79,117 80,232 L80,639 L131,639 L129,237 Q128,141 174,91 Q220,41 309,41 Q398,41 444.5,90 Q491,139 490,232 L488,639 L540,639"/> 
            <glyph glyph-name="V" unicode="&#x56;" horiz-adv-x="543" d=" M299,0 L240,0 L17,639 L71,639 L85,584 L269,59 L274,59 L474,582 L489,639 L543,639"/> 
            <glyph glyph-name="W" unicode="&#x57;" horiz-adv-x="878" d=" M639,0 L586,0 L446,403 L441,403 L291,0 L238,0 L22,639 L75,639 L87,586 L265,63 L270,63 L423,475 L366,639 L420,639 L434,582 L612,63 L618,63 L813,584 L827,639 L878,639"/> 
            <glyph glyph-name="X" unicode="&#x58;" horiz-adv-x="549" d=" M324,332 L549,0 L485,0 L459,45 L289,291 L118,42 L94,0 L36,0 L259,327 L46,639 L111,639 L135,596 L292,367 L447,594 L472,639 L531,639"/> 
            <glyph glyph-name="Y" unicode="&#x59;" horiz-adv-x="492" d=" M271,191 L273,0 L221,0 L223,191 L222,236 L20,639 L78,639 L90,608 L246,298 L252,298 L422,607 L435,639 L492,639 L272,238"/> 
            <glyph glyph-name="Z" unicode="&#x5A;" horiz-adv-x="478" d=" M474,600 L95,44 L391,44 L474,48 L478,43 L473,-1 L377,0 L79,0 L32,-2 L32,38 L411,595 L129,595 L51,590 L47,596 L52,640 L141,639 L430,639 L474,640"/> 
            <glyph glyph-name="[" unicode="&#x5B;" horiz-adv-x="275" d=" M275,642 L275,614 L151,604 L151,-89 L275,-99 L275,-127 L270,-131 L107,-121 L109,258 L107,636 L270,646"/> 
            <glyph glyph-name="\" unicode="&#x5C;" horiz-adv-x="258" d=" M13,670 L18,676 L54,676 L258,-106 L254,-111 L217,-111"/> 
            <glyph glyph-name="]" unicode="&#x5D;" horiz-adv-x="178" d=" M10,-127 L10,-99 L134,-89 L134,604 L10,614 L10,642 L15,646 L178,636 L176,257 L178,-121 L15,-131"/> 
            <glyph glyph-name="^" unicode="&#x5E;" horiz-adv-x="394" d=" M394,128 L390,122 L358,113 L216,446 L211,446 L60,116 L53,113 L23,125 L186,485 L193,489 L238,489"/> 
            <glyph glyph-name="_" unicode="&#x5F;" horiz-adv-x="467" d=" M467,-91 L464,-124 L-11,-124 L-15,-119 L-12,-87 L463,-87"/> 
            <glyph glyph-name="`" unicode="&#x60;" horiz-adv-x="287" d=" M202,613 L287,543 L270,519 L263,518 Q175,588 105,649 L103,656 L124,683 L131,684"/> 
            <glyph glyph-name="a" unicode="&#x61;" horiz-adv-x="420" d=" M285,462 Q353,400 353,345 Q353,324 351,289.5 Q349,255 348,216 Q342,102 342,87 Q342,61 349.5,50.5 Q357,40 375,40 Q393,40 413,50 L420,45 L414,12 Q390,-3 363,-4 Q303,-2 300,71 L295,71 Q238,6 177,-6 Q117,-6 83,25.5 Q49,57 49,113 Q49,194 137,214 L303,253 L305,334 Q305,377 282,399.5 Q259,422 217,422 Q153,422 77,357 L71,360 L63,397 Q145,462 224,462 M147,179 Q96,167 96,119 Q96,81 117,59.5 Q138,38 175,38 Q205,38 236.5,59 Q268,80 298,119 L302,216"/> 
            <glyph glyph-name="b" unicode="&#x62;" horiz-adv-x="459" d=" M368,460 Q459,344 459,240 Q459,123 402,58 Q345,-7 243,-7 Q192,-7 141,12 L104,-6 L94,0 L97,193 L94,697 L146,702 L144,390 L149,390 Q210,450 285,460 M323,33 Q410,136 410,233 Q410,320 376.5,368 Q343,416 281,416 Q208,416 144,340 L143,198 L144,61 Q199,33 246,33"/> 
            <glyph glyph-name="c" unicode="&#x63;" horiz-adv-x="367" d=" M271,462 Q340,443 365,428 L355,383 L347,382 Q324,398 295,408 Q266,418 238,418 Q173,418 135.5,366.5 Q98,315 98,226 Q98,139 136,88 Q174,37 240,37 Q270,37 302,47.5 Q334,58 360,75 L367,71 L362,27 Q335,12 301.5,3 Q268,-6 235,-6 Q149,-6 99,56 Q49,118 49,224 Q49,333 100,397.5 Q151,462 239,462"/> 
            <glyph glyph-name="d" unicode="&#x64;" horiz-adv-x="488" d=" M410,198 L412,87 Q412,61 419,50.5 Q426,40 444,40 Q461,40 481,50 L488,45 L482,12 Q458,-3 431,-4 Q374,-2 369,67 L364,67 Q333,36 304,19 Q275,2 239,-5 Q149,-5 99,55 Q49,115 49,223 Q49,337 106,399.5 Q163,462 266,462 Q309,462 363,449 L363,697 L414,702 M184,423 Q98,323 98,230 Q98,140 135,90 Q172,40 237,40 Q272,40 303,57.5 Q334,75 364,113 L365,194 L363,401 Q310,423 261,423"/> 
            <glyph glyph-name="e" unicode="&#x65;" horiz-adv-x="404" d=" M321,462 Q404,373 404,293 Q404,273 401,252 L393,243 L97,241 L97,226 Q97,137 137.5,87 Q178,37 251,37 Q287,37 322,48.5 Q357,60 384,80 L391,76 L384,31 Q319,-6 245,-6 Q154,-6 101.5,55.5 Q49,117 49,224 Q49,296 73,350 Q97,404 142,433 Q187,462 246,462 M356,300 Q356,358 327,390.5 Q298,423 245,423 Q188,423 150,384.5 Q112,346 101,279 L354,283"/> 
            <glyph glyph-name="f" unicode="&#x66;" horiz-adv-x="330" d=" M290,704 L330,695 L326,653 L321,650 Q287,664 253,664 Q209,664 185.5,636 Q162,608 162,554 L161,454 L283,454 L286,449 L282,417 L161,417 L159,197 L162,0 L111,0 L114,192 L113,417 L45,417 L41,422 L45,454 L113,454 L112,548 Q112,624 149.5,664 Q187,704 256,704"/> 
            <glyph glyph-name="g" unicode="&#x67;" horiz-adv-x="471" d=" M425,416 L371,406 L370,403 Q399,365 399,307 Q399,235 353.5,192.5 Q308,150 230,150 Q193,150 160,161 Q137,144 129,133.5 Q121,123 121,113 Q121,91 149.5,81.5 Q178,72 239,63 Q298,54 336,44 Q374,34 401,12 Q428,-10 428,-48 Q428,-87 400,-120 Q372,-153 324,-172.5 Q276,-192 220,-192 Q144,-192 100.5,-157.5 Q57,-123 57,-69 Q67,-39 90,-15.5 Q113,8 152,31 L152,36 Q114,46 92.5,63.5 Q71,81 71,111 Q84,140 131,171 L131,174 Q67,214 67,302 Q67,376 112.5,418 Q158,460 236,460 Q291,460 328,439 Q412,455 465,470 L471,466 L471,428 M288,188 Q352,251 352,307 Q352,362 321.5,392 Q291,422 235,422 Q178,422 146,391 Q114,360 114,304 Q114,250 145,219 Q176,188 232,188 M381,-29 Q341,1 311.5,8 Q282,15 232,22 L199,27 Q153,2 128.5,-23 Q104,-48 104,-76 Q104,-109 136,-131.5 Q168,-154 225,-154 Q268,-154 303.5,-140.5 Q339,-127 360,-104 Q381,-81 381,-55"/> 
            <glyph glyph-name="h" unicode="&#x68;" horiz-adv-x="433" d=" M359,461 Q433,390 432,325 L430,197 L432,0 L380,0 L384,315 Q384,363 359.5,389.5 Q335,416 290,416 Q219,416 143,334 L142,198 L145,0 L94,0 L97,195 L94,697 L146,702 L143,384 L149,384 Q183,417 219.5,437 Q256,457 289,461"/> 
            <glyph glyph-name="i" unicode="&#x69;" horiz-adv-x="149" d=" M92,195 L91,451 L141,457 L140,198 L141,0 L90,0 M132,648 Q149,630 149,615 Q149,599 140,589.5 Q131,580 115,580 Q99,580 90.5,588.5 Q82,597 82,613 Q82,629 91,638.5 Q100,648 116,648"/> 
            <glyph glyph-name="j" unicode="&#x6A;" horiz-adv-x="156" d=" M156,455 L153,198 L155,16 Q155,-62 129.5,-107 Q104,-152 38,-193 L18,-169 L18,-162 Q68,-127 87.5,-89.5 Q107,-52 107,12 L108,195 L106,417 L17,417 L12,423 L16,454 L105,454 L154,457 M132,648 Q149,630 149,615 Q149,599 140,589.5 Q131,580 115,580 Q99,580 90.5,588.5 Q82,597 82,613 Q82,629 91,638.5 Q100,648 116,648"/> 
            <glyph glyph-name="k" unicode="&#x6B;" horiz-adv-x="429" d=" M142,198 L145,0 L94,0 L97,195 L94,697 L146,702 M221,245 Q319,124 429,10 L429,3 Q419,-2 404,-4.5 Q389,-7 384,-8 L377,-6 Q260,121 167,239 L167,245 L326,418 L353,455 L415,455"/> 
            <glyph glyph-name="l" unicode="&#x6C;" horiz-adv-x="146" d=" M142,198 L145,0 L94,0 L97,195 L94,697 L146,702"/> 
            <glyph glyph-name="m" unicode="&#x6D;" horiz-adv-x="713" d=" M712,197 L713,0 L661,0 L665,315 Q665,363 641,389.5 Q617,416 572,416 Q536,416 499,395.5 Q462,375 427,337 L427,325 L426,197 L427,0 L375,0 L379,315 Q379,363 355,389.5 Q331,416 286,416 Q215,416 139,334 L139,198 L141,0 L89,0 L92,195 L90,451 L139,457 L139,384 L145,384 Q179,417 215,437 Q251,457 285,461 Q337,461 371,440 Q405,419 419,380 L424,380 Q459,414 497.5,435 Q536,456 571,461 Q640,461 676.5,425.5 Q713,390 713,325"/> 
            <glyph glyph-name="n" unicode="&#x6E;" horiz-adv-x="428" d=" M379,315 Q380,363 355.5,389.5 Q331,416 286,416 Q250,416 212,394.5 Q174,373 139,333 L138,198 L141,0 L89,0 L92,195 L90,451 L139,457 L139,384 L144,384 Q178,417 214.5,437 Q251,457 285,461 Q354,461 391,425.5 Q428,390 427,325 L426,197 L428,0 L376,0"/> 
            <glyph glyph-name="o" unicode="&#x6F;" horiz-adv-x="439" d=" M338,462 Q439,341 439,233 Q439,120 386,57 Q333,-6 239,-6 Q149,-6 99,54.5 Q49,115 49,222 Q49,335 101.5,398.5 Q154,462 248,462 M176,423 Q98,323 98,232 Q98,136 135.5,84.5 Q173,33 241,33 Q312,33 351,82.5 Q390,132 390,223 Q390,319 352,371 Q314,423 246,423"/> 
            <glyph glyph-name="p" unicode="&#x70;" horiz-adv-x="454" d=" M363,460 Q454,346 454,240 Q454,123 397,58.5 Q340,-6 236,-6 Q186,-6 139,3 L140,-185 L89,-185 L92,195 L89,451 L139,457 L139,391 L144,391 Q206,451 280,460 M319,33 Q405,138 405,233 Q405,321 371.5,368.5 Q338,416 276,416 Q203,416 139,340 L138,198 L139,56 Q194,33 241,33"/> 
            <glyph glyph-name="q" unicode="&#x71;" horiz-adv-x="414" d=" M408,460 L414,456 L410,189 L413,-185 L363,-185 L364,40 L364,61 L359,61 Q330,32 301.5,16.5 Q273,1 236,-5 Q148,-5 98.5,55 Q49,115 49,222 Q49,337 106,399.5 Q163,462 264,462 Q311,462 379,445 M184,422 Q98,322 98,228 Q98,139 135,89.5 Q172,40 235,40 Q271,40 302.5,57.5 Q334,75 364,113 L365,183 L363,400 Q307,422 260,422"/> 
            <glyph glyph-name="r" unicode="&#x72;" horiz-adv-x="302" d=" M288,456 L302,454 L302,404 L295,402 Q277,405 263,405 Q229,405 199,376.5 Q169,348 138,284 L138,198 L141,0 L89,0 L92,195 L90,451 L139,457 L139,355 L144,355 Q201,456 276,456"/> 
            <glyph glyph-name="s" unicode="&#x73;" horiz-adv-x="316" d=" M252,460 L302,439 L294,396 L285,394 Q238,421 194,421 Q153,421 127,398 Q101,375 101,342 Q101,310 125,291.5 Q149,273 198,251 Q238,232 260.5,218 Q283,204 299.5,181 Q316,158 316,125 Q316,90 297.5,60 Q279,30 244,12 Q209,-6 163,-6 Q96,-6 38,27 L45,72 L52,76 Q77,55 107.5,44 Q138,33 166,33 Q212,33 240,58 Q268,83 268,117 Q268,148 245,166.5 Q222,185 173,208 Q134,226 110,241 Q86,256 69.5,280 Q53,304 53,338 Q53,391 93,425.5 Q133,460 199,460"/> 
            <glyph glyph-name="t" unicode="&#x74;" horiz-adv-x="296" d=" M248,40 L288,63 L294,58 L289,22 Q239,-4 199,-5 Q147,1 122,31.5 Q97,62 97,119 L99,209 L98,417 L36,417 L32,422 L36,454 L98,454 L98,545 L142,563 L148,558 L147,454 L292,454 L296,449 L292,417 L147,417 L144,124 Q144,81 161,60.5 Q178,40 213,40"/> 
            <glyph glyph-name="u" unicode="&#x75;" horiz-adv-x="483" d=" M483,45 L477,12 Q453,-2 426,-4 Q397,-2 381,16 Q365,34 361,71 L357,71 Q289,3 217,-5 Q151,-5 116,30 Q81,65 81,131 L82,240 L80,451 L132,457 L129,141 Q129,93 151.5,66.5 Q174,40 217,40 Q289,40 359,115 L359,451 L408,457 L406,89 Q406,63 413.5,51.5 Q421,40 438,40 Q456,40 476,50"/> 
            <glyph glyph-name="v" unicode="&#x76;" horiz-adv-x="397" d=" M81,404 L195,57 L200,57 L333,402 L348,455 L397,455 L222,0 L167,0 L19,453 L68,458"/> 
            <glyph glyph-name="w" unicode="&#x77;" horiz-adv-x="647" d=" M79,405 L177,60 L182,60 L293,403 L308,455 L360,455 L371,405 L468,60 L473,60 L585,403 L599,455 L647,455 L493,0 L442,0 L334,384 L328,384 L203,0 L151,0 L19,453 L68,458"/> 
            <glyph glyph-name="x" unicode="&#x78;" horiz-adv-x="398" d=" M107,420 L214,264 L316,418 L338,455 L390,455 L242,232 L398,3 L342,-3 L320,38 L208,201 L97,35 L77,0 L25,0 L180,233 L31,452 L88,458"/> 
            <glyph glyph-name="y" unicode="&#x79;" horiz-adv-x="401" d=" M78,405 L202,63 L208,63 L337,402 L352,455 L401,455 L231,9 Q205,-59 177.5,-97 Q150,-135 111.5,-155.5 Q73,-176 10,-190 L4,-190 Q-10,-177 -17,-160 L-16,-152 Q39,-142 73,-126 Q107,-110 132,-81 Q157,-52 181,0 L14,453 L63,458"/> 
            <glyph glyph-name="z" unicode="&#x7A;" horiz-adv-x="370" d=" M119,455 L332,455 L365,456 L366,423 L93,39 L301,39 L366,43 L370,38 L364,-1 L288,0 L73,0 L36,-1 L35,32 L308,417 L110,417 L50,412 L45,418 L51,457"/> 
            <glyph glyph-name="{" unicode="&#x7B;" horiz-adv-x="270" d=" M239,654 L267,648 L270,643 L264,612 Q239,617 226,617 Q193,617 176.5,598 Q160,579 160,537 Q160,510 170,444 Q180,384 180,362 Q180,286 114,259 L114,256 Q180,229 180,153 Q180,132 170,70 Q160,6 160,-23 Q160,-64 176.5,-83.5 Q193,-103 226,-103 Q239,-103 264,-98 L270,-128 L267,-133 Q246,-139 222,-139 Q117,-139 117,-29 Q117,4 127,72 Q136,126 136,151 Q136,191 115,213 Q94,235 49,242 L49,272 Q94,279 115,301.5 Q136,324 136,363 Q136,388 127,442 Q117,512 117,544 Q117,654 222,654"/> 
            <glyph glyph-name="|" unicode="&#x7C;" horiz-adv-x="180" d=" M180,790 L179,286 L179,-262 L142,-264 L137,-257 L137,791 L176,794"/> 
            <glyph glyph-name="}" unicode="&#x7D;" horiz-adv-x="236" d=" M46,-139 L18,-133 L15,-128 L21,-97 Q46,-102 59,-102 Q92,-102 108.5,-83 Q125,-64 125,-22 Q125,5 115,71 Q105,131 105,153 Q105,229 171,256 L171,259 Q105,286 105,362 Q105,383 115,445 Q125,509 125,538 Q125,579 108.5,598.5 Q92,618 59,618 Q46,618 21,613 L15,643 L18,648 Q39,654 63,654 Q168,654 168,544 Q168,511 158,443 Q149,389 149,364 Q149,324 170,302 Q191,280 236,273 L236,243 Q191,236 170,213.5 Q149,191 149,152 Q149,127 158,73 Q168,3 168,-29 Q168,-139 63,-139"/> 
            <glyph glyph-name="~" unicode="&#x7E;" horiz-adv-x="421" d=" M139,267 Q118,251 104,238 Q90,225 83,219 L75,219 L60,237 L60,244 L129,308 L137,312 Q155,310 187.5,300.5 Q220,291 231,288 Q263,279 292.5,271.5 Q322,264 333,264 Q341,264 351,271.5 Q361,279 381,298 L398,313 L406,313 L421,294 L421,288 L351,223 L343,221 Q320,223 238,246 Q164,267 148,267"/> 
            <glyph glyph-name="¡" unicode="&#xA1;" horiz-adv-x="169" d=" M92,-191 L107,251 L140,254 L146,247 L143,-189 L137,-195 L98,-197 M119,395 Q102,413 102,428 Q102,444 111,453.5 Q120,463 136,463 Q152,463 160.5,454.5 Q169,446 169,430 Q169,414 160,404.5 Q151,395 135,395"/> 
            <glyph glyph-name="¢" unicode="&#xA2;" horiz-adv-x="363" d=" M363,112 L359,78 Q332,60 297,49.5 Q262,39 227,39 L222,39 L209,-117 L181,-117 L175,-111 L188,43 Q121,57 83,116.5 Q45,176 45,267 Q45,374 93.5,438 Q142,502 225,505 L237,651 L265,651 L271,645 L260,503 Q288,499 314,489.5 Q340,480 360,466 L350,431 L343,431 Q307,457 257,465 L225,76 L234,76 Q264,76 296.5,86.5 Q329,97 356,115 M87,196 Q142,98 191,82 L222,467 Q160,462 123.5,409.5 Q87,357 87,270"/> 
            <glyph glyph-name="£" unicode="&#xA3;" horiz-adv-x="366" d=" M366,35 L361,-1 L274,0 L33,0 L28,5 L32,35 Q103,47 103,144 L103,298 L34,298 L30,302 L34,332 L103,332 L103,437 Q102,512 139,552 Q176,592 248,592 Q294,592 351,574 L347,535 L343,532 Q295,554 247,554 Q149,554 149,443 L149,332 L288,332 L292,327 L288,298 L149,298 L148,150 Q148,112 138.5,86.5 Q129,61 108,41 L108,39 L286,39 L362,41"/> 
            <glyph glyph-name="¤" unicode="&#xA4;" horiz-adv-x="386" d=" M385,515 L384,508 L319,444 Q348,409 348,362 Q348,316 319,282 L386,218 L386,211 L363,187 L356,188 L292,254 Q255,224 211,224 Q189,224 168,232 Q147,240 131,254 L67,187 L60,187 L36,210 L37,217 L103,281 Q73,316 73,362 Q73,408 102,443 L35,507 L36,514 L58,537 L65,537 L130,470 Q164,499 211,499 Q255,499 290,472 L355,538 L361,538 M168,465 Q108,405 108,362 Q108,319 138,289 Q168,259 211,259 Q254,259 284.5,289 Q315,319 315,362 Q315,405 284.5,435 Q254,465 211,465"/> 
            <glyph glyph-name="¥" unicode="&#xA5;" horiz-adv-x="443" d=" M439,156 L442,152 L440,125 L249,125 L251,0 L206,0 L208,125 L22,125 L19,129 L21,156 L208,156 L207,180 L166,257 L22,257 L19,261 L21,287 L150,287 L38,494 L87,494 L97,470 L227,234 L232,234 L373,469 L385,494 L434,494 L312,287 L439,287 L443,284 L440,257 L295,257 L250,180 L249,156"/> 
            <glyph glyph-name="¦" unicode="&#xA6;" horiz-adv-x="180" d=" M180,790 L179,370 L142,366 L137,370 L137,791 L176,794 M179,153 L179,-262 L142,-264 L137,-257 L137,155 L174,160"/> 
            <glyph glyph-name="§" unicode="&#xA7;" horiz-adv-x="366" d=" M366,210 Q316,142 272,121 Q318,75 318,26 Q318,-8 298,-38 Q278,-68 242.5,-85.5 Q207,-103 162,-103 Q131,-103 97.5,-94.5 Q64,-86 38,-70 L45,-26 L52,-21 Q77,-43 107,-54.5 Q137,-66 167,-66 Q215,-66 243.5,-40.5 Q272,-15 272,19 Q272,50 247.5,75.5 Q223,101 172,138 Q112,181 81,214.5 Q50,248 50,295 Q50,334 75,368.5 Q100,403 143,425 Q98,468 98,517 Q98,551 117.5,580 Q137,609 171,626 Q205,643 248,643 Q298,643 350,622 L342,578 L333,576 Q286,605 241,605 Q198,605 171,580 Q144,555 144,523 Q144,493 167.5,469 Q191,445 242,408 Q282,379 306.5,358 Q331,337 348.5,309 Q366,281 366,248 M320,183 L320,240 Q320,274 295,300.5 Q270,327 218,365 Q181,392 173,399 Q135,379 115,354 Q95,329 95,302 Q95,270 120,244 Q145,218 197,181 Q239,150 243,147"/> 
            <glyph glyph-name="¨" unicode="&#xA8;" horiz-adv-x="302" d=" M135,634 Q152,617 152,602 Q152,587 143.5,577.5 Q135,568 120,568 Q105,568 96.5,577 Q88,586 88,601 Q88,616 96.5,625 Q105,634 121,634 M285,634 Q302,617 302,602 Q302,587 293,577.5 Q284,568 269,568 Q254,568 245.5,577 Q237,586 237,601 Q237,616 246,625 Q255,634 270,634"/> 
            <glyph glyph-name="©" unicode="&#xA9;" horiz-adv-x="635" d=" M428,598 Q562,522 598.5,453 Q635,384 635,293 Q635,202 598.5,133 Q562,64 495,26 Q428,-12 341,-12 Q254,-12 187.5,26 Q121,64 84.5,133 Q48,202 48,293 Q48,384 84.5,453 Q121,522 187.5,560 Q254,598 341,598 M262,571 Q141,502 108,439 Q75,376 75,293 Q75,210 108,147 Q141,84 201.5,49.5 Q262,15 341,15 Q420,15 480.5,49.5 Q541,84 574.5,147 Q608,210 608,293 Q608,376 574.5,439 Q541,502 480.5,536.5 Q420,571 341,571 M404,465 L449,439 L441,407 L436,406 Q419,418 396.5,424.5 Q374,431 352,431 Q296,431 266.5,397 Q237,363 237,297 Q237,230 266,195 Q295,160 350,160 Q372,160 396.5,167 Q421,174 442,187 L447,186 L443,153 Q395,125 347,125 Q274,125 235.5,169 Q197,213 197,295 Q197,377 237,421 Q277,465 353,465"/> 
            <glyph glyph-name="ª" unicode="&#xAA;" horiz-adv-x="290" d=" M201,646 Q249,605 249,567 L246,483 Q243,431 243,407 Q243,391 248,384 Q253,377 263,377 Q275,377 285,384 L290,381 L285,352 Q269,340 247,340 Q226,340 216,351 Q206,362 204,388 L201,388 Q163,345 121,339 Q81,340 59,361 Q37,382 37,420 Q37,477 97,489 L204,511 L205,558 Q205,611 150,611 Q110,611 59,572 L54,574 L48,606 Q73,625 102,635.5 Q131,646 158,646 M117,465 Q81,458 81,424 Q81,401 93.5,388 Q106,375 130,375 Q147,375 165.5,386.5 Q184,398 201,419 L203,485"/> 
            <glyph glyph-name="«" unicode="&#xAB;" horiz-adv-x="389" d=" M213,216 L213,230 L363,401 L389,385 L389,377 L256,224 L389,71 L389,63 L363,47 M56,216 L56,230 L206,401 L232,385 L232,377 L99,224 L232,71 L232,63 L206,47"/> 
            <glyph glyph-name="¬" unicode="&#xAC;" horiz-adv-x="420" d=" M420,280 L420,65 L386,62 L381,67 L381,248 L36,248 L32,252 L35,287 L414,287"/> 
            <glyph glyph-name="­" unicode="&#xAD;" horiz-adv-x="279" d=" M279,286 L279,251 L36,217 L30,223 L30,258 L273,291"/> 
            <glyph glyph-name="®" unicode="&#xAE;" horiz-adv-x="397" d=" M299,702 Q397,604 397,524 Q397,442 348,393 Q299,344 218,344 Q137,344 88,393 Q39,442 39,524 Q39,604 88,653 Q137,702 218,702 M289,367 Q375,453 375,524 Q375,594 332,636.5 Q289,679 219,679 Q148,679 105,636.5 Q62,594 62,524 Q62,453 105,410 Q148,367 219,367 M285,551 Q264,520 245,511 Q269,476 298,440 L297,436 Q292,434 269,431 L266,433 Q244,461 219,504 L184,504 L184,495 L186,434 L157,434 L157,627 L223,627 Q285,627 285,570 M185,529 L222,528 Q256,539 256,568 Q256,585 245,594 Q234,603 214,604 L186,603"/> 
            <glyph glyph-name="¯" unicode="&#xAF;" horiz-adv-x="341" d=" M341,617 L338,584 L53,584 L49,589 L51,621 L337,621"/> 
            <glyph glyph-name="°" unicode="&#xB0;" horiz-adv-x="270" d=" M198,645 Q270,574 270,522 Q270,471 234,436 Q198,401 147,401 Q95,401 59,436 Q23,471 23,522 Q23,574 59,609.5 Q95,645 147,645 M109,615 Q53,560 53,522 Q53,485 81,458 Q109,431 147,431 Q185,431 212.5,458 Q240,485 240,522 Q240,560 212.5,587.5 Q185,615 147,615"/> 
            <glyph glyph-name="±" unicode="&#xB1;" horiz-adv-x="445" d=" M260,468 L260,287 L440,287 L445,282 L442,248 L260,248 L260,65 L225,62 L220,67 L220,248 L39,248 L35,252 L38,287 L220,287 L220,469 L255,473 M445,65491 L442,65457 L39,65457 L35,65461 L38,65496 L440,65496"/> 
            <glyph glyph-name="²" unicode="&#xB2;" horiz-adv-x="318" d=" M216,704 Q272,659 272,623 Q272,594 251.5,560 Q231,526 183,467 L104,367 L106,365 L253,365 L316,367 L318,362 L313,325 L240,327 L73,327 L45,326 L42,328 L42,358 L144,480 Q188,535 206,563 Q224,591 224,614 Q224,635 208,650 Q192,665 163,665 Q136,665 109,650.5 Q82,636 61,611 L55,611 L47,647 Q104,704 173,704"/> 
            <glyph glyph-name="³" unicode="&#xB3;" horiz-adv-x="252" d=" M181,705 Q236,660 236,623 Q236,596 218.5,570.5 Q201,545 170,531 L170,528 Q210,518 231,494.5 Q252,471 252,436 Q252,386 211,355 Q170,324 103,324 Q66,324 39,331 L35,364 L39,368 Q68,361 103,361 Q150,361 178,381.5 Q206,402 206,437 Q206,469 183.5,486.5 Q161,504 118,505 L79,505 L76,509 L77,541 L107,541 Q136,541 162,562.5 Q188,584 188,615 Q188,639 171.5,653 Q155,667 128,667 Q89,667 45,632 L40,632 L32,665 Q81,705 136,705"/> 
            <glyph glyph-name="´" unicode="&#xB4;" horiz-adv-x="287" d=" M266,683 L287,656 L286,649 Q238,608 128,518 L121,519 L104,543 Q181,606 260,684"/> 
            <glyph glyph-name="µ" unicode="&#xB5;" horiz-adv-x="496" d=" M496,45 L490,12 Q466,-3 439,-4 Q410,-2 394,16 Q378,34 374,71 L370,71 Q302,3 230,-5 Q167,-5 135,32 L142,-185 L93,-185 L95,195 L93,451 L142,457 L142,141 Q142,93 164.5,66.5 Q187,40 230,40 Q302,40 372,115 L372,451 L421,457 L419,89 Q419,63 426.5,51.5 Q434,40 451,40 Q469,40 489,50"/> 
            <glyph glyph-name="¶" unicode="&#xB6;" horiz-adv-x="437" d=" M437,633 L432,596 L354,596 L353,176 L354,126 Q354,65 320,17 Q286,-31 211,-73 L194,-48 L194,-40 Q252,-4 278.5,35 Q305,74 305,121 L305,164 L304,597 L239,597 Q171,592 134.5,553 Q98,514 98,447 Q98,379 137.5,334 Q177,289 252,272 L237,239 Q145,256 95,309 Q45,362 45,449 Q45,539 98,589 Q151,639 250,639 L431,639"/> 
            <glyph glyph-name="·" unicode="&#xB7;" horiz-adv-x="148" d=" M131,276 Q148,258 148,243 Q148,227 139,217.5 Q130,208 114,208 Q98,208 89.5,216.5 Q81,225 81,241 Q81,257 90,266.5 Q99,276 115,276"/> 
            <glyph glyph-name="¸" unicode="&#xB8;" horiz-adv-x="263" d=" M195,-53 L227,-73 Q246,-84 254.5,-96.5 Q263,-109 263,-126 Q263,-153 242.5,-169.5 Q222,-186 192,-186 Q152,-186 126,-154 L133,-125 L137,-124 Q150,-140 161.5,-147.5 Q173,-155 190,-155 Q206,-155 216,-147 Q226,-139 226,-125 Q226,-115 220.5,-109 Q215,-103 203,-96 L157,-68 L182,15 L216,15"/> 
            <glyph glyph-name="¹" unicode="&#xB9;" horiz-adv-x="154" d=" M154,700 L153,459 L154,327 L107,327 L108,453 L108,652 L20,628 L15,631 L15,668 L148,706"/> 
            <glyph glyph-name="º" unicode="&#xBA;" horiz-adv-x="300" d=" M232,646 Q300,567 300,496 Q300,421 264.5,379.5 Q229,338 164,338 Q102,338 68.5,377.5 Q35,417 35,489 Q35,564 70.5,605 Q106,646 170,646 M126,611 Q81,551 81,493 Q81,434 102.5,404 Q124,374 166,374 Q209,374 232,403.5 Q255,433 255,492 Q255,550 232.5,580.5 Q210,611 168,611"/> 
            <glyph glyph-name="»" unicode="&#xBB;" horiz-adv-x="323" d=" M323,233 L323,219 L173,48 L147,64 L147,72 L280,225 L147,378 L147,386 L173,402 M422,233 L422,219 L272,48 L246,64 L246,72 L379,225 L246,378 L246,386 L272,402"/> 
            <glyph glyph-name="¼" unicode="&#xBC;" horiz-adv-x="619" d=" M154,639 L153,398 L154,266 L107,266 L108,392 L108,591 L20,567 L15,570 L15,607 L148,645 M511,661 L515,650 L37,-90 L14,-78 L10,-67 L488,674 M619,141 L615,107 L556,109 L551,109 L554,4 L551,0 L514,-2 L511,0 L512,109 L386,109 L344,107 L340,112 L340,143 L509,374 L552,374 L551,146 L615,146 M512,146 L512,317 L508,317 L383,146"/> 
            <glyph glyph-name="½" unicode="&#xBD;" horiz-adv-x="630" d=" M154,639 L153,398 L154,266 L107,266 L108,392 L108,591 L20,567 L15,570 L15,607 L148,645 M511,661 L515,650 L37,-90 L14,-78 L10,-67 L488,674 M528,377 Q584,332 584,296 Q584,267 563.5,233 Q543,199 495,140 L416,40 L418,38 L565,38 L628,40 L630,35 L625,-2 L552,0 L385,0 L357,-1 L354,1 L354,31 L456,153 Q500,208 518,236 Q536,264 536,287 Q536,308 520,323 Q504,338 475,338 Q448,338 421,323.5 Q394,309 373,284 L367,284 L359,320 Q416,377 485,377"/> 
            <glyph glyph-name="¾" unicode="&#xBE;" horiz-adv-x="670" d=" M181,644 Q236,599 236,562 Q236,535 218.5,509.5 Q201,484 170,470 L170,467 Q210,457 231,433.5 Q252,410 252,375 Q252,325 211,294 Q170,263 103,263 Q66,263 39,270 L35,303 L39,307 Q68,300 103,300 Q150,300 178,320.5 Q206,341 206,376 Q206,408 183.5,425.5 Q161,443 118,444 L79,444 L76,448 L77,480 L107,480 Q136,480 162,501.5 Q188,523 188,554 Q188,578 171.5,592 Q155,606 128,606 Q89,606 45,571 L40,571 L32,604 Q81,644 136,644 M562,661 L566,650 L88,-90 L65,-78 L61,-67 L539,674 M670,141 L666,107 L607,109 L602,109 L605,4 L602,0 L565,-2 L562,0 L563,109 L437,109 L395,107 L391,112 L391,143 L560,374 L603,374 L602,146 L666,146 M563,146 L563,317 L559,317 L434,146"/> 
            <glyph glyph-name="¿" unicode="&#xBF;" horiz-adv-x="263" d=" M129,-190 Q5,-109 5,-42 Q5,-4 26,29.5 Q47,63 86,89 L176,149 L177,152 L172,254 L209,258 L214,252 L221,140 L216,130 L118,68 Q86,48 69.5,22 Q53,-4 53,-35 Q53,-89 105.5,-120.5 Q158,-152 259,-158 L263,-164 L252,-194 L244,-198 M174,395 Q156,413 156,428 Q156,444 165,453.5 Q174,463 190,463 Q206,463 214.5,454.5 Q223,446 223,430 Q223,414 214,404.5 Q205,395 189,395"/> 
            <glyph glyph-name="À" unicode="&#xC0;" horiz-adv-x="542" d=" M542,0 L488,0 L474,54 L426,192 L274,194 L137,192 L85,56 L70,0 L16,0 L260,639 L319,639 M410,238 L291,579 L285,579 L155,238 L280,237 M276,806 L385,752 L374,726 L367,723 Q267,768 182,812 L179,819 L194,849 L201,851"/> 
            <glyph glyph-name="Á" unicode="&#xC1;" horiz-adv-x="542" d=" M542,0 L488,0 L474,54 L426,192 L274,194 L137,192 L85,56 L70,0 L16,0 L260,639 L319,639 M410,238 L291,579 L285,579 L155,238 L280,237 M394,849 L408,819 L406,812 Q317,766 220,723 L213,726 L202,752 Q311,805 387,851"/> 
            <glyph glyph-name="Â" unicode="&#xC2;" horiz-adv-x="542" d=" M542,0 L488,0 L474,54 L426,192 L274,194 L137,192 L85,56 L70,0 L16,0 L260,639 L319,639 M410,238 L291,579 L285,579 L155,238 L280,237 M166,761 Q219,797 274,844 L293,844 Q366,786 402,761 L391,736 L383,736 L284,804 Q236,770 185,736 L178,736"/> 
            <glyph glyph-name="Ã" unicode="&#xC3;" horiz-adv-x="542" d=" M542,0 L488,0 L474,54 L426,192 L274,194 L137,192 L85,56 L70,0 L16,0 L260,639 L319,639 M410,238 L291,579 L285,579 L155,238 L280,237 M433,816 L433,810 L376,751 L368,748 Q347,750 288,768 Q224,786 212,786 Q206,786 197.5,779.5 Q189,773 180,763 L158,742 L152,742 L135,760 L135,766 L192,825 L200,827 Q223,825 284,807 Q341,790 355,790 Q362,790 370,796 Q378,802 391,815 Q391,815 410,834 L415,834"/> 
            <glyph glyph-name="Ä" unicode="&#xC4;" horiz-adv-x="542" d=" M542,0 L488,0 L474,54 L426,192 L274,194 L137,192 L85,56 L70,0 L16,0 L260,639 L319,639 M410,238 L291,579 L285,579 L155,238 L280,237 M225,818 Q242,801 242,786 Q242,771 233.5,761.5 Q225,752 210,752 Q195,752 186.5,761 Q178,770 178,785 Q178,800 186.5,809 Q195,818 211,818 M375,818 Q392,801 392,786 Q392,771 383,761.5 Q374,752 359,752 Q344,752 335.5,761 Q327,770 327,785 Q327,800 336,809 Q345,818 360,818"/> 
            <glyph glyph-name="Å" unicode="&#xC5;" horiz-adv-x="542" d=" M542,0 L488,0 L474,54 L426,192 L274,194 L137,192 L85,56 L70,0 L16,0 L260,639 L319,639 M410,238 L291,579 L285,579 L155,238 L280,237 M319,867 Q360,824 360,792 Q360,756 337,735 Q314,714 282,714 Q249,714 227,734.5 Q205,755 205,791 Q205,825 226,846 Q247,867 283,867 M260,837 Q235,813 235,792 Q235,769 248,756.5 Q261,744 282,744 Q303,744 317,756 Q331,768 331,790 Q331,811 318.5,824 Q306,837 282,837"/> 
            <glyph glyph-name="Æ" unicode="&#xC6;" horiz-adv-x="780" d=" M780,41 L774,0 L447,0 L442,54 L407,274 L157,224 L64,56 L41,0 L-15,0 L337,639 L676,639 L680,633 L674,592 L510,595 L408,595 L450,326 L675,368 L680,364 L680,325 L457,284 L494,44 L612,44 L776,47 M400,316 L358,579 L354,579 L185,275"/> 
            <glyph glyph-name="Ç" unicode="&#xC7;" horiz-adv-x="493" d=" M367,644 Q457,617 493,591 L482,544 L474,543 Q404,599 316,599 Q209,599 152.5,527 Q96,455 96,319 Q96,183 151,111.5 Q206,40 309,40 Q355,40 400,56.5 Q445,73 484,103 L492,100 L488,51 Q402,-6 306,-6 Q180,-6 111.5,77.5 Q43,161 43,316 Q43,473 114.5,558.5 Q186,644 318,644 M310,-53 L342,-73 Q361,-84 369.5,-96.5 Q378,-109 378,-126 Q378,-153 357.5,-169.5 Q337,-186 307,-186 Q267,-186 241,-154 L248,-125 L252,-124 Q265,-140 276.5,-147.5 Q288,-155 305,-155 Q321,-155 331,-147 Q341,-139 341,-125 Q341,-115 335.5,-109 Q330,-103 318,-96 L272,-68 L297,15 L331,15"/> 
            <glyph glyph-name="È" unicode="&#xC8;" horiz-adv-x="443" d=" M443,41 L438,0 L101,0 L104,194 L101,639 L437,639 L441,633 L435,592 L286,594 L154,593 L152,352 L277,351 L384,352 L388,347 L383,306 L152,307 L151,197 L153,45 L282,44 L439,47 M262,806 L371,752 L360,726 L353,723 Q253,768 168,812 L165,819 L180,849 L187,851"/> 
            <glyph glyph-name="É" unicode="&#xC9;" horiz-adv-x="443" d=" M443,41 L438,0 L101,0 L104,194 L101,639 L437,639 L441,633 L435,592 L286,594 L154,593 L152,352 L277,351 L384,352 L388,347 L383,306 L152,307 L151,197 L153,45 L282,44 L439,47 M380,849 L394,819 L392,812 Q303,766 206,723 L199,726 L188,752 Q297,805 373,851"/> 
            <glyph glyph-name="Ê" unicode="&#xCA;" horiz-adv-x="443" d=" M443,41 L438,0 L101,0 L104,194 L101,639 L437,639 L441,633 L435,592 L286,594 L154,593 L152,352 L277,351 L384,352 L388,347 L383,306 L152,307 L151,197 L153,45 L282,44 L439,47 M152,761 Q205,797 260,844 L279,844 Q352,786 388,761 L377,736 L369,736 L270,804 Q222,770 171,736 L164,736"/> 
            <glyph glyph-name="Ë" unicode="&#xCB;" horiz-adv-x="443" d=" M443,41 L438,0 L101,0 L104,194 L101,639 L437,639 L441,633 L435,592 L286,594 L154,593 L152,352 L277,351 L384,352 L388,347 L383,306 L152,307 L151,197 L153,45 L282,44 L439,47 M211,818 Q228,801 228,786 Q228,771 219.5,761.5 Q211,752 196,752 Q181,752 172.5,761 Q164,770 164,785 Q164,800 172.5,809 Q181,818 197,818 M361,818 Q378,801 378,786 Q378,771 369,761.5 Q360,752 345,752 Q330,752 321.5,761 Q313,770 313,785 Q313,800 322,809 Q331,818 346,818"/> 
            <glyph glyph-name="Ì" unicode="&#xCC;" horiz-adv-x="228" d=" M151,197 L153,0 L101,0 L104,194 L101,639 L154,639 M119,806 L228,752 L217,726 L210,723 Q110,768 25,812 L22,819 L37,849 L44,851"/> 
            <glyph glyph-name="Í" unicode="&#xCD;" horiz-adv-x="251" d=" M151,197 L153,0 L101,0 L104,194 L101,639 L154,639 M237,849 L251,819 L249,812 Q160,766 63,723 L56,726 L45,752 Q154,805 230,851"/> 
            <glyph glyph-name="Î" unicode="&#xCE;" horiz-adv-x="245" d=" M151,197 L153,0 L101,0 L104,194 L101,639 L154,639 M9,761 Q62,797 117,844 L136,844 Q209,786 245,761 L234,736 L226,736 L127,804 Q79,770 28,736 L21,736"/> 
            <glyph glyph-name="Ï" unicode="&#xCF;" horiz-adv-x="212" d=" M151,197 L153,0 L101,0 L104,194 L101,639 L154,639 M90,818 Q107,800 107,786 Q107,771 98,761.5 Q89,752 75,752 Q60,752 51.5,761 Q43,770 43,785 Q43,800 51.5,809 Q60,818 76,818 M195,818 Q212,800 212,786 Q212,771 203,761.5 Q194,752 179,752 Q164,752 155.5,761 Q147,770 147,785 Q147,800 156,809 Q165,818 181,818"/> 
            <glyph glyph-name="Ð" unicode="&#xD0;" horiz-adv-x="618" d=" M473,643 Q618,487 618,341 Q618,174 541,84.5 Q464,-5 320,-5 Q283,-5 225.5,-3.5 Q168,-2 120,0 L123,194 L120,639 L337,643 M442,39 Q565,189 565,332 Q565,464 506,531.5 Q447,599 334,599 Q306,599 259,597.5 Q212,596 173,594 L170,197 L172,45 Q213,43 256.5,41 Q300,39 327,39 M331,342 L330,307 L12,307 L10,312 L11,347 L329,347"/> 
            <glyph glyph-name="Ñ" unicode="&#xD1;" horiz-adv-x="576" d=" M573,182 L573,0 L520,0 L154,552 L149,552 L148,205 L149,0 L101,0 L103,190 L102,639 L156,639 L521,87 L526,87 L527,636 L576,640 M484,816 L484,810 L427,751 L419,748 Q398,750 339,768 Q275,786 263,786 Q257,786 248.5,779.5 Q240,773 231,763 L209,742 L203,742 L186,760 L186,766 L243,825 L251,827 Q274,825 335,807 Q392,790 406,790 Q413,790 421,796 Q429,802 442,815 Q442,815 461,834 L466,834"/> 
            <glyph glyph-name="Ò" unicode="&#xD2;" horiz-adv-x="589" d=" M451,645 Q589,482 589,331 Q589,168 516,81 Q443,-6 308,-6 Q181,-6 112,77.5 Q43,161 43,316 Q43,474 115.5,559.5 Q188,645 322,645 M209,601 Q95,459 95,321 Q95,180 150,108 Q205,36 312,36 Q422,36 479,109 Q536,182 536,323 Q536,461 481,531 Q426,601 319,601 M308,806 L417,752 L406,726 L399,723 Q299,768 214,812 L211,819 L226,849 L233,851"/> 
            <glyph glyph-name="Ó" unicode="&#xD3;" horiz-adv-x="589" d=" M451,645 Q589,482 589,331 Q589,168 516,81 Q443,-6 308,-6 Q181,-6 112,77.5 Q43,161 43,316 Q43,474 115.5,559.5 Q188,645 322,645 M209,601 Q95,459 95,321 Q95,180 150,108 Q205,36 312,36 Q422,36 479,109 Q536,182 536,323 Q536,461 481,531 Q426,601 319,601 M426,849 L440,819 L438,812 Q349,766 252,723 L245,726 L234,752 Q343,805 419,851"/> 
            <glyph glyph-name="Ô" unicode="&#xD4;" horiz-adv-x="589" d=" M451,645 Q589,482 589,331 Q589,168 516,81 Q443,-6 308,-6 Q181,-6 112,77.5 Q43,161 43,316 Q43,474 115.5,559.5 Q188,645 322,645 M209,601 Q95,459 95,321 Q95,180 150,108 Q205,36 312,36 Q422,36 479,109 Q536,182 536,323 Q536,461 481,531 Q426,601 319,601 M198,761 Q251,797 306,844 L325,844 Q398,786 434,761 L423,736 L415,736 L316,804 Q268,770 217,736 L210,736"/> 
            <glyph glyph-name="Õ" unicode="&#xD5;" horiz-adv-x="589" d=" M451,645 Q589,482 589,331 Q589,168 516,81 Q443,-6 308,-6 Q181,-6 112,77.5 Q43,161 43,316 Q43,474 115.5,559.5 Q188,645 322,645 M209,601 Q95,459 95,321 Q95,180 150,108 Q205,36 312,36 Q422,36 479,109 Q536,182 536,323 Q536,461 481,531 Q426,601 319,601 M465,816 L465,810 L408,751 L400,748 Q379,750 320,768 Q256,786 244,786 Q238,786 229.5,779.5 Q221,773 212,763 L190,742 L184,742 L167,760 L167,766 L224,825 L232,827 Q255,825 316,807 Q373,790 387,790 Q394,790 402,796 Q410,802 423,815 Q423,815 442,834 L447,834"/> 
            <glyph glyph-name="Ö" unicode="&#xD6;" horiz-adv-x="589" d=" M451,645 Q589,482 589,331 Q589,168 516,81 Q443,-6 308,-6 Q181,-6 112,77.5 Q43,161 43,316 Q43,474 115.5,559.5 Q188,645 322,645 M209,601 Q95,459 95,321 Q95,180 150,108 Q205,36 312,36 Q422,36 479,109 Q536,182 536,323 Q536,461 481,531 Q426,601 319,601 M257,818 Q274,801 274,786 Q274,771 265.5,761.5 Q257,752 242,752 Q227,752 218.5,761 Q210,770 210,785 Q210,800 218.5,809 Q227,818 243,818 M407,818 Q424,801 424,786 Q424,771 415,761.5 Q406,752 391,752 Q376,752 367.5,761 Q359,770 359,785 Q359,800 368,809 Q377,818 392,818"/> 
            <glyph glyph-name="×" unicode="&#xD7;" horiz-adv-x="396" d=" M396,402 L396,395 L268,268 L396,139 L396,133 L369,110 L240,240 L110,110 L84,133 L84,139 L213,268 L84,395 L84,402 L110,424 L240,295 L369,424"/> 
            <glyph glyph-name="Ø" unicode="&#xD8;" horiz-adv-x="589" d=" M527,572 Q589,431 589,331 Q589,168 516,81 Q443,-6 308,-6 Q245,-6 193,16 L141,-95 L107,-84 L104,-79 L157,36 Q101,74 72,145 Q43,216 43,316 Q43,474 115.5,559.5 Q188,645 322,645 Q385,645 432,626 L474,717 L507,706 L510,699 L468,608 M95,148 L178,79 L412,584 Q370,601 319,601 Q209,601 152,530 Q95,459 95,321 M422,36 Q536,182 536,323 Q536,499 447,564 L212,57 Q254,36 312,36"/> 
            <glyph glyph-name="Ù" unicode="&#xD9;" horiz-adv-x="541" d=" M539,313 L539,236 Q541,121 480,58 Q419,-5 306,-5 Q196,-5 137.5,56 Q79,117 80,232 L80,639 L131,639 L129,237 Q128,141 174,91 Q220,41 309,41 Q398,41 444.5,90 Q491,139 490,232 L488,639 L540,639 M305,806 L414,752 L403,726 L396,723 Q296,768 211,812 L208,819 L223,849 L230,851"/> 
            <glyph glyph-name="Ú" unicode="&#xDA;" horiz-adv-x="541" d=" M539,313 L539,236 Q541,121 480,58 Q419,-5 306,-5 Q196,-5 137.5,56 Q79,117 80,232 L80,639 L131,639 L129,237 Q128,141 174,91 Q220,41 309,41 Q398,41 444.5,90 Q491,139 490,232 L488,639 L540,639 M423,849 L437,819 L435,812 Q346,766 249,723 L242,726 L231,752 Q340,805 416,851"/> 
            <glyph glyph-name="Û" unicode="&#xDB;" horiz-adv-x="541" d=" M539,313 L539,236 Q541,121 480,58 Q419,-5 306,-5 Q196,-5 137.5,56 Q79,117 80,232 L80,639 L131,639 L129,237 Q128,141 174,91 Q220,41 309,41 Q398,41 444.5,90 Q491,139 490,232 L488,639 L540,639 M195,761 Q248,797 303,844 L322,844 Q395,786 431,761 L420,736 L412,736 L313,804 Q265,770 214,736 L207,736"/> 
            <glyph glyph-name="Ü" unicode="&#xDC;" horiz-adv-x="541" d=" M539,313 L539,236 Q541,121 480,58 Q419,-5 306,-5 Q196,-5 137.5,56 Q79,117 80,232 L80,639 L131,639 L129,237 Q128,141 174,91 Q220,41 309,41 Q398,41 444.5,90 Q491,139 490,232 L488,639 L540,639 M254,818 Q271,801 271,786 Q271,771 262.5,761.5 Q254,752 239,752 Q224,752 215.5,761 Q207,770 207,785 Q207,800 215.5,809 Q224,818 240,818 M404,818 Q421,801 421,786 Q421,771 412,761.5 Q403,752 388,752 Q373,752 364.5,761 Q356,770 356,785 Q356,800 365,809 Q374,818 389,818"/> 
            <glyph glyph-name="Ý" unicode="&#xDD;" horiz-adv-x="492" d=" M271,191 L273,0 L221,0 L223,191 L222,236 L20,639 L78,639 L90,608 L246,298 L252,298 L422,607 L435,639 L492,639 L272,238 M359,849 L373,819 L371,812 Q282,766 185,723 L178,726 L167,752 Q276,805 352,851"/> 
            <glyph glyph-name="Þ" unicode="&#xDE;" horiz-adv-x="461" d=" M364,524 Q461,429 461,339 Q461,234 402.5,177.5 Q344,121 234,121 L152,120 L153,0 L101,0 L103,194 L101,639 L154,639 L153,523 L272,524 M334,175 Q408,263 408,337 Q408,405 371.5,441 Q335,477 266,480 L153,478 L152,197 L152,166 L264,164"/> 
            <glyph glyph-name="ß" unicode="&#xDF;" horiz-adv-x="528" d=" M322,331 Q371,285 419,257 Q455,236 476.5,220 Q498,204 513,180.5 Q528,157 528,125 Q528,89 509,59 Q490,29 455,11.5 Q420,-6 374,-6 Q342,-6 309.5,2.5 Q277,11 250,27 L257,72 L264,76 Q316,33 377,33 Q424,33 452,57.5 Q480,82 480,117 Q480,148 457.5,169 Q435,190 389,218 Q351,241 328.5,258 Q306,275 290,300.5 Q274,326 274,360 Q274,397 290,420.5 Q306,444 338,473 Q368,500 383,521.5 Q398,543 398,576 Q398,618 370.5,641 Q343,664 294,664 Q231,664 196.5,626 Q162,588 161,516 L159,195 L162,0 L111,0 L114,190 L113,417 L45,417 L41,422 L45,454 L112,454 L112,512 Q112,604 160.5,654 Q209,704 294,704 Q365,704 404,671.5 Q443,639 443,582 Q443,542 426,515.5 Q409,489 377,459 Q350,434 336,414.5 Q322,395 322,367"/> 
            <glyph glyph-name="à" unicode="&#xE0;" horiz-adv-x="420" d=" M285,462 Q353,400 353,345 Q353,324 351,289.5 Q349,255 348,216 Q342,102 342,87 Q342,61 349.5,50.5 Q357,40 375,40 Q393,40 413,50 L420,45 L414,12 Q390,-3 363,-4 Q303,-2 300,71 L295,71 Q238,6 177,-6 Q117,-6 83,25.5 Q49,57 49,113 Q49,194 137,214 L303,253 L305,334 Q305,377 282,399.5 Q259,422 217,422 Q153,422 77,357 L71,360 L63,397 Q145,462 224,462 M147,179 Q96,167 96,119 Q96,81 117,59.5 Q138,38 175,38 Q205,38 236.5,59 Q268,80 298,119 L302,216 M224,613 L309,543 L292,519 L285,518 Q197,588 127,649 L125,656 L146,683 L153,684"/> 
            <glyph glyph-name="á" unicode="&#xE1;" horiz-adv-x="420" d=" M285,462 Q353,400 353,345 Q353,324 351,289.5 Q349,255 348,216 Q342,102 342,87 Q342,61 349.5,50.5 Q357,40 375,40 Q393,40 413,50 L420,45 L414,12 Q390,-3 363,-4 Q303,-2 300,71 L295,71 Q238,6 177,-6 Q117,-6 83,25.5 Q49,57 49,113 Q49,194 137,214 L303,253 L305,334 Q305,377 282,399.5 Q259,422 217,422 Q153,422 77,357 L71,360 L63,397 Q145,462 224,462 M147,179 Q96,167 96,119 Q96,81 117,59.5 Q138,38 175,38 Q205,38 236.5,59 Q268,80 298,119 L302,216 M317,683 L338,656 L337,649 Q289,608 179,518 L172,519 L155,543 Q232,606 311,684"/> 
            <glyph glyph-name="â" unicode="&#xE2;" horiz-adv-x="420" d=" M285,462 Q353,400 353,345 Q353,324 351,289.5 Q349,255 348,216 Q342,102 342,87 Q342,61 349.5,50.5 Q357,40 375,40 Q393,40 413,50 L420,45 L414,12 Q390,-3 363,-4 Q303,-2 300,71 L295,71 Q238,6 177,-6 Q117,-6 83,25.5 Q49,57 49,113 Q49,194 137,214 L303,253 L305,334 Q305,377 282,399.5 Q259,422 217,422 Q153,422 77,357 L71,360 L63,397 Q145,462 224,462 M147,179 Q96,167 96,119 Q96,81 117,59.5 Q138,38 175,38 Q205,38 236.5,59 Q268,80 298,119 L302,216 M95,544 Q146,598 207,674 L228,674 Q292,594 340,544 L324,521 L317,521 Q261,579 217,631 Q167,571 118,521 L111,521"/> 
            <glyph glyph-name="ã" unicode="&#xE3;" horiz-adv-x="420" d=" M285,462 Q353,400 353,345 Q353,324 351,289.5 Q349,255 348,216 Q342,102 342,87 Q342,61 349.5,50.5 Q357,40 375,40 Q393,40 413,50 L420,45 L414,12 Q390,-3 363,-4 Q303,-2 300,71 L295,71 Q238,6 177,-6 Q117,-6 83,25.5 Q49,57 49,113 Q49,194 137,214 L303,253 L305,334 Q305,377 282,399.5 Q259,422 217,422 Q153,422 77,357 L71,360 L63,397 Q145,462 224,462 M147,179 Q96,167 96,119 Q96,81 117,59.5 Q138,38 175,38 Q205,38 236.5,59 Q268,80 298,119 L302,216 M366,632 L366,626 L309,567 L301,564 Q280,566 221,584 Q157,602 145,602 Q139,602 130.5,595.5 Q122,589 113,579 L91,558 L85,558 L68,576 L68,582 L125,641 L133,643 Q156,641 217,623 Q274,606 288,606 Q295,606 303,612 Q311,618 324,631 Q324,631 343,650 L348,650"/> 
            <glyph glyph-name="ä" unicode="&#xE4;" horiz-adv-x="420" d=" M285,462 Q353,400 353,345 Q353,324 351,289.5 Q349,255 348,216 Q342,102 342,87 Q342,61 349.5,50.5 Q357,40 375,40 Q393,40 413,50 L420,45 L414,12 Q390,-3 363,-4 Q303,-2 300,71 L295,71 Q238,6 177,-6 Q117,-6 83,25.5 Q49,57 49,113 Q49,194 137,214 L303,253 L305,334 Q305,377 282,399.5 Q259,422 217,422 Q153,422 77,357 L71,360 L63,397 Q145,462 224,462 M147,179 Q96,167 96,119 Q96,81 117,59.5 Q138,38 175,38 Q205,38 236.5,59 Q268,80 298,119 L302,216 M158,634 Q175,617 175,602 Q175,587 166.5,577.5 Q158,568 143,568 Q128,568 119.5,577 Q111,586 111,601 Q111,616 119.5,625 Q128,634 144,634 M308,634 Q325,617 325,602 Q325,587 316,577.5 Q307,568 292,568 Q277,568 268.5,577 Q260,586 260,601 Q260,616 269,625 Q278,634 293,634"/> 
            <glyph glyph-name="å" unicode="&#xE5;" horiz-adv-x="420" d=" M285,462 Q353,400 353,345 Q353,324 351,289.5 Q349,255 348,216 Q342,102 342,87 Q342,61 349.5,50.5 Q357,40 375,40 Q393,40 413,50 L420,45 L414,12 Q390,-3 363,-4 Q303,-2 300,71 L295,71 Q238,6 177,-6 Q117,-6 83,25.5 Q49,57 49,113 Q49,194 137,214 L303,253 L305,334 Q305,377 282,399.5 Q259,422 217,422 Q153,422 77,357 L71,360 L63,397 Q145,462 224,462 M147,179 Q96,167 96,119 Q96,81 117,59.5 Q138,38 175,38 Q205,38 236.5,59 Q268,80 298,119 L302,216 M252,683 Q293,640 293,608 Q293,572 270,551 Q247,530 215,530 Q182,530 160,550.5 Q138,571 138,607 Q138,641 159,662 Q180,683 216,683 M193,653 Q168,629 168,608 Q168,585 181,572.5 Q194,560 215,560 Q236,560 250,572 Q264,584 264,606 Q264,627 251.5,640 Q239,653 215,653"/> 
            <glyph glyph-name="æ" unicode="&#xE6;" horiz-adv-x="637" d=" M630,279 L340,222 Q342,132 379,83.5 Q416,35 484,35 Q518,35 552,47 Q586,59 612,81 L619,77 L613,34 Q584,15 549,4.5 Q514,-6 480,-6 Q425,-6 384.5,21 Q344,48 322,98 Q285,52 250.5,27 Q216,2 176,-6 Q115,-6 80,26.5 Q45,59 45,114 Q45,199 133,216 L298,249 L298,334 Q298,377 276,399.5 Q254,422 213,422 Q151,422 74,357 L67,360 L59,397 Q141,462 219,462 Q268,462 297.5,438.5 Q327,415 334,373 Q388,461 484,461 Q554,461 595,416 Q636,371 637,288 M441,423 Q377,381 358.5,345.5 Q340,310 340,269 L340,257 L589,309 Q585,362 555.5,392.5 Q526,423 480,423 M205,39 Q265,81 307,131 Q299,170 298,213 L150,182 Q119,175 105.5,159.5 Q92,144 92,118 Q92,81 114,60 Q136,39 173,39"/> 
            <glyph glyph-name="ç" unicode="&#xE7;" horiz-adv-x="367" d=" M271,462 Q340,443 365,428 L355,383 L347,382 Q324,398 295,408 Q266,418 238,418 Q173,418 135.5,366.5 Q98,315 98,226 Q98,139 136,88 Q174,37 240,37 Q270,37 302,47.5 Q334,58 360,75 L367,71 L362,27 Q335,12 301.5,3 Q268,-6 235,-6 Q149,-6 99,56 Q49,118 49,224 Q49,333 100,397.5 Q151,462 239,462 M238,-53 L270,-73 Q289,-84 297.5,-96.5 Q306,-109 306,-126 Q306,-153 285.5,-169.5 Q265,-186 235,-186 Q195,-186 169,-154 L176,-125 L180,-124 Q193,-140 204.5,-147.5 Q216,-155 233,-155 Q249,-155 259,-147 Q269,-139 269,-125 Q269,-115 263.5,-109 Q258,-103 246,-96 L200,-68 L225,15 L259,15"/> 
            <glyph glyph-name="è" unicode="&#xE8;" horiz-adv-x="404" d=" M321,462 Q404,373 404,293 Q404,273 401,252 L393,243 L97,241 L97,226 Q97,137 137.5,87 Q178,37 251,37 Q287,37 322,48.5 Q357,60 384,80 L391,76 L384,31 Q319,-6 245,-6 Q154,-6 101.5,55.5 Q49,117 49,224 Q49,296 73,350 Q97,404 142,433 Q187,462 246,462 M356,300 Q356,358 327,390.5 Q298,423 245,423 Q188,423 150,384.5 Q112,346 101,279 L354,283 M241,613 L326,543 L309,519 L302,518 Q214,588 144,649 L142,656 L163,683 L170,684"/> 
            <glyph glyph-name="é" unicode="&#xE9;" horiz-adv-x="404" d=" M321,462 Q404,373 404,293 Q404,273 401,252 L393,243 L97,241 L97,226 Q97,137 137.5,87 Q178,37 251,37 Q287,37 322,48.5 Q357,60 384,80 L391,76 L384,31 Q319,-6 245,-6 Q154,-6 101.5,55.5 Q49,117 49,224 Q49,296 73,350 Q97,404 142,433 Q187,462 246,462 M356,300 Q356,358 327,390.5 Q298,423 245,423 Q188,423 150,384.5 Q112,346 101,279 L354,283 M334,683 L355,656 L354,649 Q306,608 196,518 L189,519 L172,543 Q249,606 328,684"/> 
            <glyph glyph-name="ê" unicode="&#xEA;" horiz-adv-x="404" d=" M321,462 Q404,373 404,293 Q404,273 401,252 L393,243 L97,241 L97,226 Q97,137 137.5,87 Q178,37 251,37 Q287,37 322,48.5 Q357,60 384,80 L391,76 L384,31 Q319,-6 245,-6 Q154,-6 101.5,55.5 Q49,117 49,224 Q49,296 73,350 Q97,404 142,433 Q187,462 246,462 M356,300 Q356,358 327,390.5 Q298,423 245,423 Q188,423 150,384.5 Q112,346 101,279 L354,283 M112,544 Q163,598 224,674 L245,674 Q309,594 357,544 L341,521 L334,521 Q278,579 234,631 Q184,571 135,521 L128,521"/> 
            <glyph glyph-name="ë" unicode="&#xEB;" horiz-adv-x="404" d=" M321,462 Q404,373 404,293 Q404,273 401,252 L393,243 L97,241 L97,226 Q97,137 137.5,87 Q178,37 251,37 Q287,37 322,48.5 Q357,60 384,80 L391,76 L384,31 Q319,-6 245,-6 Q154,-6 101.5,55.5 Q49,117 49,224 Q49,296 73,350 Q97,404 142,433 Q187,462 246,462 M356,300 Q356,358 327,390.5 Q298,423 245,423 Q188,423 150,384.5 Q112,346 101,279 L354,283 M175,634 Q192,617 192,602 Q192,587 183.5,577.5 Q175,568 160,568 Q145,568 136.5,577 Q128,586 128,601 Q128,616 136.5,625 Q145,634 161,634 M325,634 Q342,617 342,602 Q342,587 333,577.5 Q324,568 309,568 Q294,568 285.5,577 Q277,586 277,601 Q277,616 286,625 Q295,634 310,634"/> 
            <glyph glyph-name="ì" unicode="&#xEC;" horiz-adv-x="208" d=" M92,195 L91,451 L141,457 L140,198 L141,0 L90,0 M123,613 L208,543 L191,519 L184,518 Q96,588 26,649 L24,656 L45,683 L52,684"/> 
            <glyph glyph-name="í" unicode="&#xED;" horiz-adv-x="237" d=" M92,195 L91,451 L141,457 L140,198 L141,0 L90,0 M216,683 L237,656 L236,649 Q188,608 78,518 L71,519 L54,543 Q131,606 210,684"/> 
            <glyph glyph-name="î" unicode="&#xEE;" horiz-adv-x="239" d=" M92,195 L91,451 L141,457 L140,198 L141,0 L90,0 M-6,544 Q45,598 106,674 L127,674 Q191,594 239,544 L223,521 L216,521 Q160,579 116,631 Q66,571 17,521 L10,521"/> 
            <glyph glyph-name="ï" unicode="&#xEF;" horiz-adv-x="201" d=" M92,195 L91,451 L141,457 L140,198 L141,0 L90,0 M79,634 Q96,616 96,602 Q96,587 87,577.5 Q78,568 64,568 Q49,568 40.5,577 Q32,586 32,601 Q32,616 40.5,625 Q49,634 65,634 M184,634 Q201,616 201,602 Q201,587 192,577.5 Q183,568 168,568 Q153,568 144.5,577 Q136,586 136,601 Q136,616 145,625 Q154,634 170,634"/> 
            <glyph glyph-name="ð" unicode="&#xF0;" horiz-adv-x="437" d=" M363,521 Q437,345 437,244 Q437,126 386.5,60 Q336,-6 243,-6 Q153,-6 101,55 Q49,116 49,224 Q49,333 102,395.5 Q155,458 249,458 Q306,458 353,432 Q316,512 251,569 L126,510 L120,513 L109,541 L221,594 Q155,642 78,673 L78,680 L106,704 L111,704 Q198,668 264,614 L383,670 L389,667 L401,639 L293,588 M317,31 Q391,139 391,242 Q391,311 375,368 Q323,420 251,420 Q177,420 136,368.5 Q95,317 95,224 Q95,132 135,81.5 Q175,31 245,31"/> 
            <glyph glyph-name="ñ" unicode="&#xF1;" horiz-adv-x="428" d=" M379,315 Q380,363 355.5,389.5 Q331,416 286,416 Q250,416 212,394.5 Q174,373 139,333 L138,198 L141,0 L89,0 L92,195 L90,451 L139,457 L139,384 L144,384 Q178,417 214.5,437 Q251,457 285,461 Q354,461 391,425.5 Q428,390 427,325 L426,197 L428,0 L376,0 M417,632 L417,626 L360,567 L352,564 Q331,566 272,584 Q208,602 196,602 Q190,602 181.5,595.5 Q173,589 164,579 L142,558 L136,558 L119,576 L119,582 L176,641 L184,643 Q207,641 268,623 Q325,606 339,606 Q346,606 354,612 Q362,618 375,631 Q375,631 394,650 L399,650"/> 
            <glyph glyph-name="ò" unicode="&#xF2;" horiz-adv-x="439" d=" M338,462 Q439,341 439,233 Q439,120 386,57 Q333,-6 239,-6 Q149,-6 99,54.5 Q49,115 49,222 Q49,335 101.5,398.5 Q154,462 248,462 M176,423 Q98,323 98,232 Q98,136 135.5,84.5 Q173,33 241,33 Q312,33 351,82.5 Q390,132 390,223 Q390,319 352,371 Q314,423 246,423 M251,613 L336,543 L319,519 L312,518 Q224,588 154,649 L152,656 L173,683 L180,684"/> 
            <glyph glyph-name="ó" unicode="&#xF3;" horiz-adv-x="439" d=" M338,462 Q439,341 439,233 Q439,120 386,57 Q333,-6 239,-6 Q149,-6 99,54.5 Q49,115 49,222 Q49,335 101.5,398.5 Q154,462 248,462 M176,423 Q98,323 98,232 Q98,136 135.5,84.5 Q173,33 241,33 Q312,33 351,82.5 Q390,132 390,223 Q390,319 352,371 Q314,423 246,423 M344,683 L365,656 L364,649 Q316,608 206,518 L199,519 L182,543 Q259,606 338,684"/> 
            <glyph glyph-name="ô" unicode="&#xF4;" horiz-adv-x="439" d=" M338,462 Q439,341 439,233 Q439,120 386,57 Q333,-6 239,-6 Q149,-6 99,54.5 Q49,115 49,222 Q49,335 101.5,398.5 Q154,462 248,462 M176,423 Q98,323 98,232 Q98,136 135.5,84.5 Q173,33 241,33 Q312,33 351,82.5 Q390,132 390,223 Q390,319 352,371 Q314,423 246,423 M122,544 Q173,598 234,674 L255,674 Q319,594 367,544 L351,521 L344,521 Q288,579 244,631 Q194,571 145,521 L138,521"/> 
            <glyph glyph-name="õ" unicode="&#xF5;" horiz-adv-x="439" d=" M338,462 Q439,341 439,233 Q439,120 386,57 Q333,-6 239,-6 Q149,-6 99,54.5 Q49,115 49,222 Q49,335 101.5,398.5 Q154,462 248,462 M176,423 Q98,323 98,232 Q98,136 135.5,84.5 Q173,33 241,33 Q312,33 351,82.5 Q390,132 390,223 Q390,319 352,371 Q314,423 246,423 M393,632 L393,626 L336,567 L328,564 Q307,566 248,584 Q184,602 172,602 Q166,602 157.5,595.5 Q149,589 140,579 L118,558 L112,558 L95,576 L95,582 L152,641 L160,643 Q183,641 244,623 Q301,606 315,606 Q322,606 330,612 Q338,618 351,631 Q351,631 370,650 L375,650"/> 
            <glyph glyph-name="ö" unicode="&#xF6;" horiz-adv-x="439" d=" M338,462 Q439,341 439,233 Q439,120 386,57 Q333,-6 239,-6 Q149,-6 99,54.5 Q49,115 49,222 Q49,335 101.5,398.5 Q154,462 248,462 M176,423 Q98,323 98,232 Q98,136 135.5,84.5 Q173,33 241,33 Q312,33 351,82.5 Q390,132 390,223 Q390,319 352,371 Q314,423 246,423 M185,634 Q202,617 202,602 Q202,587 193.5,577.5 Q185,568 170,568 Q155,568 146.5,577 Q138,586 138,601 Q138,616 146.5,625 Q155,634 171,634 M335,634 Q352,617 352,602 Q352,587 343,577.5 Q334,568 319,568 Q304,568 295.5,577 Q287,586 287,601 Q287,616 296,625 Q305,634 320,634"/> 
            <glyph glyph-name="÷" unicode="&#xF7;" horiz-adv-x="458" d=" M458,282 L455,248 L52,248 L48,252 L51,287 L453,287 M277,124 Q293,107 293,92 Q293,76 284.5,67 Q276,58 260,58 Q245,58 236.5,66.5 Q228,75 228,90 Q228,106 237,115 Q246,124 261,124 M277,480 Q293,463 293,448 Q293,432 284.5,423 Q276,414 260,414 Q245,414 236.5,422.5 Q228,431 228,446 Q228,462 237,471 Q246,480 261,480"/> 
            <glyph glyph-name="ø" unicode="&#xF8;" horiz-adv-x="439" d=" M398,400 Q439,301 439,233 Q439,120 386,57 Q333,-6 239,-6 Q196,-6 162,8 L105,-112 L74,-100 L71,-94 L128,27 Q90,55 69.5,104.5 Q49,154 49,222 Q49,335 101.5,398.5 Q154,462 248,462 Q293,462 327,447 L372,541 L401,530 L405,523 L360,428 M98,121 L148,69 L309,409 Q281,423 246,423 Q176,423 137,373 Q98,323 98,232 M312,33 Q390,132 390,223 Q390,333 340,385 L180,46 Q209,33 241,33"/> 
            <glyph glyph-name="ù" unicode="&#xF9;" horiz-adv-x="483" d=" M483,45 L477,12 Q453,-2 426,-4 Q397,-2 381,16 Q365,34 361,71 L357,71 Q289,3 217,-5 Q151,-5 116,30 Q81,65 81,131 L82,240 L80,451 L132,457 L129,141 Q129,93 151.5,66.5 Q174,40 217,40 Q289,40 359,115 L359,451 L408,457 L406,89 Q406,63 413.5,51.5 Q421,40 438,40 Q456,40 476,50 M261,613 L346,543 L329,519 L322,518 Q234,588 164,649 L162,656 L183,683 L190,684"/> 
            <glyph glyph-name="ú" unicode="&#xFA;" horiz-adv-x="483" d=" M483,45 L477,12 Q453,-2 426,-4 Q397,-2 381,16 Q365,34 361,71 L357,71 Q289,3 217,-5 Q151,-5 116,30 Q81,65 81,131 L82,240 L80,451 L132,457 L129,141 Q129,93 151.5,66.5 Q174,40 217,40 Q289,40 359,115 L359,451 L408,457 L406,89 Q406,63 413.5,51.5 Q421,40 438,40 Q456,40 476,50 M354,683 L375,656 L374,649 Q326,608 216,518 L209,519 L192,543 Q269,606 348,684"/> 
            <glyph glyph-name="û" unicode="&#xFB;" horiz-adv-x="483" d=" M483,45 L477,12 Q453,-2 426,-4 Q397,-2 381,16 Q365,34 361,71 L357,71 Q289,3 217,-5 Q151,-5 116,30 Q81,65 81,131 L82,240 L80,451 L132,457 L129,141 Q129,93 151.5,66.5 Q174,40 217,40 Q289,40 359,115 L359,451 L408,457 L406,89 Q406,63 413.5,51.5 Q421,40 438,40 Q456,40 476,50 M132,544 Q183,598 244,674 L265,674 Q329,594 377,544 L361,521 L354,521 Q298,579 254,631 Q204,571 155,521 L148,521"/> 
            <glyph glyph-name="ü" unicode="&#xFC;" horiz-adv-x="483" d=" M483,45 L477,12 Q453,-2 426,-4 Q397,-2 381,16 Q365,34 361,71 L357,71 Q289,3 217,-5 Q151,-5 116,30 Q81,65 81,131 L82,240 L80,451 L132,457 L129,141 Q129,93 151.5,66.5 Q174,40 217,40 Q289,40 359,115 L359,451 L408,457 L406,89 Q406,63 413.5,51.5 Q421,40 438,40 Q456,40 476,50 M195,634 Q212,617 212,602 Q212,587 203.5,577.5 Q195,568 180,568 Q165,568 156.5,577 Q148,586 148,601 Q148,616 156.5,625 Q165,634 181,634 M345,634 Q362,617 362,602 Q362,587 353,577.5 Q344,568 329,568 Q314,568 305.5,577 Q297,586 297,601 Q297,616 306,625 Q315,634 330,634"/> 
            <glyph glyph-name="ý" unicode="&#xFD;" horiz-adv-x="401" d=" M78,405 L202,63 L208,63 L337,402 L352,455 L401,455 L231,9 Q205,-59 177.5,-97 Q150,-135 111.5,-155.5 Q73,-176 10,-190 L4,-190 Q-10,-177 -17,-160 L-16,-152 Q39,-142 73,-126 Q107,-110 132,-81 Q157,-52 181,0 L14,453 L63,458 M311,683 L332,656 L331,649 Q283,608 173,518 L166,519 L149,543 Q226,606 305,684"/> 
            <glyph glyph-name="þ" unicode="&#xFE;" horiz-adv-x="458" d=" M368,460 Q458,344 458,240 Q458,123 401,58 Q344,-7 242,-7 Q192,-7 143,10 L145,-185 L94,-185 L97,195 L94,697 L145,702 L143,390 L148,390 Q180,421 213,438 Q246,455 285,460 M323,33 Q409,136 409,233 Q409,320 375.5,368 Q342,416 281,416 Q207,416 143,339 L142,198 L143,61 Q198,33 246,33"/> 
            <glyph glyph-name="ÿ" unicode="&#xFF;" horiz-adv-x="401" d=" M78,405 L202,63 L208,63 L337,402 L352,455 L401,455 L231,9 Q205,-59 177.5,-97 Q150,-135 111.5,-155.5 Q73,-176 10,-190 L4,-190 Q-10,-177 -17,-160 L-16,-152 Q39,-142 73,-126 Q107,-110 132,-81 Q157,-52 181,0 L14,453 L63,458 M152,634 Q169,617 169,602 Q169,587 160.5,577.5 Q152,568 137,568 Q122,568 113.5,577 Q105,586 105,601 Q105,616 113.5,625 Q122,634 138,634 M302,634 Q319,617 319,602 Q319,587 310,577.5 Q301,568 286,568 Q271,568 262.5,577 Q254,586 254,601 Q254,616 263,625 Q272,634 287,634"/> 
            <glyph glyph-name="Ā" unicode="&#x100;" horiz-adv-x="542" d=" M542,0 L488,0 L474,54 L426,192 L274,194 L137,192 L85,56 L70,0 L16,0 L260,639 L319,639 M410,238 L291,579 L285,579 L155,238 L280,237 M430,801 L427,768 L142,768 L138,773 L140,805 L426,805"/> 
            <glyph glyph-name="ā" unicode="&#x101;" horiz-adv-x="420" d=" M285,462 Q353,400 353,345 Q353,324 351,289.5 Q349,255 348,216 Q342,102 342,87 Q342,61 349.5,50.5 Q357,40 375,40 Q393,40 413,50 L420,45 L414,12 Q390,-3 363,-4 Q303,-2 300,71 L295,71 Q238,6 177,-6 Q117,-6 83,25.5 Q49,57 49,113 Q49,194 137,214 L303,253 L305,334 Q305,377 282,399.5 Q259,422 217,422 Q153,422 77,357 L71,360 L63,397 Q145,462 224,462 M147,179 Q96,167 96,119 Q96,81 117,59.5 Q138,38 175,38 Q205,38 236.5,59 Q268,80 298,119 L302,216 M363,617 L360,584 L75,584 L71,589 L73,621 L359,621"/> 
            <glyph glyph-name="Ă" unicode="&#x102;" horiz-adv-x="542" d=" M542,0 L488,0 L474,54 L426,192 L274,194 L137,192 L85,56 L70,0 L16,0 L260,639 L319,639 M410,238 L291,579 L285,579 L155,238 L280,237 M398,809 Q385,769 355,748 Q325,727 283,727 Q240,727 211,748 Q182,769 170,809 L187,829 L196,829 Q205,799 227.5,782.5 Q250,766 283,766 Q316,766 339,782.5 Q362,799 372,829 L381,829"/> 
            <glyph glyph-name="ă" unicode="&#x103;" horiz-adv-x="420" d=" M285,462 Q353,400 353,345 Q353,324 351,289.5 Q349,255 348,216 Q342,102 342,87 Q342,61 349.5,50.5 Q357,40 375,40 Q393,40 413,50 L420,45 L414,12 Q390,-3 363,-4 Q303,-2 300,71 L295,71 Q238,6 177,-6 Q117,-6 83,25.5 Q49,57 49,113 Q49,194 137,214 L303,253 L305,334 Q305,377 282,399.5 Q259,422 217,422 Q153,422 77,357 L71,360 L63,397 Q145,462 224,462 M147,179 Q96,167 96,119 Q96,81 117,59.5 Q138,38 175,38 Q205,38 236.5,59 Q268,80 298,119 L302,216 M332,635 Q309,524 216,524 Q123,524 103,635 L120,656 L129,656 Q145,564 217,564 Q289,564 305,656 L314,656"/> 
            <glyph glyph-name="Ą" unicode="&#x104;" horiz-adv-x="553" d=" M542,0 L488,0 L474,54 L426,192 L274,194 L137,192 L85,56 L70,0 L16,0 L260,639 L319,639 M410,238 L291,579 L285,579 L155,238 L280,237 M489,-71 Q459,-119 459,-133 Q459,-158 484,-158 Q512,-158 534,-119 L537,-119 L553,-145 Q524,-193 477,-193 Q451,-193 436,-179 Q421,-165 421,-141 Q421,-118 438,-91 Q455,-64 506,0 L542,0"/> 
            <glyph glyph-name="ą" unicode="&#x105;" horiz-adv-x="443" d=" M285,462 Q353,400 353,345 Q353,324 351,289.5 Q349,255 348,216 Q342,102 342,87 Q342,61 349.5,50.5 Q357,40 375,40 Q393,40 413,50 L420,45 L414,12 Q390,-3 363,-4 Q303,-2 300,71 L295,71 Q238,6 177,-6 Q117,-6 83,25.5 Q49,57 49,113 Q49,194 137,214 L303,253 L305,334 Q305,377 282,399.5 Q259,422 217,422 Q153,422 77,357 L71,360 L63,397 Q145,462 224,462 M147,179 Q96,167 96,119 Q96,81 117,59.5 Q138,38 175,38 Q205,38 236.5,59 Q268,80 298,119 L302,216 M312,65326 Q272,65361 272,65392 Q272,65412 280,65429.5 Q288,65447 309,65473 Q330,65499 376,65548 L414,65548 Q377,65504 352,65473.5 Q327,65443 319.5,65428.5 Q312,65414 312,65400 Q312,65364 351,65364 Q388,65364 427,65409 L430,65409 L443,65379 Q398,65326 346,65326"/> 
            <glyph glyph-name="Ć" unicode="&#x106;" horiz-adv-x="493" d=" M367,644 Q457,617 493,591 L482,544 L474,543 Q404,599 316,599 Q209,599 152.5,527 Q96,455 96,319 Q96,183 151,111.5 Q206,40 309,40 Q355,40 400,56.5 Q445,73 484,103 L492,100 L488,51 Q402,-6 306,-6 Q180,-6 111.5,77.5 Q43,161 43,316 Q43,473 114.5,558.5 Q186,644 318,644 M423,849 L437,819 L435,812 Q346,766 249,723 L242,726 L231,752 Q340,805 416,851"/> 
            <glyph glyph-name="ć" unicode="&#x107;" horiz-adv-x="367" d=" M271,462 Q340,443 365,428 L355,383 L347,382 Q324,398 295,408 Q266,418 238,418 Q173,418 135.5,366.5 Q98,315 98,226 Q98,139 136,88 Q174,37 240,37 Q270,37 302,47.5 Q334,58 360,75 L367,71 L362,27 Q335,12 301.5,3 Q268,-6 235,-6 Q149,-6 99,56 Q49,118 49,224 Q49,333 100,397.5 Q151,462 239,462 M335,683 L356,656 L355,649 Q307,608 197,518 L190,519 L173,543 Q250,606 329,684"/> 
            <glyph glyph-name="Ĉ" unicode="&#x108;" horiz-adv-x="493" d=" M367,644 Q457,617 493,591 L482,544 L474,543 Q404,599 316,599 Q209,599 152.5,527 Q96,455 96,319 Q96,183 151,111.5 Q206,40 309,40 Q355,40 400,56.5 Q445,73 484,103 L492,100 L488,51 Q402,-6 306,-6 Q180,-6 111.5,77.5 Q43,161 43,316 Q43,473 114.5,558.5 Q186,644 318,644 M195,761 Q248,797 303,844 L322,844 Q395,786 431,761 L420,736 L412,736 L313,804 Q265,770 214,736 L207,736"/> 
            <glyph glyph-name="ĉ" unicode="&#x109;" horiz-adv-x="367" d=" M271,462 Q340,443 365,428 L355,383 L347,382 Q324,398 295,408 Q266,418 238,418 Q173,418 135.5,366.5 Q98,315 98,226 Q98,139 136,88 Q174,37 240,37 Q270,37 302,47.5 Q334,58 360,75 L367,71 L362,27 Q335,12 301.5,3 Q268,-6 235,-6 Q149,-6 99,56 Q49,118 49,224 Q49,333 100,397.5 Q151,462 239,462 M113,544 Q164,598 225,674 L246,674 Q310,594 358,544 L342,521 L335,521 Q279,579 235,631 Q185,571 136,521 L129,521"/> 
            <glyph glyph-name="Ċ" unicode="&#x10A;" horiz-adv-x="493" d=" M367,644 Q457,617 493,591 L482,544 L474,543 Q404,599 316,599 Q209,599 152.5,527 Q96,455 96,319 Q96,183 151,111.5 Q206,40 309,40 Q355,40 400,56.5 Q445,73 484,103 L492,100 L488,51 Q402,-6 306,-6 Q180,-6 111.5,77.5 Q43,161 43,316 Q43,473 114.5,558.5 Q186,644 318,644 M330,832 Q347,814 347,799 Q347,783 338,773.5 Q329,764 313,764 Q297,764 288.5,772.5 Q280,781 280,797 Q280,813 289,822.5 Q298,832 314,832"/> 
            <glyph glyph-name="ċ" unicode="&#x10B;" horiz-adv-x="367" d=" M271,462 Q340,443 365,428 L355,383 L347,382 Q324,398 295,408 Q266,418 238,418 Q173,418 135.5,366.5 Q98,315 98,226 Q98,139 136,88 Q174,37 240,37 Q270,37 302,47.5 Q334,58 360,75 L367,71 L362,27 Q335,12 301.5,3 Q268,-6 235,-6 Q149,-6 99,56 Q49,118 49,224 Q49,333 100,397.5 Q151,462 239,462 M252,648 Q269,630 269,615 Q269,599 260,589.5 Q251,580 235,580 Q219,580 210.5,588.5 Q202,597 202,613 Q202,629 211,638.5 Q220,648 236,648"/> 
            <glyph glyph-name="Č" unicode="&#x10C;" horiz-adv-x="493" d=" M367,644 Q457,617 493,591 L482,544 L474,543 Q404,599 316,599 Q209,599 152.5,527 Q96,455 96,319 Q96,183 151,111.5 Q206,40 309,40 Q355,40 400,56.5 Q445,73 484,103 L492,100 L488,51 Q402,-6 306,-6 Q180,-6 111.5,77.5 Q43,161 43,316 Q43,473 114.5,558.5 Q186,644 318,644 M431,810 Q378,774 323,727 L304,727 Q231,785 195,810 L206,835 L214,835 L313,767 Q361,801 412,835 L419,835"/> 
            <glyph glyph-name="č" unicode="&#x10D;" horiz-adv-x="367" d=" M271,462 Q340,443 365,428 L355,383 L347,382 Q324,398 295,408 Q266,418 238,418 Q173,418 135.5,366.5 Q98,315 98,226 Q98,139 136,88 Q174,37 240,37 Q270,37 302,47.5 Q334,58 360,75 L367,71 L362,27 Q335,12 301.5,3 Q268,-6 235,-6 Q149,-6 99,56 Q49,118 49,224 Q49,333 100,397.5 Q151,462 239,462 M357,651 Q306,597 245,521 L224,521 Q160,601 112,651 L128,674 L135,674 Q191,616 235,564 Q285,624 334,674 L341,674"/> 
            <glyph glyph-name="Ď" unicode="&#x10E;" horiz-adv-x="599" d=" M454,643 Q599,487 599,341 Q599,174 522,84.5 Q445,-5 301,-5 Q264,-5 206.5,-3.5 Q149,-2 101,0 L104,194 L101,639 L318,643 M423,39 Q546,189 546,332 Q546,464 487,531.5 Q428,599 315,599 Q287,599 240,597.5 Q193,596 154,594 L151,197 L153,45 Q194,43 237.5,41 Q281,39 308,39 M439,810 Q386,774 331,727 L312,727 Q239,785 203,810 L214,835 L222,835 L321,767 Q369,801 420,835 L427,835"/> 
            <glyph glyph-name="ď" unicode="&#x10F;" horiz-adv-x="538" d=" M410,198 L412,87 Q412,61 419,50.5 Q426,40 444,40 Q461,40 481,50 L488,45 L482,12 Q458,-3 431,-4 Q374,-2 369,67 L364,67 Q333,36 304,19 Q275,2 239,-5 Q149,-5 99,55 Q49,115 49,223 Q49,337 106,399.5 Q163,462 266,462 Q309,462 363,449 L363,697 L414,702 M538,647 L520,488 L492,484 L487,489 L495,649 L533,652 M184,423 Q98,323 98,230 Q98,140 135,90 Q172,40 237,40 Q272,40 303,57.5 Q334,75 364,113 L365,194 L363,401 Q310,423 261,423"/> 
            <glyph glyph-name="Đ" unicode="&#x110;" horiz-adv-x="618" d=" M473,643 Q618,487 618,341 Q618,174 541,84.5 Q464,-5 320,-5 Q283,-5 225.5,-3.5 Q168,-2 120,0 L123,194 L120,639 L337,643 M442,39 Q565,189 565,332 Q565,464 506,531.5 Q447,599 334,599 Q306,599 259,597.5 Q212,596 173,594 L170,197 L172,45 Q213,43 256.5,41 Q300,39 327,39 M331,342 L330,307 L12,307 L10,312 L11,347 L329,347"/> 
            <glyph glyph-name="đ" unicode="&#x111;" horiz-adv-x="494" d=" M413,559 L410,198 L412,87 Q412,61 419,50.5 Q426,40 444,40 Q461,40 481,50 L488,45 L482,12 Q458,-3 431,-4 Q374,-2 369,67 L364,67 Q333,36 304,19 Q275,2 239,-5 Q149,-5 99,55 Q49,115 49,223 Q49,337 106,399.5 Q163,462 266,462 Q309,462 363,449 L363,559 L233,559 L229,563 L232,594 L363,594 L363,697 L414,702 L413,594 L489,594 L494,589 L490,559 M365,194 L363,401 Q310,423 261,423 Q184,423 141,373 Q98,323 98,230 Q98,140 135,90 Q172,40 237,40 Q272,40 303,57.5 Q334,75 364,113"/> 
            <glyph glyph-name="Ē" unicode="&#x112;" horiz-adv-x="443" d=" M443,41 L438,0 L101,0 L104,194 L101,639 L437,639 L441,633 L435,592 L286,594 L154,593 L152,352 L277,351 L384,352 L388,347 L383,306 L152,307 L151,197 L153,45 L282,44 L439,47 M416,801 L413,768 L128,768 L124,773 L126,805 L412,805"/> 
            <glyph glyph-name="ē" unicode="&#x113;" horiz-adv-x="404" d=" M321,462 Q404,373 404,293 Q404,273 401,252 L393,243 L97,241 L97,226 Q97,137 137.5,87 Q178,37 251,37 Q287,37 322,48.5 Q357,60 384,80 L391,76 L384,31 Q319,-6 245,-6 Q154,-6 101.5,55.5 Q49,117 49,224 Q49,296 73,350 Q97,404 142,433 Q187,462 246,462 M356,300 Q356,358 327,390.5 Q298,423 245,423 Q188,423 150,384.5 Q112,346 101,279 L354,283 M380,617 L377,584 L92,584 L88,589 L90,621 L376,621"/> 
            <glyph glyph-name="Ĕ" unicode="&#x114;" horiz-adv-x="443" d=" M443,41 L438,0 L101,0 L104,194 L101,639 L437,639 L441,633 L435,592 L286,594 L154,593 L152,352 L277,351 L384,352 L388,347 L383,306 L152,307 L151,197 L153,45 L282,44 L439,47 M384,809 Q371,769 341,748 Q311,727 269,727 Q226,727 197,748 Q168,769 156,809 L173,829 L182,829 Q191,799 213.5,782.5 Q236,766 269,766 Q302,766 325,782.5 Q348,799 358,829 L367,829"/> 
            <glyph glyph-name="ĕ" unicode="&#x115;" horiz-adv-x="404" d=" M321,462 Q404,373 404,293 Q404,273 401,252 L393,243 L97,241 L97,226 Q97,137 137.5,87 Q178,37 251,37 Q287,37 322,48.5 Q357,60 384,80 L391,76 L384,31 Q319,-6 245,-6 Q154,-6 101.5,55.5 Q49,117 49,224 Q49,296 73,350 Q97,404 142,433 Q187,462 246,462 M356,300 Q356,358 327,390.5 Q298,423 245,423 Q188,423 150,384.5 Q112,346 101,279 L354,283 M349,635 Q326,524 233,524 Q140,524 120,635 L137,656 L146,656 Q162,564 234,564 Q306,564 322,656 L331,656"/> 
            <glyph glyph-name="Ė" unicode="&#x116;" horiz-adv-x="443" d=" M443,41 L438,0 L101,0 L104,194 L101,639 L437,639 L441,633 L435,592 L286,594 L154,593 L152,352 L277,351 L384,352 L388,347 L383,306 L152,307 L151,197 L153,45 L282,44 L439,47 M287,832 Q304,814 304,799 Q304,783 295,773.5 Q286,764 270,764 Q254,764 245.5,772.5 Q237,781 237,797 Q237,813 246,822.5 Q255,832 271,832"/> 
            <glyph glyph-name="ė" unicode="&#x117;" horiz-adv-x="404" d=" M321,462 Q404,373 404,293 Q404,273 401,252 L393,243 L97,241 L97,226 Q97,137 137.5,87 Q178,37 251,37 Q287,37 322,48.5 Q357,60 384,80 L391,76 L384,31 Q319,-6 245,-6 Q154,-6 101.5,55.5 Q49,117 49,224 Q49,296 73,350 Q97,404 142,433 Q187,462 246,462 M356,300 Q356,358 327,390.5 Q298,423 245,423 Q188,423 150,384.5 Q112,346 101,279 L354,283 M251,648 Q268,630 268,615 Q268,599 259,589.5 Q250,580 234,580 Q218,580 209.5,588.5 Q201,597 201,613 Q201,629 210,638.5 Q219,648 235,648"/> 
            <glyph glyph-name="Ę" unicode="&#x118;" horiz-adv-x="443" d=" M443,41 L438,0 L101,0 L104,194 L101,639 L437,639 L441,633 L435,592 L286,594 L154,593 L152,352 L277,351 L384,352 L388,347 L383,306 L152,307 L151,197 L153,45 L282,44 L439,47 M300,65332 Q260,65367 260,65398 Q260,65418 268,65435.5 Q276,65453 297,65479 Q318,65505 364,65554 L402,65554 Q365,65510 340,65479.5 Q315,65449 307.5,65434.5 Q300,65420 300,65406 Q300,65370 339,65370 Q376,65370 415,65415 L418,65415 L431,65385 Q386,65332 334,65332"/> 
            <glyph glyph-name="ę" unicode="&#x119;" horiz-adv-x="413" d=" M321,462 Q404,373 404,293 Q404,273 401,252 L393,243 L97,241 L97,226 Q97,137 137.5,87 Q178,37 251,37 Q287,37 322,48.5 Q357,60 384,80 L391,76 L384,31 Q319,-6 245,-6 Q154,-6 101.5,55.5 Q49,117 49,224 Q49,296 73,350 Q97,404 142,433 Q187,462 246,462 M356,300 Q356,358 327,390.5 Q298,423 245,423 Q188,423 150,384.5 Q112,346 101,279 L354,283 M282,-191 Q242,-156 242,-125 Q242,-105 250,-87.5 Q258,-70 279,-44 Q300,-18 346,31 L384,31 Q347,-13 322,-43.5 Q297,-74 289.5,-88.5 Q282,-103 282,-117 Q282,-153 321,-153 Q358,-153 397,-108 L400,-108 L413,-138 Q368,-191 316,-191"/> 
            <glyph glyph-name="Ě" unicode="&#x11A;" horiz-adv-x="443" d=" M443,41 L438,0 L101,0 L104,194 L101,639 L437,639 L441,633 L435,592 L286,594 L154,593 L152,352 L277,351 L384,352 L388,347 L383,306 L152,307 L151,197 L153,45 L282,44 L439,47 M388,810 Q335,774 280,727 L261,727 Q188,785 152,810 L163,835 L171,835 L270,767 Q318,801 369,835 L376,835"/> 
            <glyph glyph-name="ě" unicode="&#x11B;" horiz-adv-x="404" d=" M321,462 Q404,373 404,293 Q404,273 401,252 L393,243 L97,241 L97,226 Q97,137 137.5,87 Q178,37 251,37 Q287,37 322,48.5 Q357,60 384,80 L391,76 L384,31 Q319,-6 245,-6 Q154,-6 101.5,55.5 Q49,117 49,224 Q49,296 73,350 Q97,404 142,433 Q187,462 246,462 M356,300 Q356,358 327,390.5 Q298,423 245,423 Q188,423 150,384.5 Q112,346 101,279 L354,283 M356,651 Q305,597 244,521 L223,521 Q159,601 111,651 L127,674 L134,674 Q190,616 234,564 Q284,624 333,674 L340,674"/> 
            <glyph glyph-name="Ĝ" unicode="&#x11C;" horiz-adv-x="531" d=" M441,644 L531,594 L519,546 L511,545 Q421,599 341,599 Q221,599 158.5,526.5 Q96,454 96,312 Q96,176 152,108 Q208,40 318,40 Q356,40 389.5,45.5 Q423,51 476,66 L477,159 L476,251 L526,255 L525,165 L527,30 Q460,11 413.5,3 Q367,-5 317,-6 Q182,-6 112.5,76 Q43,158 43,310 Q43,471 122,557.5 Q201,644 347,644 M207,761 Q260,797 315,844 L334,844 Q407,786 443,761 L432,736 L424,736 L325,804 Q277,770 226,736 L219,736"/> 
            <glyph glyph-name="ĝ" unicode="&#x11D;" horiz-adv-x="471" d=" M425,416 L371,406 L370,403 Q399,365 399,307 Q399,235 353.5,192.5 Q308,150 230,150 Q193,150 160,161 Q137,144 129,133.5 Q121,123 121,113 Q121,91 149.5,81.5 Q178,72 239,63 Q298,54 336,44 Q374,34 401,12 Q428,-10 428,-48 Q428,-87 400,-120 Q372,-153 324,-172.5 Q276,-192 220,-192 Q144,-192 100.5,-157.5 Q57,-123 57,-69 Q67,-39 90,-15.5 Q113,8 152,31 L152,36 Q114,46 92.5,63.5 Q71,81 71,111 Q84,140 131,171 L131,174 Q67,214 67,302 Q67,376 112.5,418 Q158,460 236,460 Q291,460 328,439 Q412,455 465,470 L471,466 L471,428 M288,188 Q352,251 352,307 Q352,362 321.5,392 Q291,422 235,422 Q178,422 146,391 Q114,360 114,304 Q114,250 145,219 Q176,188 232,188 M381,-29 Q341,1 311.5,8 Q282,15 232,22 L199,27 Q153,2 128.5,-23 Q104,-48 104,-76 Q104,-109 136,-131.5 Q168,-154 225,-154 Q268,-154 303.5,-140.5 Q339,-127 360,-104 Q381,-81 381,-55 M119,66070 Q170,66124 231,66200 L252,66200 Q316,66120 364,66070 L348,66047 L341,66047 Q285,66105 241,66157 Q191,66097 142,66047 L135,66047"/> 
            <glyph glyph-name="Ğ" unicode="&#x11E;" horiz-adv-x="531" d=" M441,644 L531,594 L519,546 L511,545 Q421,599 341,599 Q221,599 158.5,526.5 Q96,454 96,312 Q96,176 152,108 Q208,40 318,40 Q356,40 389.5,45.5 Q423,51 476,66 L477,159 L476,251 L526,255 L525,165 L527,30 Q460,11 413.5,3 Q367,-5 317,-6 Q182,-6 112.5,76 Q43,158 43,310 Q43,471 122,557.5 Q201,644 347,644 M439,809 Q426,769 396,748 Q366,727 324,727 Q281,727 252,748 Q223,769 211,809 L228,829 L237,829 Q246,799 268.5,782.5 Q291,766 324,766 Q357,766 380,782.5 Q403,799 413,829 L422,829"/> 
            <glyph glyph-name="ğ" unicode="&#x11F;" horiz-adv-x="471" d=" M425,416 L371,406 L370,403 Q399,365 399,307 Q399,235 353.5,192.5 Q308,150 230,150 Q193,150 160,161 Q137,144 129,133.5 Q121,123 121,113 Q121,91 149.5,81.5 Q178,72 239,63 Q298,54 336,44 Q374,34 401,12 Q428,-10 428,-48 Q428,-87 400,-120 Q372,-153 324,-172.5 Q276,-192 220,-192 Q144,-192 100.5,-157.5 Q57,-123 57,-69 Q67,-39 90,-15.5 Q113,8 152,31 L152,36 Q114,46 92.5,63.5 Q71,81 71,111 Q84,140 131,171 L131,174 Q67,214 67,302 Q67,376 112.5,418 Q158,460 236,460 Q291,460 328,439 Q412,455 465,470 L471,466 L471,428 M288,188 Q352,251 352,307 Q352,362 321.5,392 Q291,422 235,422 Q178,422 146,391 Q114,360 114,304 Q114,250 145,219 Q176,188 232,188 M381,-29 Q341,1 311.5,8 Q282,15 232,22 L199,27 Q153,2 128.5,-23 Q104,-48 104,-76 Q104,-109 136,-131.5 Q168,-154 225,-154 Q268,-154 303.5,-140.5 Q339,-127 360,-104 Q381,-81 381,-55 M356,66161 Q333,66050 240,66050 Q147,66050 127,66161 L144,66182 L153,66182 Q169,66090 241,66090 Q313,66090 329,66182 L338,66182"/> 
            <glyph glyph-name="Ġ" unicode="&#x120;" horiz-adv-x="531" d=" M441,644 L531,594 L519,546 L511,545 Q421,599 341,599 Q221,599 158.5,526.5 Q96,454 96,312 Q96,176 152,108 Q208,40 318,40 Q356,40 389.5,45.5 Q423,51 476,66 L477,159 L476,251 L526,255 L525,165 L527,30 Q460,11 413.5,3 Q367,-5 317,-6 Q182,-6 112.5,76 Q43,158 43,310 Q43,471 122,557.5 Q201,644 347,644 M342,832 Q359,814 359,799 Q359,783 350,773.5 Q341,764 325,764 Q309,764 300.5,772.5 Q292,781 292,797 Q292,813 301,822.5 Q310,832 326,832"/> 
            <glyph glyph-name="ġ" unicode="&#x121;" horiz-adv-x="471" d=" M425,416 L371,406 L370,403 Q399,365 399,307 Q399,235 353.5,192.5 Q308,150 230,150 Q193,150 160,161 Q137,144 129,133.5 Q121,123 121,113 Q121,91 149.5,81.5 Q178,72 239,63 Q298,54 336,44 Q374,34 401,12 Q428,-10 428,-48 Q428,-87 400,-120 Q372,-153 324,-172.5 Q276,-192 220,-192 Q144,-192 100.5,-157.5 Q57,-123 57,-69 Q67,-39 90,-15.5 Q113,8 152,31 L152,36 Q114,46 92.5,63.5 Q71,81 71,111 Q84,140 131,171 L131,174 Q67,214 67,302 Q67,376 112.5,418 Q158,460 236,460 Q291,460 328,439 Q412,455 465,470 L471,466 L471,428 M288,188 Q352,251 352,307 Q352,362 321.5,392 Q291,422 235,422 Q178,422 146,391 Q114,360 114,304 Q114,250 145,219 Q176,188 232,188 M381,-29 Q341,1 311.5,8 Q282,15 232,22 L199,27 Q153,2 128.5,-23 Q104,-48 104,-76 Q104,-109 136,-131.5 Q168,-154 225,-154 Q268,-154 303.5,-140.5 Q339,-127 360,-104 Q381,-81 381,-55 M258,66174 Q275,66156 275,66141 Q275,66125 266,66115.5 Q257,66106 241,66106 Q225,66106 216.5,66114.5 Q208,66123 208,66139 Q208,66155 217,66164.5 Q226,66174 242,66174"/> 
            <glyph glyph-name="Ģ" unicode="&#x122;" horiz-adv-x="531" d=" M441,644 L531,594 L519,546 L511,545 Q421,599 341,599 Q221,599 158.5,526.5 Q96,454 96,312 Q96,176 152,108 Q208,40 318,40 Q356,40 389.5,45.5 Q423,51 476,66 L477,159 L476,251 L526,255 L525,165 L527,30 Q460,11 413.5,3 Q367,-5 317,-6 Q182,-6 112.5,76 Q43,158 43,310 Q43,471 122,557.5 Q201,644 347,644 M358,-84 L358,-117 Q358,-169 280,-227 L262,-210 L262,-205 Q315,-166 315,-125 Q315,-102 285,-85 L285,-80 Q302,-66 320,-60"/> 
            <glyph glyph-name="ģ" unicode="&#x123;" horiz-adv-x="471" d=" M195,534 L195,581 Q195,634 257,696 L278,681 L279,675 Q237,632 237,595 Q237,560 274,549 L274,543 Q264,532 245,519 M425,416 L371,406 L370,403 Q399,365 399,307 Q399,235 353.5,192.5 Q308,150 230,150 Q193,150 160,161 Q137,144 129,133.5 Q121,123 121,113 Q121,91 149.5,81.5 Q178,72 239,63 Q298,54 336,44 Q374,34 401,12 Q428,-10 428,-48 Q428,-87 400,-120 Q372,-153 324,-172.5 Q276,-192 220,-192 Q144,-192 100.5,-157.5 Q57,-123 57,-69 Q67,-39 90,-15.5 Q113,8 152,31 L152,36 Q114,46 92.5,63.5 Q71,81 71,111 Q84,140 131,171 L131,174 Q67,214 67,302 Q67,376 112.5,418 Q158,460 236,460 Q291,460 328,439 Q412,455 465,470 L471,466 L471,428 M288,188 Q352,251 352,307 Q352,362 321.5,392 Q291,422 235,422 Q178,422 146,391 Q114,360 114,304 Q114,250 145,219 Q176,188 232,188 M381,-29 Q341,1 311.5,8 Q282,15 232,22 L199,27 Q153,2 128.5,-23 Q104,-48 104,-76 Q104,-109 136,-131.5 Q168,-154 225,-154 Q268,-154 303.5,-140.5 Q339,-127 360,-104 Q381,-81 381,-55"/> 
            <glyph glyph-name="Ĥ" unicode="&#x124;" horiz-adv-x="576" d=" M574,197 L575,0 L524,0 L526,194 L526,301 L151,301 L151,197 L153,0 L101,0 L103,194 L101,639 L153,639 L152,346 L525,346 L524,639 L576,639 M221,761 Q274,797 329,844 L348,844 Q421,786 457,761 L446,736 L438,736 L339,804 Q291,770 240,736 L233,736"/> 
            <glyph glyph-name="ĥ" unicode="&#x125;" horiz-adv-x="433" d=" M359,461 Q433,390 432,325 L430,197 L432,0 L380,0 L384,315 Q384,363 359.5,389.5 Q335,416 290,416 Q219,416 143,334 L142,198 L145,0 L94,0 L97,195 L94,697 L146,702 L143,384 L149,384 Q183,417 219.5,437 Q256,457 289,461 M1,765 Q54,801 109,848 L128,848 Q201,790 237,765 L226,740 L218,740 L119,808 Q71,774 20,740 L13,740"/> 
            <glyph glyph-name="Ħ" unicode="&#x126;" horiz-adv-x="661" d=" M658,481 L590,481 L589,197 L589,0 L538,0 L540,194 L540,301 L166,301 L166,197 L167,0 L116,0 L118,194 L117,481 L52,481 L47,485 L50,520 L117,520 L116,639 L168,639 L167,520 L539,520 L538,639 L590,639 L590,520 L656,520 L661,515 M539,481 L167,481 L167,346 L539,346"/> 
            <glyph glyph-name="ħ" unicode="&#x127;" horiz-adv-x="425" d=" M351,461 Q425,390 424,325 L423,197 L424,0 L372,0 L376,315 Q377,363 352.5,389.5 Q328,416 283,416 Q247,416 209.5,394.5 Q172,373 136,334 L135,198 L138,0 L86,0 L89,195 L88,548 L18,548 L13,553 L16,582 L87,582 L87,697 L138,702 L137,582 L288,582 L292,577 L290,548 L137,548 L136,384 L141,384 Q175,417 211.5,437 Q248,457 282,461"/> 
            <glyph glyph-name="Ĩ" unicode="&#x128;" horiz-adv-x="259" d=" M151,197 L153,0 L101,0 L104,194 L101,639 L154,639 M259,813 L259,807 L207,748 L200,746 Q180,748 127,766 Q78,783 65,783 Q60,783 52.5,777 Q45,771 40,765.5 Q35,760 33,757 L17,740 L12,740 L-6,758 L-6,764 L46,822 L54,825 Q74,823 127,805 Q176,788 188,788 Q195,788 202,794.5 Q209,801 222,815 Q226,820 237,831 L242,831"/> 
            <glyph glyph-name="ĩ" unicode="&#x129;" horiz-adv-x="248" d=" M92,195 L91,451 L141,457 L140,198 L141,0 L90,0 M248,629 L248,623 L196,564 L189,562 Q169,564 116,582 Q67,599 54,599 Q49,599 41.5,593 Q34,587 29,581.5 Q24,576 22,573 L6,556 L1,556 L-17,574 L-17,580 L35,638 L43,641 Q63,639 116,621 Q165,604 177,604 Q184,604 191,610.5 Q198,617 211,631 Q215,636 226,647 L231,647"/> 
            <glyph glyph-name="Ī" unicode="&#x12A;" horiz-adv-x="237" d=" M151,197 L153,0 L101,0 L104,194 L101,639 L154,639 M237,801 L233,768 L22,768 L17,773 L20,805 L232,805"/> 
            <glyph glyph-name="ī" unicode="&#x12B;" horiz-adv-x="226" d=" M92,195 L91,451 L141,457 L140,198 L141,0 L90,0 M226,617 L222,584 L11,584 L6,589 L9,621 L221,621"/> 
            <glyph glyph-name="Ĭ" unicode="&#x12C;" horiz-adv-x="241" d=" M151,197 L153,0 L101,0 L104,194 L101,639 L154,639 M241,809 Q228,769 198,748 Q168,727 126,727 Q83,727 54,748 Q25,769 13,809 L30,829 L39,829 Q48,799 70.5,782.5 Q93,766 126,766 Q159,766 182,782.5 Q205,799 215,829 L224,829"/> 
            <glyph glyph-name="ĭ" unicode="&#x12D;" horiz-adv-x="231" d=" M92,195 L91,451 L141,457 L140,198 L141,0 L90,0 M231,635 Q208,524 115,524 Q22,524 2,635 L19,656 L28,656 Q44,564 116,564 Q188,564 204,656 L213,656"/> 
            <glyph glyph-name="Į" unicode="&#x12E;" horiz-adv-x="164" d=" M151,197 L153,0 L101,0 L104,194 L101,639 L154,639 M100,-71 Q70,-119 70,-133 Q70,-158 95,-158 Q123,-158 145,-119 L148,-119 L164,-145 Q135,-193 88,-193 Q62,-193 47,-179 Q32,-165 32,-141 Q32,-118 49,-91 Q66,-64 117,0 L153,0"/> 
            <glyph glyph-name="į" unicode="&#x12F;" horiz-adv-x="152" d=" M92,195 L91,451 L141,457 L140,198 L141,0 L90,0 M133,648 Q150,630 150,615 Q150,599 141,589.5 Q132,580 116,580 Q100,580 91.5,588.5 Q83,597 83,613 Q83,629 92,638.5 Q101,648 117,648 M88,-71 Q58,-119 58,-133 Q58,-158 83,-158 Q111,-158 133,-119 L136,-119 L152,-145 Q123,-193 76,-193 Q50,-193 35,-179 Q20,-165 20,-141 Q20,-118 37,-91 Q54,-64 105,0 L141,0"/> 
            <glyph glyph-name="İ" unicode="&#x130;" horiz-adv-x="161" d=" M151,197 L153,0 L101,0 L104,194 L101,639 L154,639 M144,832 Q161,814 161,799 Q161,783 152,773.5 Q143,764 127,764 Q111,764 102.5,772.5 Q94,781 94,797 Q94,813 103,822.5 Q112,832 128,832"/> 
            <glyph glyph-name="ı" unicode="&#x131;" horiz-adv-x="141" d=" M92,195 L91,451 L141,457 L140,198 L141,0 L90,0"/> 
            <glyph glyph-name="Ĳ" unicode="&#x132;" horiz-adv-x="445" d=" M151,197 L153,0 L101,0 L104,194 L101,639 L154,639 M443,212 L444,116 Q444,43 410,-5.5 Q376,-54 293,-100 L272,-71 L272,-63 Q339,-23 367,16.5 Q395,56 395,115 L395,206 L393,595 L268,595 L262,600 L266,639 L445,639"/> 
            <glyph glyph-name="ĳ" unicode="&#x133;" horiz-adv-x="389" d=" M92,195 L91,451 L141,457 L140,198 L141,0 L90,0 M132,648 Q149,630 149,615 Q149,599 140,589.5 Q131,580 115,580 Q99,580 90.5,588.5 Q82,597 82,613 Q82,629 91,638.5 Q100,648 116,648 M389,455 L386,198 L388,16 Q388,-62 362.5,-107 Q337,-152 271,-193 L251,-169 L251,-162 Q301,-127 320.5,-89.5 Q340,-52 340,12 L341,195 L339,417 L250,417 L245,423 L249,454 L338,454 L387,457 M365,648 Q382,630 382,615 Q382,599 373,589.5 Q364,580 348,580 Q332,580 323.5,588.5 Q315,597 315,613 Q315,629 324,638.5 Q333,648 349,648"/> 
            <glyph glyph-name="Ĵ" unicode="&#x134;" horiz-adv-x="239" d=" M188,212 L189,116 Q189,43 155,-5.5 Q121,-54 38,-100 L17,-71 L17,-63 Q84,-23 112,16.5 Q140,56 140,115 L140,206 L138,595 L13,595 L7,600 L11,639 L190,639 M3,761 Q56,797 111,844 L130,844 Q203,786 239,761 L228,736 L220,736 L121,804 Q73,770 22,736 L15,736"/> 
            <glyph glyph-name="ĵ" unicode="&#x135;" horiz-adv-x="238" d=" M156,455 L153,198 L155,16 Q155,-62 129.5,-107 Q104,-152 38,-193 L18,-169 L18,-162 Q68,-127 87.5,-89.5 Q107,-52 107,12 L108,195 L106,417 L17,417 L12,423 L16,454 L105,454 L154,457 M-7,544 Q44,598 105,674 L126,674 Q190,594 238,544 L222,521 L215,521 Q159,579 115,631 Q65,571 16,521 L9,521"/> 
            <glyph glyph-name="Ķ" unicode="&#x136;" horiz-adv-x="524" d=" M151,197 L153,0 L101,0 L103,194 L101,639 L153,639 M230,340 Q367,168 524,11 L524,4 Q509,-2 477,-8 L470,-5 Q304,169 173,337 L173,341 L403,588 L445,639 L507,639 M329,-84 L329,-117 Q329,-169 251,-227 L233,-210 L233,-205 Q286,-166 286,-125 Q286,-102 256,-85 L256,-80 Q273,-66 291,-60"/> 
            <glyph glyph-name="ķ" unicode="&#x137;" horiz-adv-x="429" d=" M142,198 L145,0 L94,0 L97,195 L94,697 L146,702 M221,245 Q319,124 429,10 L429,3 Q419,-2 404,-4.5 Q389,-7 384,-8 L377,-6 Q260,121 167,239 L167,245 L326,418 L353,455 L415,455 M293,-84 L293,-117 Q293,-169 215,-227 L197,-210 L197,-205 Q250,-166 250,-125 Q250,-102 220,-85 L220,-80 Q237,-66 255,-60"/> 
            <glyph glyph-name="ĸ" unicode="&#x138;" horiz-adv-x="425" d=" M91,195 L90,451 L140,457 L139,198 L140,0 L89,0 M215,245 Q311,127 425,10 L425,3 Q414,-2 399.5,-4.5 Q385,-7 381,-8 L374,-6 Q253,125 162,239 L162,245 L323,418 L351,455 L410,455"/> 
            <glyph glyph-name="Ĺ" unicode="&#x139;" horiz-adv-x="404" d=" M404,39 L398,0 L99,0 L102,194 L99,639 L152,639 L149,197 L151,45 L399,45 M237,849 L251,819 L249,812 Q160,766 63,723 L56,726 L45,752 Q154,805 230,851"/> 
            <glyph glyph-name="ĺ" unicode="&#x13A;" horiz-adv-x="243" d=" M142,198 L145,0 L94,0 L97,195 L94,697 L146,702 M229,890 L243,860 L241,853 Q152,807 55,764 L48,767 L37,793 Q146,846 222,892"/> 
            <glyph glyph-name="Ļ" unicode="&#x13B;" horiz-adv-x="404" d=" M404,39 L398,0 L99,0 L102,194 L99,639 L152,639 L149,197 L151,45 L399,45 M284,-84 L284,-117 Q284,-169 206,-227 L188,-210 L188,-205 Q241,-166 241,-125 Q241,-102 211,-85 L211,-80 Q228,-66 246,-60"/> 
            <glyph glyph-name="ļ" unicode="&#x13C;" horiz-adv-x="167" d=" M142,198 L145,0 L94,0 L97,195 L94,697 L146,702 M167,-84 L167,-117 Q167,-169 89,-227 L71,-210 L71,-205 Q124,-166 124,-125 Q124,-102 94,-85 L94,-80 Q111,-66 129,-60"/> 
            <glyph glyph-name="Ľ" unicode="&#x13D;" horiz-adv-x="404" d=" M404,39 L398,0 L99,0 L102,194 L99,639 L152,639 L149,197 L151,45 L399,45 M322,413 L317,418 L325,578 L364,581 L368,575 L350,417"/> 
            <glyph glyph-name="ľ" unicode="&#x13E;" horiz-adv-x="273" d=" M142,198 L145,0 L94,0 L97,195 L94,697 L146,702 M273,641 L255,483 L227,479 L222,484 L230,644 L268,647"/> 
            <glyph glyph-name="Ŀ" unicode="&#x13F;" horiz-adv-x="404" d=" M404,39 L398,0 L99,0 L102,194 L99,639 L152,639 L149,197 L151,45 L399,45 M340,407 Q357,389 357,374 Q357,358 348,348.5 Q339,339 323,339 Q307,339 298.5,347.5 Q290,356 290,372 Q290,388 299,397.5 Q308,407 324,407"/> 
            <glyph glyph-name="ŀ" unicode="&#x140;" horiz-adv-x="269" d=" M142,198 L145,0 L94,0 L97,195 L94,697 L146,702 M252,308 Q269,290 269,275 Q269,259 260,249.5 Q251,240 235,240 Q220,240 211,249 Q202,258 202,273 Q202,289 211.5,298.5 Q221,308 237,308"/> 
            <glyph glyph-name="Ł" unicode="&#x141;" horiz-adv-x="416" d=" M416,39 L410,0 L111,0 L114,194 L113,310 L34,267 L27,271 L16,304 L113,355 L111,639 L164,639 L162,382 L306,458 L314,455 L324,423 L162,336 L161,197 L163,45 L411,45"/> 
            <glyph glyph-name="ł" unicode="&#x142;" horiz-adv-x="243" d=" M146,198 L149,0 L97,0 L100,195 L99,351 L22,311 L17,314 L5,348 L99,397 L98,697 L149,702 L147,420 L226,461 L231,459 L243,425 L147,374"/> 
            <glyph glyph-name="Ń" unicode="&#x143;" horiz-adv-x="576" d=" M573,182 L573,0 L520,0 L154,552 L149,552 L148,205 L149,0 L101,0 L103,190 L102,639 L156,639 L521,87 L526,87 L527,636 L576,640 M445,849 L459,819 L457,812 Q368,766 271,723 L264,726 L253,752 Q362,805 438,851"/> 
            <glyph glyph-name="ń" unicode="&#x144;" horiz-adv-x="428" d=" M379,315 Q380,363 355.5,389.5 Q331,416 286,416 Q250,416 212,394.5 Q174,373 139,333 L138,198 L141,0 L89,0 L92,195 L90,451 L139,457 L139,384 L144,384 Q178,417 214.5,437 Q251,457 285,461 Q354,461 391,425.5 Q428,390 427,325 L426,197 L428,0 L376,0 M368,683 L389,656 L388,649 Q340,608 230,518 L223,519 L206,543 Q283,606 362,684"/> 
            </font>
</defs>
</svg>
