<?xml version="1.0" standalone="no"?>
<!DOCTYPE svg PUBLIC "-//W3C//DTD SVG 1.1//EN" "http://www.w3.org/Graphics/SVG/1.1/DTD/svg11.dtd" >
<svg xmlns="http://www.w3.org/2000/svg">
    <defs>
        <font id="AlegreyaSans-Thin">
            <font-face font-family="AlegreyaSans-Thin"
                       units-per-em="1000"
                       ascent="900"
                       descent="-300"
                       bbox="-401 -265 1117 950"
                    />
            <missing-glyph horiz-adv-x="0" />
            
            <glyph glyph-name="!" unicode="&#x21;" horiz-adv-x="142" d=" M142,651 L134,198 L118,198 L114,203 L122,651 L125,654 L139,654 M124,38 Q135,27 135,18 Q135,9 129.5,3.5 Q124,-2 115,-2 Q106,-2 100.5,3.5 Q95,9 95,18 Q95,27 100.5,32.5 Q106,38 115,38"/> 
            <glyph glyph-name="&quot;" unicode="&#x22;" horiz-adv-x="176" d=" M79,631 L67,487 L50,485 L47,489 L59,633 L76,635 M176,631 L164,487 L147,485 L144,489 L156,633 L173,635"/> 
            <glyph glyph-name="#" unicode="&#x23;" horiz-adv-x="460" d=" M330,374 L298,245 L419,245 L422,242 L420,225 L293,225 L244,32 L228,32 L225,36 L273,225 L155,225 L106,32 L90,32 L87,36 L135,225 L23,225 L20,228 L22,245 L140,245 L173,374 L61,374 L58,377 L60,394 L178,394 L224,575 L240,575 L242,570 L198,394 L316,394 L362,575 L378,575 L380,570 L336,394 L457,394 L460,391 L458,374 M311,374 L192,374 L160,245 L278,245"/> 
            <glyph glyph-name="$" unicode="&#x24;" horiz-adv-x="341" d=" M341,75 Q261,1 199,-3 L188,-124 L173,-124 L169,-120 L179,-3 Q148,-1 117,8 Q86,17 61,33 L62,52 L67,53 Q91,36 121.5,26.5 Q152,17 181,16 L200,241 Q158,260 133,275.5 Q108,291 90.5,314.5 Q73,338 73,371 Q73,404 92,432 Q111,460 144.5,476.5 Q178,493 221,493 L234,640 L250,640 L254,635 L242,492 Q284,488 324,471 L320,453 L314,452 Q277,470 240,473 L221,255 Q279,228 310,200.5 Q341,173 341,126 M93,333 Q147,289 202,264 L219,474 Q180,474 151.5,458.5 Q123,443 108,418.5 Q93,394 93,369 M255,21 Q321,85 321,125 Q321,162 295,185.5 Q269,209 219,232 L201,17"/> 
            <glyph glyph-name="%" unicode="&#x25;" horiz-adv-x="742" d=" M623,664 L626,656 L141,-90 L132,-86 L128,-77 L613,669 M253,638 Q323,550 323,468 Q323,385 287.5,340.5 Q252,296 186,296 Q120,296 85,340 Q50,384 50,466 Q50,549 85.5,593.5 Q121,638 188,638 M129,619 Q68,541 68,468 Q68,394 99,354.5 Q130,315 188,315 Q244,315 274.5,354 Q305,393 305,466 Q305,540 274.5,579.5 Q244,619 186,619 M672,339 Q742,251 742,169 Q742,86 706.5,41.5 Q671,-3 605,-3 Q539,-3 504,41 Q469,85 469,167 Q469,250 504.5,294.5 Q540,339 607,339 M548,320 Q487,242 487,169 Q487,95 518,55.5 Q549,16 607,16 Q663,16 693.5,55 Q724,94 724,167 Q724,241 693.5,280.5 Q663,320 605,320"/> 
            <glyph glyph-name="&amp;" unicode="&#x26;" horiz-adv-x="662" d=" M484,371 L484,367 Q500,328 508,293 Q516,258 516,219 Q516,156 492,108 L625,-9 L625,-12 Q618,-19 610,-22 L607,-21 L482,89 Q454,45 405,20.5 Q356,-4 290,-4 Q197,-4 138,41.5 Q79,87 79,165 Q79,220 108.5,264 Q138,308 195,339 L195,343 Q155,377 137.5,412 Q120,447 120,490 Q120,562 164.5,602.5 Q209,643 291,643 Q370,643 443,602 L437,583 L430,583 Q368,623 293,623 Q219,623 179.5,587.5 Q140,552 140,489 Q140,450 157.5,417.5 Q175,385 214,352 L476,122 Q496,165 496,219 Q496,299 456,371 L377,371 L373,375 L377,391 L659,391 L662,387 L658,371 M352,16 Q442,62 467,103 L213,328 Q159,302 129,260.5 Q99,219 99,167 Q99,98 153,57 Q207,16 291,16"/> 
            <glyph glyph-name="'" unicode="&#x27;" horiz-adv-x="79" d=" M79,631 L67,487 L50,485 L47,489 L59,633 L76,635"/> 
            <glyph glyph-name="(" unicode="&#x28;" horiz-adv-x="275" d=" M275,652 L275,648 Q188,586 152,498 Q116,410 115,260 Q116,110 152,22 Q188,-66 275,-128 L275,-132 L266,-143 L262,-143 Q201,-99 165,-45 Q129,9 112.5,82 Q96,155 95,260 Q96,365 112.5,438 Q129,511 165,565 Q201,619 262,663 L266,663"/> 
            <glyph glyph-name=")" unicode="&#x29;" horiz-adv-x="194" d=" M14,-132 L14,-128 Q101,-66 137,22 Q173,110 174,260 Q173,410 137,498 Q101,586 14,648 L14,652 L23,663 L27,663 Q88,619 124,565 Q160,511 176.5,438 Q193,365 194,260 Q193,155 176.5,82 Q160,9 124,-45 Q88,-99 27,-143 L23,-143"/> 
            <glyph glyph-name="*" unicode="&#x2A;" horiz-adv-x="327" d=" M199,713 L188,600 L174,598 L171,603 L176,712 Q187,715 197,715 M151,583 L148,569 L143,568 L41,606 Q41,620 44,627 L47,629 M323,609 L327,597 L326,595 L215,570 L210,583 L213,587 L317,616 M211,542 L271,452 Q263,441 256,437 L253,437 L195,535 L206,544 M168,536 L167,530 L100,445 Q90,448 81,455 L80,458 L156,543"/> 
            <glyph glyph-name="+" unicode="&#x2B;" horiz-adv-x="441" d=" M250,468 L250,280 L438,280 L441,277 L439,260 L250,260 L250,71 L233,69 L230,72 L230,260 L42,260 L39,263 L41,280 L230,280 L230,469 L247,471"/> 
            <glyph glyph-name="," unicode="&#x2C;" horiz-adv-x="149" d=" M149,24 L149,-7 Q149,-27 132,-51 Q115,-75 83,-100 L73,-89 L74,-86 Q100,-67 114,-46.5 Q128,-26 128,-8 Q128,12 98,26 L98,30 Q103,37 111,41"/> 
            <glyph glyph-name="-" unicode="&#x2D;" horiz-adv-x="280" d=" M280,277 L280,261 L35,228 L31,232 L31,248 L276,281"/> 
            <glyph glyph-name="." unicode="&#x2E;" horiz-adv-x="135" d=" M124,38 Q135,27 135,18 Q135,9 129.5,3.5 Q124,-2 115,-2 Q106,-2 100.5,3.5 Q95,9 95,18 Q95,27 100.5,32.5 Q106,38 115,38"/> 
            <glyph glyph-name="/" unicode="&#x2F;" horiz-adv-x="270" d=" M270,670 L66,-110 L50,-110 L47,-106 L251,675 L267,675"/> 
            <glyph glyph-name="0" unicode="&#x30;" horiz-adv-x="480" d=" M371,495 Q480,365 480,243 Q480,124 425,60 Q370,-4 267,-4 Q165,-4 110,59.5 Q55,123 55,241 Q55,364 110,429.5 Q165,495 269,495 M175,475 Q75,355 75,243 Q75,133 125,74.5 Q175,16 269,16 Q361,16 410.5,74 Q460,132 460,241 Q460,354 410,414.5 Q360,475 267,475"/> 
            <glyph glyph-name="1" unicode="&#x31;" horiz-adv-x="186" d=" M186,489 L186,0 L166,0 L166,466 L20,421 L15,424 L15,440 L182,493"/> 
            <glyph glyph-name="2" unicode="&#x32;" horiz-adv-x="403" d=" M266,492 Q330,436 330,393 Q330,353 300.5,301 Q271,249 209,175 L83,23 L85,20 L322,20 L400,21 L403,17 L399,-1 L317,0 L95,0 L57,-1 L55,1 L55,17 L195,188 Q254,260 282,307.5 Q310,355 310,391 Q310,426 284.5,449 Q259,472 214,472 Q174,472 138,452 Q102,432 73,395 L69,395 L65,412 Q94,449 133,470.5 Q172,492 215,492"/> 
            <glyph glyph-name="3" unicode="&#x33;" horiz-adv-x="337" d=" M234,493 Q307,428 307,375 Q307,329 278,287.5 Q249,246 201,224 L201,221 Q267,207 302,168.5 Q337,130 337,72 Q337,22 311,-17 Q285,-56 238.5,-77.5 Q192,-99 132,-99 Q88,-99 45,-91 L42,-74 L45,-71 Q88,-79 132,-79 Q215,-79 266,-37.5 Q317,4 317,72 Q317,134 273,169.5 Q229,205 147,209 L100,209 L97,212 L98,229 L141,229 Q172,229 206,248 Q240,267 263,300 Q286,333 286,372 Q286,417 256,444.5 Q226,472 177,472 Q143,472 111,456.5 Q79,441 47,409 L43,409 L39,427 Q74,461 107,477 Q140,493 177,493"/> 
            <glyph glyph-name="4" unicode="&#x34;" horiz-adv-x="421" d=" M421,115 L417,98 L346,99 L312,99 L312,-92 L310,-95 L294,-98 L292,-95 L292,99 L77,99 L35,98 L32,102 L32,119 L292,491 L312,491 L312,119 L417,119 M292,119 L292,452 L288,452 L56,119"/> 
            <glyph glyph-name="5" unicode="&#x35;" horiz-adv-x="349" d=" M349,490 L347,472 L344,470 L303,471 L108,471 L102,265 L168,250 Q260,229 303,190 Q346,151 346,90 Q346,34 318,-9 Q290,-52 239,-75.5 Q188,-99 121,-99 Q86,-99 48,-92 L44,-75 L47,-72 Q88,-79 122,-79 Q214,-79 270,-32.5 Q326,14 326,91 Q326,143 286,176.5 Q246,210 161,230 L87,247 L83,252 L88,484 L97,492 L146,491 L282,491 L347,492"/> 
            <glyph glyph-name="6" unicode="&#x36;" horiz-adv-x="402" d=" M320,335 Q402,251 402,174 Q402,87 357,40.5 Q312,-6 227,-6 Q147,-6 103.5,49 Q60,104 60,206 Q60,340 138.5,440.5 Q217,541 360,592 L364,592 L373,581 L373,577 Q251,533 178,456.5 Q105,380 86,277 L88,275 Q161,335 247,335 M302,14 Q382,97 382,174 Q382,242 346,278.5 Q310,315 246,315 Q160,315 82,247 Q80,221 80,206 Q80,114 118,64 Q156,14 227,14"/> 
            <glyph glyph-name="7" unicode="&#x37;" horiz-adv-x="371" d=" M96,491 L334,491 L370,492 L371,474 L148,-19 L113,-105 L94,-99 L93,-95 L349,471 L90,471 L32,470 L28,475 L31,492"/> 
            <glyph glyph-name="8" unicode="&#x38;" horiz-adv-x="391" d=" M297,589 Q371,518 371,456 Q371,398 338,363.5 Q305,329 249,307 L249,304 Q294,286 323,269 Q352,252 371.5,223 Q391,194 391,151 Q391,81 344,38.5 Q297,-4 219,-4 Q144,-4 99.5,36.5 Q55,77 55,144 Q55,206 94.5,244 Q134,282 195,305 L195,308 Q142,331 112,363 Q82,395 82,448 Q82,513 124,551 Q166,589 233,589 M174,569 Q102,504 102,448 Q102,396 132.5,368.5 Q163,341 222,316 Q280,335 315.5,367 Q351,399 351,457 Q351,509 319.5,539 Q288,569 233,569 M154,272 Q75,204 75,143 Q75,86 114,51 Q153,16 219,16 Q288,16 329.5,52.5 Q371,89 371,149 Q371,190 350.5,217 Q330,244 302,259 Q274,274 220,296"/> 
            <glyph glyph-name="9" unicode="&#x39;" horiz-adv-x="396" d=" M136,157 Q54,241 54,318 Q54,405 99,451.5 Q144,498 229,498 Q309,498 352.5,443 Q396,388 396,286 Q396,152 317.5,51.5 Q239,-49 96,-100 L92,-100 L83,-89 L83,-85 Q205,-41 278,35.5 Q351,112 370,215 L368,217 Q295,157 209,157 M154,478 Q74,395 74,318 Q74,250 110,213.5 Q146,177 210,177 Q296,177 374,245 Q376,271 376,286 Q376,378 338,428 Q300,478 229,478"/> 
            <glyph glyph-name=":" unicode="&#x3A;" horiz-adv-x="131" d=" M376,38 Q387,27 387,18 Q387,9 381.5,3.5 Q376,-2 367,-2 Q358,-2 352.5,3.5 Q347,9 347,18 Q347,27 352.5,32.5 Q358,38 367,38 M65656,315 Q65667,304 65667,295 Q65667,286 65661.5,280.5 Q65656,275 65647,275 Q65638,275 65632.5,280.5 Q65627,286 65627,295 Q65627,304 65632.5,309.5 Q65638,315 65647,315"/> 
            <glyph glyph-name=";" unicode="&#x3B;" horiz-adv-x="145" d=" M401,24 L401,-7 Q401,-27 384,-51 Q367,-75 335,-100 L325,-89 L326,-86 Q352,-67 366,-46.5 Q380,-26 380,-8 Q380,12 350,26 L350,30 Q355,37 363,41 M65656,315 Q65667,304 65667,295 Q65667,286 65661.5,280.5 Q65656,275 65647,275 Q65638,275 65632.5,280.5 Q65627,286 65627,295 Q65627,304 65632.5,309.5 Q65638,315 65647,315"/> 
            <glyph glyph-name="&lt;" unicode="&#x3C;" horiz-adv-x="440" d=" M439,441 L436,436 L66,272 L66,268 L440,115 L434,100 L430,98 L40,258 L40,280 L43,284 L432,455"/> 
            <glyph glyph-name="=" unicode="&#x3D;" horiz-adv-x="441" d=" M441,349 L439,332 L42,332 L39,335 L41,352 L438,352 M441,461 L439,444 L42,444 L39,447 L41,464 L438,464"/> 
            <glyph glyph-name="&gt;" unicode="&#x3E;" horiz-adv-x="440" d=" M437,284 L440,280 L440,258 L50,98 L46,100 L40,115 L414,268 L414,272 L44,436 L41,441 L48,455"/> 
            <glyph glyph-name="?" unicode="&#x3F;" horiz-adv-x="312" d=" M196,645 Q312,565 312,500 Q312,463 292,430 Q272,397 235,372 L139,306 L138,303 L143,195 L126,194 L123,198 L117,308 L122,317 L223,386 Q256,407 274,436 Q292,465 292,498 Q292,557 236,592.5 Q180,628 77,634 L75,637 L81,651 L87,654 M144,38 Q155,27 155,18 Q155,9 149.5,3.5 Q144,-2 135,-2 Q126,-2 120.5,3.5 Q115,9 115,18 Q115,27 120.5,32.5 Q126,38 135,38"/> 
            <glyph glyph-name="@" unicode="&#x40;" horiz-adv-x="763" d=" M538,592 Q684,514 723.5,444.5 Q763,375 763,284 Q763,152 686,78.5 Q609,5 463,-4 L499,272 L499,271 L494,271 Q449,186 397,115 Q345,44 292,-4 L281,-4 Q254,16 241.5,48 Q229,80 229,137 Q229,222 255.5,293 Q282,364 333.5,408 Q385,452 456,457 L460,457 L525,452 L538,459 L543,456 L497,106 L489,16 Q613,28 678,96.5 Q743,165 743,284 Q743,370 706.5,435 Q670,500 601.5,536 Q533,572 441,572 Q329,572 243.5,524 Q158,476 111,390.5 Q64,305 64,194 Q64,83 111.5,2 Q159,-79 246.5,-122 Q334,-165 450,-165 L451,-169 L438,-185 Q321,-183 232,-136 Q143,-89 93.5,-5 Q44,79 44,190 Q44,309 93.5,400.5 Q143,492 233,542 Q323,592 441,592 M297,24 Q369,104 416,175 Q463,246 508,336 L511,362 L518,432 L458,437 Q395,436 347.5,394.5 Q300,353 274.5,285.5 Q249,218 249,141 Q249,100 256,74 Q263,48 272.5,36 Q282,24 289,24"/> 
            <glyph glyph-name="A" unicode="&#x41;" horiz-adv-x="526" d=" M526,0 L503,0 L490,43 L427,213 L125,213 L57,43 L43,0 L19,0 L273,637 L293,637 M284,603 L280,603 L133,233 L420,233"/> 
            <glyph glyph-name="B" unicode="&#x42;" horiz-adv-x="447" d=" M370,324 Q447,245 447,176 Q447,91 388,44 Q329,-3 219,-3 Q161,-3 110,0 L110,637 L233,639 Q312,639 354.5,600.5 Q397,562 397,491 Q397,431 372,391.5 Q347,352 301,334 M130,618 L130,343 L260,340 Q316,351 346,390 Q376,429 376,491 Q376,549 339,583.5 Q302,618 240,618 M317,17 Q427,101 427,176 Q427,240 386,277 Q345,314 269,320 L130,320 L130,20 Q169,17 215,17"/> 
            <glyph glyph-name="C" unicode="&#x43;" horiz-adv-x="491" d=" M360,641 Q452,610 489,582 L482,565 L475,565 Q441,592 399.5,606.5 Q358,621 313,621 Q194,621 131,542 Q68,463 68,316 Q68,171 128,93 Q188,15 301,15 Q349,15 396.5,32.5 Q444,50 484,82 L491,80 L489,62 Q447,30 398,12.5 Q349,-5 302,-5 Q179,-5 113.5,78.5 Q48,162 48,317 Q48,473 116.5,557 Q185,641 313,641"/> 
            <glyph glyph-name="D" unicode="&#x44;" horiz-adv-x="589" d=" M445,642 Q589,485 589,339 Q589,173 514.5,84 Q440,-5 301,-5 Q267,-5 211,-3.5 Q155,-2 110,0 L110,637 L311,642 M430,15 Q569,183 569,339 Q569,476 502,549 Q435,622 311,622 Q280,622 226.5,620.5 Q173,619 130,617 L130,20 Q172,18 221.5,16.5 Q271,15 301,15"/> 
            <glyph glyph-name="E" unicode="&#x45;" horiz-adv-x="425" d=" M425,16 L421,0 L110,0 L110,637 L418,637 L421,633 L417,617 L130,617 L130,340 L368,340 L371,336 L367,320 L130,320 L130,20 L422,20"/> 
            <glyph glyph-name="F" unicode="&#x46;" horiz-adv-x="410" d=" M130,330 L357,330 L360,326 L356,310 L130,310 L130,0 L110,0 L110,637 L407,637 L410,633 L406,617 L130,617"/> 
            <glyph glyph-name="G" unicode="&#x47;" horiz-adv-x="523" d=" M386,641 Q479,613 523,587 L517,569 L510,569 Q423,621 343,621 Q211,621 139.5,541 Q68,461 68,312 Q68,169 130,92 Q192,15 307,15 Q354,15 393.5,21.5 Q433,28 496,45 L496,246 L516,248 L516,30 Q450,11 406.5,3.5 Q363,-4 308,-5 Q183,-5 115.5,77.5 Q48,160 48,313 Q48,471 124.5,556 Q201,641 343,641"/> 
            <glyph glyph-name="H" unicode="&#x48;" horiz-adv-x="560" d=" M560,637 L560,0 L540,0 L540,314 L130,314 L130,0 L110,0 L110,637 L130,637 L130,334 L540,334 L540,637"/> 
            <glyph glyph-name="I" unicode="&#x49;" horiz-adv-x="130" d=" M130,0 L110,0 L110,637 L130,637"/> 
            <glyph glyph-name="J" unicode="&#x4A;" horiz-adv-x="160" d=" M160,115 Q160,45 130.5,-3.5 Q101,-52 31,-98 L20,-87 L20,-81 Q84,-39 112,6 Q140,51 140,113 L140,617 L12,617 L8,621 L11,637 L160,637"/> 
            <glyph glyph-name="K" unicode="&#x4B;" horiz-adv-x="498" d=" M130,0 L110,0 L110,637 L130,637 M186,340 Q332,164 498,5 L498,1 Q495,-2 484,-7 L480,-6 Q297,172 159,338 L159,341 L408,590 L451,637 L482,637"/> 
            <glyph glyph-name="L" unicode="&#x4C;" horiz-adv-x="393" d=" M393,16 L389,0 L109,0 L109,637 L129,637 L129,20 L390,20"/> 
            <glyph glyph-name="M" unicode="&#x4D;" horiz-adv-x="705" d=" M705,0 L684,0 L664,195 L620,589 L615,589 L401,81 L376,81 L166,589 L161,589 L118,195 L97,0 L76,0 L146,637 L169,637 L209,538 L386,110 L390,110 L577,549 L614,637 L637,637"/> 
            <glyph glyph-name="N" unicode="&#x4E;" horiz-adv-x="560" d=" M559,176 L558,0 L539,0 L135,595 L131,595 L130,199 L130,0 L110,0 L110,190 L111,637 L130,637 L534,42 L538,42 L540,636 L560,638"/> 
            <glyph glyph-name="O" unicode="&#x4F;" horiz-adv-x="579" d=" M444,642 Q579,480 579,329 Q579,168 509,81.5 Q439,-5 308,-5 Q183,-5 115.5,78.5 Q48,162 48,317 Q48,474 118,558 Q188,642 318,642 M197,622 Q68,464 68,317 Q68,172 130,93.5 Q192,15 308,15 Q429,15 494,96.5 Q559,178 559,329 Q559,470 496.5,546 Q434,622 318,622"/> 
            <glyph glyph-name="P" unicode="&#x50;" horiz-adv-x="432" d=" M338,639 Q432,546 432,460 Q432,358 377,303.5 Q322,249 219,249 L130,249 L130,0 L110,0 L110,637 L251,639 M327,276 Q412,377 412,460 Q412,534 372,575 Q332,616 258,619 L130,618 L130,269 L249,269"/> 
            <glyph glyph-name="Q" unicode="&#x51;" horiz-adv-x="729" d=" M439,-67 Q628,-152 729,-164 L729,-170 L721,-182 L716,-182 Q614,-169 515.5,-123 Q417,-77 336,-4 Q327,-5 308,-5 Q183,-5 115.5,78.5 Q48,162 48,317 Q48,474 118,558 Q188,642 318,642 Q444,642 511.5,561 Q579,480 579,329 Q579,185 523,100.5 Q467,16 362,-1 M68,172 Q192,15 308,15 Q429,15 494,96.5 Q559,178 559,329 Q559,470 496.5,546 Q434,622 318,622 Q197,622 132.5,543 Q68,464 68,317"/> 
            <glyph glyph-name="R" unicode="&#x52;" horiz-adv-x="466" d=" M363,139 L466,5 L466,1 Q461,-4 454,-7 L448,-5 Q341,135 264,263 L130,263 L130,0 L110,0 L110,637 L251,639 Q338,639 385,594 Q432,549 432,464 Q432,390 394,339.5 Q356,289 285,267 M130,283 L272,283 Q339,300 375.5,347 Q412,394 412,464 Q412,538 372,578 Q332,618 258,618 L130,618"/> 
            <glyph glyph-name="S" unicode="&#x53;" horiz-adv-x="390" d=" M306,640 L368,611 L364,593 L357,592 Q329,606 299,613 Q269,620 244,620 Q196,620 160,599.5 Q124,579 105,546.5 Q86,514 86,480 Q86,445 105,419.5 Q124,394 151.5,377.5 Q179,361 228,337 Q282,310 313.5,290 Q345,270 367.5,238.5 Q390,207 390,162 Q390,118 366,79.5 Q342,41 299.5,18.5 Q257,-4 204,-4 Q165,-4 124,8 Q83,20 52,43 L53,62 L58,64 Q88,40 127,28 Q166,16 203,16 Q252,16 290.5,37 Q329,58 349.5,91.5 Q370,125 370,162 Q370,200 350,227 Q330,254 301.5,272 Q273,290 223,314 Q170,340 139.5,359.5 Q109,379 87.5,409.5 Q66,440 66,483 Q66,526 89,562 Q112,598 153,619 Q194,640 246,640"/> 
            <glyph glyph-name="T" unicode="&#x54;" horiz-adv-x="447" d=" M447,633 L443,617 L248,617 L248,0 L228,0 L228,617 L31,617 L28,621 L32,637 L444,637"/> 
            <glyph glyph-name="U" unicode="&#x55;" horiz-adv-x="529" d=" M526,229 Q529,119 471,57.5 Q413,-4 306,-4 Q199,-4 142.5,56 Q86,116 86,229 L86,637 L106,637 L106,229 Q105,126 157,71 Q209,16 306,16 Q403,16 454.5,71 Q506,126 506,229 L506,637 L526,637"/> 
            <glyph glyph-name="V" unicode="&#x56;" horiz-adv-x="527" d=" M273,0 L253,0 L20,637 L43,637 L56,594 L262,34 L266,34 L489,594 L503,637 L527,637"/> 
            <glyph glyph-name="W" unicode="&#x57;" horiz-adv-x="871" d=" M622,0 L602,0 L446,438 L442,438 L272,0 L252,0 L23,637 L46,637 L59,594 L261,34 L265,34 L434,471 L374,637 L396,637 L409,594 L611,34 L615,34 L834,594 L848,637 L871,637"/> 
            <glyph glyph-name="X" unicode="&#x58;" horiz-adv-x="529" d=" M298,330 L529,0 L502,0 L478,38 L285,314 L92,36 L70,0 L43,0 L272,330 L57,637 L85,637 L107,602 L285,346 L459,597 L483,637 L510,637"/> 
            <glyph glyph-name="Y" unicode="&#x59;" horiz-adv-x="466" d=" M248,245 L248,0 L228,0 L228,246 L26,637 L52,637 L63,611 L236,277 L241,277 L429,611 L440,637 L466,637"/> 
            <glyph glyph-name="Z" unicode="&#x5A;" horiz-adv-x="462" d=" M460,620 L59,20 L390,20 L458,21 L462,16 L459,0 L68,0 L32,-1 L32,17 L433,617 L113,617 L55,616 L51,621 L54,638 L119,637 L423,637 L460,638"/> 
            <glyph glyph-name="[" unicode="&#x5B;" horiz-adv-x="267" d=" M267,642 L267,627 L137,618 L137,-105 L267,-114 L267,-129 L263,-133 L117,-123 L117,636 L263,646"/> 
            <glyph glyph-name="\" unicode="&#x5C;" horiz-adv-x="244" d=" M21,670 L24,675 L40,675 L244,-106 L241,-110 L225,-110"/> 
            <glyph glyph-name="]" unicode="&#x5D;" horiz-adv-x="164" d=" M14,-129 L14,-114 L144,-105 L144,618 L14,627 L14,642 L18,646 L164,636 L164,-123 L18,-133"/> 
            <glyph glyph-name="^" unicode="&#x5E;" horiz-adv-x="382" d=" M382,121 L380,117 L365,112 L212,462 L208,462 L44,116 L39,113 L25,120 L196,484 L200,487 L222,487"/> 
            <glyph glyph-name="_" unicode="&#x5F;" horiz-adv-x="470" d=" M470,-89 L468,-106 L-12,-106 L-15,-103 L-13,-86 L467,-86"/> 
            <glyph glyph-name="`" unicode="&#x60;" horiz-adv-x="276" d=" M207,590 L276,532 L265,519 L260,518 Q185,584 116,653 L115,658 L125,668 L130,669"/> 
            <glyph glyph-name="a" unicode="&#x61;" horiz-adv-x="407" d=" M272,457 Q333,398 333,344 Q333,311 328,211 L323,73 Q323,44 331.5,30.5 Q340,17 359,17 Q369,17 380.5,21 Q392,25 401,32 L407,29 L403,11 Q383,-3 358,-3 Q330,-3 317,14.5 Q304,32 303,73 L300,73 Q270,38 236,17 Q202,-4 169,-5 Q115,-5 85.5,24.5 Q56,54 56,107 Q56,143 77.5,168 Q99,193 138,202 L310,242 L313,340 Q313,387 287.5,412 Q262,437 214,437 Q184,437 148.5,420 Q113,403 77,372 L71,374 L66,389 Q103,422 141.5,439.5 Q180,457 215,457 M143,182 Q111,174 93.5,155 Q76,136 76,107 Q76,64 100.5,39.5 Q125,15 168,15 Q201,15 236.5,39 Q272,63 304,106 L309,221"/> 
            <glyph glyph-name="b" unicode="&#x62;" horiz-adv-x="445" d=" M356,456 Q445,341 445,237 Q445,121 389.5,57.5 Q334,-6 233,-6 Q172,-6 123,7 L110,0 L105,3 L105,698 L125,702 L125,385 L128,385 Q157,419 196,437.5 Q235,456 276,456 M325,14 Q425,131 425,237 Q425,332 386,384 Q347,436 276,436 Q234,436 195,414.5 Q156,393 125,353 L125,28 Q189,14 233,14"/> 
            <glyph glyph-name="c" unicode="&#x63;" horiz-adv-x="366" d=" M267,457 Q337,434 362,415 L355,398 L349,398 Q327,415 295.5,426 Q264,437 233,437 Q162,437 119,378.5 Q76,320 76,222 Q76,128 118.5,71.5 Q161,15 233,15 Q266,15 300,26.5 Q334,38 360,58 L366,56 L364,38 Q338,19 303,7 Q268,-5 232,-5 Q152,-5 104,57 Q56,119 56,222 Q56,293 78,346 Q100,399 140,428 Q180,457 233,457"/> 
            <glyph glyph-name="d" unicode="&#x64;" horiz-adv-x="478" d=" M396,75 Q396,45 404,31 Q412,17 431,17 Q454,17 472,32 L478,29 L474,11 Q454,-3 430,-3 Q403,-3 390,14 Q377,31 376,69 L373,69 Q341,32 306,13.5 Q271,-5 229,-5 Q151,-5 103.5,54 Q56,113 56,217 Q56,332 111.5,394.5 Q167,457 268,457 Q319,457 376,440 L376,698 L396,702 M176,437 Q76,322 76,217 Q76,123 118.5,69 Q161,15 230,15 Q314,15 376,101 L376,418 Q321,437 268,437"/> 
            <glyph glyph-name="e" unicode="&#x65;" horiz-adv-x="388" d=" M311,457 Q388,370 388,292 Q388,272 387,262 L381,255 L77,251 Q76,241 76,221 Q76,126 119.5,70.5 Q163,15 238,15 Q275,15 310,26.5 Q345,38 371,58 L377,56 L374,36 Q312,-5 236,-5 Q153,-5 104.5,56 Q56,117 56,221 Q56,329 106.5,393 Q157,457 242,457 M369,296 Q369,362 334.5,399.5 Q300,437 241,437 Q176,437 133,392.5 Q90,348 79,271 L368,275"/> 
            <glyph glyph-name="f" unicode="&#x66;" horiz-adv-x="307" d=" M269,704 L307,695 L305,676 L302,674 Q273,684 239,684 Q190,684 163.5,652 Q137,620 137,560 L137,452 L262,452 L265,448 L262,432 L137,432 L137,0 L117,0 L117,432 L50,432 L46,436 L49,452 L117,452 L117,560 Q117,630 148.5,667 Q180,704 239,704"/> 
            <glyph glyph-name="g" unicode="&#x67;" horiz-adv-x="455" d=" M408,427 L346,416 L344,413 Q383,372 383,304 Q383,233 341,191.5 Q299,150 226,150 Q184,150 151,164 Q120,144 108,131 Q96,118 96,107 Q96,84 126.5,73.5 Q157,63 224,52 Q284,43 322.5,33.5 Q361,24 388,2.5 Q415,-19 415,-55 Q415,-91 387.5,-122.5 Q360,-154 314,-173 Q268,-192 216,-192 Q145,-192 102.5,-159.5 Q60,-127 60,-77 Q65,-43 89,-16.5 Q113,10 162,38 L162,43 Q120,52 97.5,68 Q75,84 75,111 Q80,136 132,171 L132,174 Q103,194 87,226.5 Q71,259 71,301 Q71,374 113,415 Q155,456 229,456 Q284,456 323,431 Q397,445 451,460 L455,457 L455,439 M290,170 Q364,241 364,304 Q364,366 328,401 Q292,436 229,436 Q164,436 127,400 Q90,364 90,301 Q90,240 126,205 Q162,170 226,170 M395,-26 Q350,8 317.5,16 Q285,24 231,32 Q218,33 197,37 Q142,9 111,-20 Q80,-49 80,-82 Q80,-119 117,-145.5 Q154,-172 216,-172 Q264,-172 305,-155 Q346,-138 370.5,-111 Q395,-84 395,-55"/> 
            <glyph glyph-name="h" unicode="&#x68;" horiz-adv-x="417" d=" M348,457 Q417,386 416,321 L415,194 L414,0 L394,0 L396,320 Q396,375 367,406 Q338,437 285,437 Q246,437 204.5,411.5 Q163,386 125,341 L125,0 L105,0 L105,698 L125,702 L125,374 L129,374 Q166,414 206.5,435.5 Q247,457 285,457"/> 
            <glyph glyph-name="i" unicode="&#x69;" horiz-adv-x="131" d=" M101,449 L121,453 L121,0 L101,0 M120,631 Q131,620 131,611 Q131,602 125.5,596.5 Q120,591 111,591 Q102,591 96.5,596.5 Q91,602 91,611 Q91,620 96.5,625.5 Q102,631 111,631"/> 
            <glyph glyph-name="j" unicode="&#x6A;" horiz-adv-x="128" d=" M128,451 L128,12 Q128,-66 108.5,-108.5 Q89,-151 35,-192 L25,-182 L25,-176 Q73,-139 90.5,-99.5 Q108,-60 108,8 L108,432 L24,432 L20,436 L23,452 L106,452 L126,453 M112,631 Q123,620 123,611 Q123,602 117.5,596.5 Q112,591 103,591 Q94,591 88.5,596.5 Q83,602 83,611 Q83,620 88.5,625.5 Q94,631 103,631"/> 
            <glyph glyph-name="k" unicode="&#x6B;" horiz-adv-x="408" d=" M125,0 L105,0 L105,698 L125,702 M181,241 Q291,117 408,5 L408,1 Q406,-2 393,-7 L389,-6 Q264,116 155,238 L155,243 L332,418 L361,452 L392,452"/> 
            <glyph glyph-name="l" unicode="&#x6C;" horiz-adv-x="125" d=" M125,0 L105,0 L105,698 L125,702"/> 
            <glyph glyph-name="m" unicode="&#x6D;" horiz-adv-x="698" d=" M630,457 Q698,386 698,321 L698,194 L696,0 L676,0 L678,320 Q678,375 649,406 Q620,437 568,437 Q529,437 488,413 Q447,389 409,345 Q410,337 410,321 L410,194 L408,0 L388,0 L390,320 Q390,375 361,406 Q332,437 280,437 Q241,437 199.5,411.5 Q158,386 120,341 L121,196 L120,0 L100,0 L100,449 L120,453 L120,374 L125,374 Q162,414 202.5,435.5 Q243,457 280,457 Q329,457 361,434.5 Q393,412 404,370 L409,370 Q446,411 488,434 Q530,457 568,457"/> 
            <glyph glyph-name="n" unicode="&#x6E;" horiz-adv-x="411" d=" M343,457 Q411,386 411,321 L411,0 L389,0 L391,320 Q391,375 362,406 Q333,437 280,437 Q241,437 199.5,411.5 Q158,386 120,341 L120,0 L100,0 L100,449 L120,453 L120,374 L124,374 Q161,414 201.5,435.5 Q242,457 280,457"/> 
            <glyph glyph-name="o" unicode="&#x6F;" horiz-adv-x="429" d=" M331,457 Q429,336 429,230 Q429,121 378.5,58 Q328,-5 239,-5 Q154,-5 105,55.5 Q56,116 56,222 Q56,331 106.5,394 Q157,457 246,457 M167,437 Q76,323 76,222 Q76,125 119.5,70 Q163,15 239,15 Q318,15 363.5,72 Q409,129 409,230 Q409,327 365.5,382 Q322,437 246,437"/> 
            <glyph glyph-name="p" unicode="&#x70;" horiz-adv-x="440" d=" M351,457 Q440,342 440,238 Q440,122 384.5,58.5 Q329,-5 228,-5 Q164,-5 120,5 L120,-185 L100,-185 L100,449 L120,453 L120,386 L123,386 Q152,420 191,438.5 Q230,457 271,457 M320,15 Q420,132 420,238 Q420,333 381,385 Q342,437 271,437 Q229,437 190,415.5 Q151,394 120,354 L120,26 Q181,15 228,15"/> 
            <glyph glyph-name="q" unicode="&#x71;" horiz-adv-x="396" d=" M392,455 L396,452 L396,-185 L376,-185 L376,69 L373,69 Q341,32 306,13.5 Q271,-5 229,-5 Q150,-5 103,54 Q56,113 56,219 Q56,332 111.5,394.5 Q167,457 264,457 Q305,457 376,442 M177,437 Q76,322 76,218 Q76,122 118,68.5 Q160,15 230,15 Q315,15 376,101 L376,420 Q313,437 267,437"/> 
            <glyph glyph-name="r" unicode="&#x72;" horiz-adv-x="287" d=" M273,452 L287,450 L287,431 L282,429 Q267,432 255,432 Q220,432 187,400 Q154,368 120,301 L120,0 L100,0 L100,449 L120,453 L120,342 L124,342 Q155,398 188,425 Q221,452 260,452"/> 
            <glyph glyph-name="s" unicode="&#x73;" horiz-adv-x="302" d=" M239,455 L287,435 L282,416 L276,415 Q235,435 192,435 Q142,435 111,408 Q80,381 80,342 Q80,305 106,284 Q132,263 186,238 Q224,220 247,206 Q270,192 286,170 Q302,148 302,117 Q302,84 284,56 Q266,28 233.5,11.5 Q201,-5 160,-5 Q129,-5 98.5,4.5 Q68,14 45,30 L48,47 L53,50 Q100,15 159,15 Q215,15 248.5,45 Q282,75 282,116 Q282,152 256.5,173 Q231,194 178,219 Q139,237 115.5,251.5 Q92,266 76,288.5 Q60,311 60,343 Q60,392 96.5,423.5 Q133,455 193,455"/> 
            <glyph glyph-name="t" unicode="&#x74;" horiz-adv-x="284" d=" M238,16 L278,42 L282,39 L280,21 Q236,-4 200,-4 Q155,-4 130.5,26 Q106,56 106,112 L106,432 L44,432 L40,436 L43,452 L106,452 L106,560 L122,566 L126,563 L126,452 L281,452 L284,448 L281,432 L126,432 L126,113 Q126,66 145,41 Q164,16 200,16"/> 
            <glyph glyph-name="u" unicode="&#x75;" horiz-adv-x="475" d=" M475,29 L471,11 Q451,-3 426,-3 Q398,-3 385,17 Q372,37 372,79 L368,79 Q291,-4 208,-4 Q151,-4 120.5,31.5 Q90,67 90,132 L90,449 L110,453 L110,133 Q110,77 136,46.5 Q162,16 211,16 Q251,16 292,39.5 Q333,63 372,108 L372,449 L392,453 L392,79 Q392,47 400.5,32 Q409,17 428,17 Q451,17 469,32"/> 
            <glyph glyph-name="v" unicode="&#x76;" horiz-adv-x="377" d=" M53,409 L183,31 L187,31 L338,409 L353,452 L377,452 L195,0 L173,0 L19,450 L40,454"/> 
            <glyph glyph-name="w" unicode="&#x77;" horiz-adv-x="625" d=" M52,409 L164,32 L168,32 L296,409 L310,452 L333,452 L344,409 L455,32 L459,32 L588,409 L602,452 L625,452 L467,0 L445,0 L322,416 L318,416 L176,0 L154,0 L19,450 L40,454"/> 
            <glyph glyph-name="x" unicode="&#x78;" horiz-adv-x="377" d=" M82,423 L204,248 L323,418 L344,452 L371,452 L216,231 L377,3 L353,-2 L331,33 L203,216 L74,31 L54,0 L27,0 L191,233 L39,449 L63,454"/> 
            <glyph glyph-name="y" unicode="&#x79;" horiz-adv-x="384" d=" M54,409 L194,36 L199,36 L345,409 L360,452 L384,452 L207,0 Q181,-67 154,-104 Q127,-141 91,-159.5 Q55,-178 -4,-190 L-9,-190 Q-13,-186 -17,-178 L-17,-172 Q43,-160 78,-142.5 Q113,-125 137.5,-92.5 Q162,-60 185,0 L19,450 L40,454"/> 
            <glyph glyph-name="z" unicode="&#x7A;" horiz-adv-x="359" d=" M107,452 L331,452 L356,453 L357,436 L66,20 L303,20 L356,21 L359,17 L355,-1 L298,0 L65,0 L38,-1 L38,16 L329,432 L101,432 L55,431 L51,435 L55,453"/> 
            <glyph glyph-name="{" unicode="&#x7B;" horiz-adv-x="263" d=" M242,653 L260,648 L263,645 L259,628 Q232,633 220,633 Q184,633 166.5,612 Q149,591 149,546 Q149,517 159,445 Q168,387 168,357 Q168,280 102,254 L102,252 Q168,226 168,149 Q168,119 159,61 Q149,-11 149,-40 Q149,-85 166.5,-106 Q184,-127 220,-127 Q232,-127 259,-122 L263,-139 L260,-142 Q242,-147 223,-147 Q129,-147 129,-40 Q129,-8 139,64 Q148,122 148,149 Q148,192 125.5,215 Q103,238 54,244 L54,262 Q103,268 125.5,291 Q148,314 148,357 Q148,384 139,442 Q129,514 129,546 Q129,653 223,653"/> 
            <glyph glyph-name="|" unicode="&#x7C;" horiz-adv-x="170" d=" M170,789 L170,-265 L153,-265 L150,-261 L150,789 L168,791"/> 
            <glyph glyph-name="}" unicode="&#x7D;" horiz-adv-x="227" d=" M39,-147 L21,-142 L18,-139 L22,-122 Q49,-127 61,-127 Q97,-127 114.5,-106 Q132,-85 132,-40 Q132,-11 122,61 Q113,119 113,149 Q113,227 179,252 L179,254 Q113,280 113,357 Q113,387 122,445 Q132,517 132,546 Q132,591 114.5,612 Q97,633 61,633 Q49,633 22,628 L18,645 L21,648 Q39,653 58,653 Q152,653 152,546 Q152,514 142,442 Q133,384 133,357 Q133,314 155.5,291 Q178,268 227,262 L227,244 Q178,238 155.5,215 Q133,192 133,149 Q133,122 142,64 Q152,-8 152,-40 Q152,-147 58,-147"/> 
            <glyph glyph-name="~" unicode="&#x7E;" horiz-adv-x="409" d=" M140,279 Q122,266 103,250 L84,233 L78,233 L71,242 L71,247 L135,300 L141,303 Q157,301 189,292.5 Q221,284 234,281 Q313,258 333,258 Q341,258 351,265.5 Q361,273 375,285.5 Q389,298 396,304 L402,304 L409,294 L409,290 L344,236 L338,234 Q315,236 237,258 Q164,279 147,279"/> 
            <glyph glyph-name="¡" unicode="&#xA1;" horiz-adv-x="150" d=" M103,-194 L111,259 L127,259 L131,254 L123,-194 L120,-197 L106,-197 M121,419 Q110,430 110,439 Q110,448 115.5,453.5 Q121,459 130,459 Q139,459 144.5,453.5 Q150,448 150,439 Q150,430 144.5,424.5 Q139,419 130,419"/> 
            <glyph glyph-name="¢" unicode="&#xA2;" horiz-adv-x="361" d=" M361,102 L359,84 Q333,65 298,53 Q263,41 227,41 L214,41 L200,-114 L185,-114 L181,-110 L194,44 Q128,57 89.5,117 Q51,177 51,268 Q51,339 73,392 Q95,445 135,474 Q175,503 228,503 L233,503 L246,650 L262,650 L266,645 L254,501 Q282,497 309.5,486.5 Q337,476 357,461 L350,444 L344,444 Q326,457 301.5,467 Q277,477 252,481 L216,61 L228,61 Q261,61 295,72.5 Q329,84 355,104 M71,186 Q138,77 196,64 L231,483 L228,483 Q157,483 114,424.5 Q71,366 71,268"/> 
            <glyph glyph-name="£" unicode="&#xA3;" horiz-adv-x="346" d=" M346,16 L343,0 L36,0 L32,4 L35,18 Q69,22 87,51.5 Q105,81 105,130 L105,308 L38,308 L34,312 L37,328 L105,328 L105,447 Q105,517 136.5,554 Q168,591 229,591 Q274,591 328,572 L326,553 L323,551 Q282,571 232,571 Q125,571 125,447 L125,328 L265,328 L268,324 L265,308 L125,308 L125,130 Q125,56 85,22 L85,20 L273,20 L342,21"/> 
            <glyph glyph-name="¤" unicode="&#xA4;" horiz-adv-x="371" d=" M370,520 L369,515 L305,451 Q337,414 337,367 Q337,344 328.5,322.5 Q320,301 305,284 L371,218 L370,213 L360,203 L355,204 L290,269 Q273,254 251.5,245.5 Q230,237 207,237 Q184,237 162.5,245.5 Q141,254 124,269 L58,203 L53,204 L43,214 L44,219 L109,284 Q94,301 85.5,322.5 Q77,344 77,367 Q77,414 109,451 L43,517 L44,522 L53,531 L58,531 L124,465 Q141,480 162.5,488.5 Q184,497 207,497 Q252,497 290,466 L355,531 L360,530 M162,477 Q97,412 97,367 Q97,322 129.5,289.5 Q162,257 207,257 Q252,257 284.5,289.5 Q317,322 317,367 Q317,412 284.5,444.5 Q252,477 207,477"/> 
            <glyph glyph-name="¥" unicode="&#xA5;" horiz-adv-x="418" d=" M415,150 L418,147 L416,130 L226,130 L226,0 L206,0 L206,130 L19,130 L16,133 L18,150 L206,150 L206,187 L166,260 L19,260 L16,263 L18,280 L155,280 L40,491 L65,491 L74,470 L214,217 L218,217 L370,470 L380,491 L405,491 L281,280 L415,280 L418,277 L416,260 L269,260 L226,186 L226,150"/> 
            <glyph glyph-name="¦" unicode="&#xA6;" horiz-adv-x="170" d=" M170,789 L170,368 L153,366 L150,369 L150,789 L168,791 M170,155 L170,-265 L153,-265 L150,-261 L150,157 L167,160"/> 
            <glyph glyph-name="§" unicode="&#xA7;" horiz-adv-x="352" d=" M352,194 Q305,131 260,107 Q302,62 302,16 Q302,-16 283.5,-44 Q265,-72 232.5,-88.5 Q200,-105 159,-105 Q129,-105 98.5,-95.5 Q68,-86 45,-70 L48,-53 L53,-50 Q100,-85 159,-85 Q215,-85 248.5,-55 Q282,-25 282,15 Q282,51 255,81.5 Q228,112 176,153 Q118,199 89,232.5 Q60,266 60,309 Q60,346 84.5,378.5 Q109,411 152,435 Q110,479 110,524 Q110,555 127.5,582 Q145,609 176,624.5 Q207,640 246,640 Q290,640 338,620 L333,601 L327,600 Q286,620 244,620 Q209,620 183,606 Q157,592 143.5,569.5 Q130,547 130,523 Q130,489 156,460.5 Q182,432 233,392 Q291,347 321.5,311.5 Q352,276 352,231 M289,143 Q332,199 332,230 Q332,269 304.5,300.5 Q277,332 223,374 Q188,400 166,421 Q125,399 102.5,369 Q80,339 80,308 Q80,272 106.5,242.5 Q133,213 187,171 Q234,134 246,122"/> 
            <glyph glyph-name="¨" unicode="&#xA8;" horiz-adv-x="284" d=" M133,615 Q144,604 144,595 Q144,586 138.5,580.5 Q133,575 124,575 Q115,575 109.5,580.5 Q104,586 104,595 Q104,604 109.5,609.5 Q115,615 124,615 M273,615 Q284,604 284,595 Q284,586 278.5,580.5 Q273,575 264,575 Q255,575 249.5,580.5 Q244,586 244,595 Q244,604 249.5,609.5 Q255,615 264,615"/> 
            <glyph glyph-name="©" unicode="&#xA9;" horiz-adv-x="632" d=" M427,598 Q559,522 595.5,453 Q632,384 632,293 Q632,202 595.5,133 Q559,64 493,26 Q427,-12 340,-12 Q253,-12 187,26 Q121,64 85,133 Q49,202 49,293 Q49,384 85,453 Q121,522 187,560 Q253,598 340,598 M259,578 Q136,507 102.5,442.5 Q69,378 69,293 Q69,208 102.5,143.5 Q136,79 197.5,43.5 Q259,8 340,8 Q421,8 482.5,43.5 Q544,79 578,143.5 Q612,208 612,293 Q612,378 578,442.5 Q544,507 482.5,542.5 Q421,578 340,578 M402,465 L447,436 L442,418 L437,418 Q401,445 349,445 Q286,445 252.5,406.5 Q219,368 219,295 Q219,222 251.5,183.5 Q284,145 344,145 Q369,145 395.5,153.5 Q422,162 443,177 L447,176 L445,157 Q393,125 343,125 Q273,125 236,169 Q199,213 199,295 Q199,377 237.5,421 Q276,465 349,465"/> 
            <glyph glyph-name="ª" unicode="&#xAA;" horiz-adv-x="277" d=" M188,644 Q230,605 230,570 Q230,543 227,486 L224,401 Q224,366 247,366 Q261,366 273,375 L277,373 L274,357 Q261,348 242,348 Q223,348 214,359 Q205,370 204,396 L202,396 Q183,374 160.5,361 Q138,348 117,347 Q80,347 60,366 Q40,385 40,420 Q40,444 54.5,460.5 Q69,477 96,483 L208,507 L210,566 Q210,595 194,610 Q178,625 147,625 Q105,625 56,585 L52,586 L48,601 Q99,644 149,644 M103,467 Q61,458 61,421 Q61,395 76,380 Q91,365 119,365 Q139,365 162,379.5 Q185,394 204,419 L207,491"/> 
            <glyph glyph-name="«" unicode="&#xAB;" horiz-adv-x="383" d=" M216,217 L216,228 L371,396 L383,387 L383,381 L238,223 L383,65 L383,59 L371,50 M70,217 L70,228 L225,396 L237,387 L237,381 L92,223 L237,65 L237,59 L225,50"/> 
            <glyph glyph-name="¬" unicode="&#xAC;" horiz-adv-x="416" d=" M416,274 L416,71 L399,69 L396,72 L396,260 L38,260 L35,263 L37,280 L410,280"/> 
            <glyph glyph-name="­" unicode="&#xAD;" horiz-adv-x="280" d=" M280,277 L280,261 L35,228 L31,232 L31,248 L276,281"/> 
            <glyph glyph-name="®" unicode="&#xAE;" horiz-adv-x="393" d=" M297,702 Q393,606 393,526 Q393,446 345,397.5 Q297,349 217,349 Q137,349 88.5,397.5 Q40,446 40,526 Q40,606 88.5,654 Q137,702 217,702 M288,368 Q374,455 374,526 Q374,597 331,640 Q288,683 217,683 Q146,683 102.5,640 Q59,597 59,526 Q59,455 102.5,411.5 Q146,368 217,368 M278,554 Q257,522 237,514 Q263,473 290,441 L290,438 Q287,437 279.5,436 Q272,435 269,434 L266,436 Q243,466 215,510 L180,510 L180,497 L181,437 L159,437 L159,629 L218,629 Q278,629 278,574 M180,530 L220,528 Q256,540 256,572 Q256,590 245,600 Q234,610 213,611 L181,610"/> 
            <glyph glyph-name="¯" unicode="&#xAF;" horiz-adv-x="341" d=" M341,604 L339,587 L52,587 L49,590 L51,607 L338,607"/> 
            <glyph glyph-name="°" unicode="&#xB0;" horiz-adv-x="268" d=" M197,642 Q268,572 268,522 Q268,472 232.5,437.5 Q197,403 147,403 Q96,403 60.5,437.5 Q25,472 25,522 Q25,572 60.5,607 Q96,642 147,642 M106,622 Q45,562 45,522 Q45,482 75.5,452.5 Q106,423 147,423 Q188,423 218,452.5 Q248,482 248,522 Q248,562 218,592 Q188,622 147,622"/> 
            <glyph glyph-name="±" unicode="&#xB1;" horiz-adv-x="441" d=" M250,468 L250,280 L438,280 L441,277 L439,260 L250,260 L250,71 L233,69 L230,72 L230,260 L42,260 L39,263 L41,280 L230,280 L230,469 L247,471 M441,65488 L439,65471 L42,65471 L39,65474 L41,65491 L438,65491"/> 
            <glyph glyph-name="²" unicode="&#xB2;" horiz-adv-x="312" d=" M208,702 Q258,660 258,627 Q258,598 237,563.5 Q216,529 166,468 L72,352 L74,350 L249,350 L310,351 L312,347 L309,330 L244,331 L75,331 L46,330 L44,332 L44,347 L151,478 Q198,536 217.5,567 Q237,598 237,624 Q237,649 218,666 Q199,683 166,683 Q136,683 108.5,668 Q81,653 59,626 L56,626 L52,643 Q74,671 104,686.5 Q134,702 168,702"/> 
            <glyph glyph-name="³" unicode="&#xB3;" horiz-adv-x="239" d=" M170,703 Q220,661 220,627 Q220,599 201,573 Q182,547 150,533 L150,531 Q193,522 216,498 Q239,474 239,438 Q239,390 200,359.5 Q161,329 99,329 Q68,329 39,335 L37,351 L39,353 Q71,348 99,348 Q153,348 186,372.5 Q219,397 219,438 Q219,475 191,496.5 Q163,518 110,520 L77,520 L75,522 L76,537 L105,537 Q125,537 147,548.5 Q169,560 184,580 Q199,600 199,624 Q199,651 179.5,667.5 Q160,684 128,684 Q86,684 42,645 L39,645 L35,662 Q80,703 130,703"/> 
            <glyph glyph-name="´" unicode="&#xB4;" horiz-adv-x="276" d=" M266,668 L276,658 L275,653 Q206,584 131,518 L126,519 L115,532 Q184,590 261,669"/> 
            <glyph glyph-name="µ" unicode="&#xB5;" horiz-adv-x="490" d=" M490,29 L486,11 Q466,-3 441,-3 Q413,-3 400,17 Q387,37 387,79 L383,79 Q306,-4 223,-4 Q153,-4 123,49 L125,-185 L105,-185 L105,449 L125,453 L125,133 Q125,77 151,46.5 Q177,16 226,16 Q266,16 307,39.5 Q348,63 387,108 L387,449 L407,453 L407,79 Q407,47 415.5,32 Q424,17 443,17 Q466,17 484,32"/> 
            <glyph glyph-name="¶" unicode="&#xB6;" horiz-adv-x="411" d=" M411,633 L408,617 L327,617 L327,122 Q327,66 297,20 Q267,-26 203,-68 L193,-57 L193,-51 Q251,-13 279,28.5 Q307,70 307,118 L307,617 L236,617 Q157,613 114.5,571 Q72,529 72,455 Q72,379 117.5,331.5 Q163,284 249,269 L245,249 Q152,264 102,316 Q52,368 52,455 Q52,542 101.5,589.5 Q151,637 243,637 L407,637"/> 
            <glyph glyph-name="·" unicode="&#xB7;" horiz-adv-x="135" d=" M124,258 Q135,247 135,238 Q135,229 129.5,223.5 Q124,218 115,218 Q106,218 100.5,223.5 Q95,229 95,238 Q95,247 100.5,252.5 Q106,258 115,258"/> 
            <glyph glyph-name="¸" unicode="&#xB8;" horiz-adv-x="253" d=" M189,-55 L220,-75 Q237,-86 245,-97.5 Q253,-109 253,-125 Q253,-149 235.5,-163.5 Q218,-178 193,-178 Q156,-178 134,-145 L140,-127 L144,-127 Q154,-143 165,-150.5 Q176,-158 193,-158 Q211,-158 222,-149.5 Q233,-141 233,-125 Q233,-114 227.5,-107.5 Q222,-101 209,-92 L165,-64 L190,11 L210,11"/> 
            <glyph glyph-name="¹" unicode="&#xB9;" horiz-adv-x="138" d=" M138,701 L138,331 L118,331 L118,679 L20,652 L16,654 L16,670 L135,705"/> 
            <glyph glyph-name="º" unicode="&#xBA;" horiz-adv-x="290" d=" M225,644 Q290,566 290,498 Q290,427 256,386.5 Q222,346 162,346 Q104,346 71.5,385 Q39,424 39,492 Q39,563 73,603.5 Q107,644 167,644 M116,625 Q60,556 60,493 Q60,432 87,398.5 Q114,365 162,365 Q212,365 240.5,399.5 Q269,434 269,497 Q269,557 241.5,591 Q214,625 166,625"/> 
            <glyph glyph-name="»" unicode="&#xBB;" horiz-adv-x="290" d=" M290,229 L290,218 L135,50 L123,59 L123,65 L268,223 L123,381 L123,387 L135,396 M400,229 L400,218 L245,50 L233,59 L233,65 L378,223 L233,381 L233,387 L245,396"/> 
            <glyph glyph-name="¼" unicode="&#xBC;" horiz-adv-x="581" d=" M138,638 L138,268 L118,268 L118,616 L20,589 L16,591 L16,607 L135,642 M490,664 L493,656 L8,-90 L-1,-86 L-5,-77 L480,669 M581,134 L578,118 L528,119 L509,119 L510,2 L508,0 L492,-2 L490,0 L490,119 L350,119 L319,118 L316,121 L316,136 L490,369 L509,369 L509,137 L578,137 M490,137 L490,337 L487,337 L338,137"/> 
            <glyph glyph-name="½" unicode="&#xBD;" horiz-adv-x="598" d=" M138,638 L138,268 L118,268 L118,616 L20,589 L16,591 L16,607 L135,642 M490,664 L493,656 L8,-90 L-1,-86 L-5,-77 L480,669 M494,371 Q544,329 544,296 Q544,267 523,232.5 Q502,198 452,137 L358,21 L360,19 L535,19 L596,20 L598,16 L595,-1 L530,0 L361,0 L332,-1 L330,1 L330,16 L437,147 Q484,205 503.5,236 Q523,267 523,293 Q523,318 504,335 Q485,352 452,352 Q422,352 394.5,337 Q367,322 345,295 L342,295 L338,312 Q360,340 390,355.5 Q420,371 454,371"/> 
            <glyph glyph-name="¾" unicode="&#xBE;" horiz-adv-x="634" d=" M170,640 Q220,598 220,564 Q220,536 201,510 Q182,484 150,470 L150,468 Q193,459 216,435 Q239,411 239,375 Q239,327 200,296.5 Q161,266 99,266 Q68,266 39,272 L37,288 L39,290 Q71,285 99,285 Q153,285 186,309.5 Q219,334 219,375 Q219,412 191,433.5 Q163,455 110,457 L77,457 L75,459 L76,474 L105,474 Q125,474 147,485.5 Q169,497 184,517 Q199,537 199,561 Q199,588 179.5,604.5 Q160,621 128,621 Q86,621 42,582 L39,582 L35,599 Q80,640 130,640 M543,664 L546,656 L61,-90 L52,-86 L48,-77 L533,669 M634,134 L631,118 L581,119 L562,119 L563,2 L561,0 L545,-2 L543,0 L543,119 L403,119 L372,118 L369,121 L369,136 L543,369 L562,369 L562,137 L631,137 M543,137 L543,337 L540,337 L391,137"/> 
            <glyph glyph-name="¿" unicode="&#xBF;" horiz-adv-x="250" d=" M129,-188 Q13,-108 13,-43 Q13,-6 33,27 Q53,60 90,85 L186,151 L187,154 L182,262 L199,263 L202,259 L208,149 L203,140 L102,71 Q69,50 51,21 Q33,-8 33,-41 Q33,-100 89,-135.5 Q145,-171 248,-177 L250,-180 L244,-194 L238,-197 M181,419 Q170,430 170,439 Q170,448 175.5,453.5 Q181,459 190,459 Q199,459 204.5,453.5 Q210,448 210,439 Q210,430 204.5,424.5 Q199,419 190,419"/> 
            <glyph glyph-name="À" unicode="&#xC0;" horiz-adv-x="526" d=" M526,0 L503,0 L490,43 L427,213 L125,213 L57,43 L43,0 L19,0 L273,637 L293,637 M284,603 L280,603 L133,233 L420,233 M278,786 L369,742 L362,727 L357,724 Q250,779 183,817 L181,822 L188,834 L193,836"/> 
            <glyph glyph-name="Á" unicode="&#xC1;" horiz-adv-x="526" d=" M526,0 L503,0 L490,43 L427,213 L125,213 L57,43 L43,0 L19,0 L273,637 L293,637 M284,603 L280,603 L133,233 L420,233 M386,834 L393,822 L391,817 Q324,779 217,724 L212,727 L205,742 Q296,786 381,836"/> 
            <glyph glyph-name="Â" unicode="&#xC2;" horiz-adv-x="526" d=" M526,0 L503,0 L490,43 L427,213 L125,213 L57,43 L43,0 L19,0 L273,637 L293,637 M284,603 L280,603 L133,233 L420,233 M170,752 Q217,785 268,828 L284,828 Q350,776 384,752 L377,738 L372,738 Q326,770 277,808 Q228,770 182,738 L177,738"/> 
            <glyph glyph-name="Ã" unicode="&#xC3;" horiz-adv-x="526" d=" M526,0 L503,0 L490,43 L427,213 L125,213 L57,43 L43,0 L19,0 L273,637 L293,637 M284,603 L280,603 L133,233 L420,233 M416,805 L416,801 L364,754 L358,752 Q338,754 277,772 Q271,774 242,782 Q213,790 202,790 Q197,790 189,784 Q181,778 172,768 L151,749 L147,749 L138,760 L138,764 L190,811 L196,813 Q216,811 277,793 Q283,791 312,783 Q341,775 352,775 Q357,775 365,781 Q373,787 382,797 L403,816 L407,816"/> 
            <glyph glyph-name="Ä" unicode="&#xC4;" horiz-adv-x="526" d=" M526,0 L503,0 L490,43 L427,213 L125,213 L57,43 L43,0 L19,0 L273,637 L293,637 M284,603 L280,603 L133,233 L420,233 M216,800 Q227,789 227,780 Q227,771 221.5,765.5 Q216,760 207,760 Q198,760 192.5,765.5 Q187,771 187,780 Q187,789 192.5,794.5 Q198,800 207,800 M356,800 Q367,789 367,780 Q367,771 361.5,765.5 Q356,760 347,760 Q338,760 332.5,765.5 Q327,771 327,780 Q327,789 332.5,794.5 Q338,800 347,800"/> 
            <glyph glyph-name="Å" unicode="&#xC5;" horiz-adv-x="526" d=" M526,0 L503,0 L490,43 L427,213 L125,213 L57,43 L43,0 L19,0 L273,637 L293,637 M284,603 L280,603 L133,233 L420,233 M308,853 Q346,811 346,783 Q346,752 324.5,733 Q303,714 275,714 Q247,714 226,733.5 Q205,753 205,784 Q205,814 224.5,833.5 Q244,853 275,853 M252,833 Q225,806 225,784 Q225,761 239.5,747.5 Q254,734 275,734 Q296,734 311,747 Q326,760 326,783 Q326,804 312.5,818.5 Q299,833 275,833"/> 
            <glyph glyph-name="Æ" unicode="&#xC6;" horiz-adv-x="766" d=" M766,16 L762,0 L458,0 L453,43 L411,290 L150,247 L33,43 L12,0 L-15,0 L353,637 L654,637 L657,633 L652,617 L377,617 L428,313 L664,352 L667,349 L664,332 L431,294 L477,20 L764,20 M408,310 L358,602 L355,602 L164,270"/> 
            <glyph glyph-name="Ç" unicode="&#xC7;" horiz-adv-x="491" d=" M360,641 Q452,610 489,582 L482,565 L475,565 Q441,592 399.5,606.5 Q358,621 313,621 Q194,621 131,542 Q68,463 68,316 Q68,171 128,93 Q188,15 301,15 Q349,15 396.5,32.5 Q444,50 484,82 L491,80 L489,62 Q447,30 398,12.5 Q349,-5 302,-5 Q179,-5 113.5,78.5 Q48,162 48,317 Q48,473 116.5,557 Q185,641 313,641 M301,-55 L332,-75 Q349,-86 357,-97.5 Q365,-109 365,-125 Q365,-149 347.5,-163.5 Q330,-178 305,-178 Q268,-178 246,-145 L252,-127 L256,-127 Q266,-143 277,-150.5 Q288,-158 305,-158 Q323,-158 334,-149.5 Q345,-141 345,-125 Q345,-114 339.5,-107.5 Q334,-101 321,-92 L277,-64 L302,11 L322,11"/> 
            <glyph glyph-name="È" unicode="&#xC8;" horiz-adv-x="425" d=" M425,16 L421,0 L110,0 L110,637 L418,637 L421,633 L417,617 L130,617 L130,340 L368,340 L371,336 L367,320 L130,320 L130,20 L422,20 M267,786 L358,742 L351,727 L346,724 Q239,779 172,817 L170,822 L177,834 L182,836"/> 
            <glyph glyph-name="É" unicode="&#xC9;" horiz-adv-x="425" d=" M425,16 L421,0 L110,0 L110,637 L418,637 L421,633 L417,617 L130,617 L130,340 L368,340 L371,336 L367,320 L130,320 L130,20 L422,20 M375,834 L382,822 L380,817 Q313,779 206,724 L201,727 L194,742 Q285,786 370,836"/> 
            <glyph glyph-name="Ê" unicode="&#xCA;" horiz-adv-x="425" d=" M425,16 L421,0 L110,0 L110,637 L418,637 L421,633 L417,617 L130,617 L130,340 L368,340 L371,336 L367,320 L130,320 L130,20 L422,20 M159,752 Q206,785 257,828 L273,828 Q339,776 373,752 L366,738 L361,738 Q315,770 266,808 Q217,770 171,738 L166,738"/> 
            <glyph glyph-name="Ë" unicode="&#xCB;" horiz-adv-x="425" d=" M425,16 L421,0 L110,0 L110,637 L418,637 L421,633 L417,617 L130,617 L130,340 L368,340 L371,336 L367,320 L130,320 L130,20 L422,20 M205,800 Q216,789 216,780 Q216,771 210.5,765.5 Q205,760 196,760 Q187,760 181.5,765.5 Q176,771 176,780 Q176,789 181.5,794.5 Q187,800 196,800 M345,800 Q356,789 356,780 Q356,771 350.5,765.5 Q345,760 336,760 Q327,760 321.5,765.5 Q316,771 316,780 Q316,789 321.5,794.5 Q327,800 336,800"/> 
            <glyph glyph-name="Ì" unicode="&#xCC;" horiz-adv-x="212" d=" M130,0 L110,0 L110,637 L130,637 M121,786 L212,742 L205,727 L200,724 Q93,779 26,817 L24,822 L31,834 L36,836"/> 
            <glyph glyph-name="Í" unicode="&#xCD;" horiz-adv-x="236" d=" M130,0 L110,0 L110,637 L130,637 M229,834 L236,822 L234,817 Q167,779 60,724 L55,727 L48,742 Q139,786 224,836"/> 
            <glyph glyph-name="Î" unicode="&#xCE;" horiz-adv-x="227" d=" M130,0 L110,0 L110,637 L130,637 M13,752 Q60,785 111,828 L127,828 Q193,776 227,752 L220,738 L215,738 Q169,770 120,808 Q71,770 25,738 L20,738"/> 
            <glyph glyph-name="Ï" unicode="&#xCF;" horiz-adv-x="190" d=" M130,0 L110,0 L110,637 L130,637 M79,800 Q90,789 90,780 Q90,771 84.5,765.5 Q79,760 70,760 Q61,760 55.5,765.5 Q50,771 50,780 Q50,789 55.5,794.5 Q61,800 70,800 M179,800 Q190,789 190,780 Q190,771 184.5,765.5 Q179,760 170,760 Q161,760 155.5,765.5 Q150,771 150,780 Q150,789 155.5,794.5 Q161,800 170,800"/> 
            <glyph glyph-name="Ð" unicode="&#xD0;" horiz-adv-x="606" d=" M462,642 Q606,485 606,339 Q606,173 531.5,84 Q457,-5 318,-5 Q284,-5 228,-3.5 Q172,-2 127,0 L127,637 L328,642 M447,15 Q586,183 586,339 Q586,476 519,549 Q452,622 328,622 Q297,622 243.5,620.5 Q190,619 147,617 L147,20 Q189,18 238.5,16.5 Q288,15 318,15 M321,336 L320,319 L10,319 L8,322 L9,339 L319,339"/> 
            <glyph glyph-name="Ñ" unicode="&#xD1;" horiz-adv-x="560" d=" M559,176 L558,0 L539,0 L135,595 L131,595 L130,199 L130,0 L110,0 L110,190 L111,637 L130,637 L534,42 L538,42 L540,636 L560,638 M470,805 L470,801 L418,754 L412,752 Q392,754 331,772 Q325,774 296,782 Q267,790 256,790 Q251,790 243,784 Q235,778 226,768 L205,749 L201,749 L192,760 L192,764 L244,811 L250,813 Q270,811 331,793 Q337,791 366,783 Q395,775 406,775 Q411,775 419,781 Q427,787 436,797 L457,816 L461,816"/> 
            <glyph glyph-name="Ò" unicode="&#xD2;" horiz-adv-x="579" d=" M444,642 Q579,480 579,329 Q579,168 509,81.5 Q439,-5 308,-5 Q183,-5 115.5,78.5 Q48,162 48,317 Q48,474 118,558 Q188,642 318,642 M197,622 Q68,464 68,317 Q68,172 130,93.5 Q192,15 308,15 Q429,15 494,96.5 Q559,178 559,329 Q559,470 496.5,546 Q434,622 318,622 M315,786 L406,742 L399,727 L394,724 Q287,779 220,817 L218,822 L225,834 L230,836"/> 
            <glyph glyph-name="Ó" unicode="&#xD3;" horiz-adv-x="579" d=" M444,642 Q579,480 579,329 Q579,168 509,81.5 Q439,-5 308,-5 Q183,-5 115.5,78.5 Q48,162 48,317 Q48,474 118,558 Q188,642 318,642 M197,622 Q68,464 68,317 Q68,172 130,93.5 Q192,15 308,15 Q429,15 494,96.5 Q559,178 559,329 Q559,470 496.5,546 Q434,622 318,622 M423,834 L430,822 L428,817 Q361,779 254,724 L249,727 L242,742 Q333,786 418,836"/> 
            <glyph glyph-name="Ô" unicode="&#xD4;" horiz-adv-x="579" d=" M444,642 Q579,480 579,329 Q579,168 509,81.5 Q439,-5 308,-5 Q183,-5 115.5,78.5 Q48,162 48,317 Q48,474 118,558 Q188,642 318,642 M197,622 Q68,464 68,317 Q68,172 130,93.5 Q192,15 308,15 Q429,15 494,96.5 Q559,178 559,329 Q559,470 496.5,546 Q434,622 318,622 M207,752 Q254,785 305,828 L321,828 Q387,776 421,752 L414,738 L409,738 Q363,770 314,808 Q265,770 219,738 L214,738"/> 
            <glyph glyph-name="Õ" unicode="&#xD5;" horiz-adv-x="579" d=" M444,642 Q579,480 579,329 Q579,168 509,81.5 Q439,-5 308,-5 Q183,-5 115.5,78.5 Q48,162 48,317 Q48,474 118,558 Q188,642 318,642 M197,622 Q68,464 68,317 Q68,172 130,93.5 Q192,15 308,15 Q429,15 494,96.5 Q559,178 559,329 Q559,470 496.5,546 Q434,622 318,622 M453,805 L453,801 L401,754 L395,752 Q375,754 314,772 Q308,774 279,782 Q250,790 239,790 Q234,790 226,784 Q218,778 209,768 L188,749 L184,749 L175,760 L175,764 L227,811 L233,813 Q253,811 314,793 Q320,791 349,783 Q378,775 389,775 Q394,775 402,781 Q410,787 419,797 L440,816 L444,816"/> 
            <glyph glyph-name="Ö" unicode="&#xD6;" horiz-adv-x="579" d=" M444,642 Q579,480 579,329 Q579,168 509,81.5 Q439,-5 308,-5 Q183,-5 115.5,78.5 Q48,162 48,317 Q48,474 118,558 Q188,642 318,642 M197,622 Q68,464 68,317 Q68,172 130,93.5 Q192,15 308,15 Q429,15 494,96.5 Q559,178 559,329 Q559,470 496.5,546 Q434,622 318,622 M253,800 Q264,789 264,780 Q264,771 258.5,765.5 Q253,760 244,760 Q235,760 229.5,765.5 Q224,771 224,780 Q224,789 229.5,794.5 Q235,800 244,800 M393,800 Q404,789 404,780 Q404,771 398.5,765.5 Q393,760 384,760 Q375,760 369.5,765.5 Q364,771 364,780 Q364,789 369.5,794.5 Q375,800 384,800"/> 
            <glyph glyph-name="×" unicode="&#xD7;" horiz-adv-x="387" d=" M387,407 L387,403 L254,270 L387,137 L387,133 L374,122 L240,256 L106,122 L93,133 L93,137 L226,270 L93,403 L93,407 L106,418 L240,284 L374,418"/> 
            <glyph glyph-name="Ø" unicode="&#xD8;" horiz-adv-x="579" d=" M515,575 Q579,432 579,329 Q579,168 509,81.5 Q439,-5 308,-5 Q236,-5 182,23 L131,-87 L115,-84 L113,-80 L165,33 Q108,71 78,143 Q48,215 48,317 Q48,474 118,558 Q188,642 318,642 Q384,642 435,619 L477,709 L493,706 L495,701 L453,610 M68,222 Q122,87 174,52 L427,600 Q382,622 318,622 Q197,622 132.5,543 Q68,464 68,317 M429,15 Q559,178 559,329 Q559,425 529.5,491.5 Q500,558 444,591 L191,42 Q241,15 308,15"/> 
            <glyph glyph-name="Ù" unicode="&#xD9;" horiz-adv-x="529" d=" M526,229 Q529,119 471,57.5 Q413,-4 306,-4 Q199,-4 142.5,56 Q86,116 86,229 L86,637 L106,637 L106,229 Q105,126 157,71 Q209,16 306,16 Q403,16 454.5,71 Q506,126 506,229 L506,637 L526,637 M311,786 L402,742 L395,727 L390,724 Q283,779 216,817 L214,822 L221,834 L226,836"/> 
            <glyph glyph-name="Ú" unicode="&#xDA;" horiz-adv-x="529" d=" M526,229 Q529,119 471,57.5 Q413,-4 306,-4 Q199,-4 142.5,56 Q86,116 86,229 L86,637 L106,637 L106,229 Q105,126 157,71 Q209,16 306,16 Q403,16 454.5,71 Q506,126 506,229 L506,637 L526,637 M419,834 L426,822 L424,817 Q357,779 250,724 L245,727 L238,742 Q329,786 414,836"/> 
            <glyph glyph-name="Û" unicode="&#xDB;" horiz-adv-x="529" d=" M526,229 Q529,119 471,57.5 Q413,-4 306,-4 Q199,-4 142.5,56 Q86,116 86,229 L86,637 L106,637 L106,229 Q105,126 157,71 Q209,16 306,16 Q403,16 454.5,71 Q506,126 506,229 L506,637 L526,637 M203,752 Q250,785 301,828 L317,828 Q383,776 417,752 L410,738 L405,738 Q359,770 310,808 Q261,770 215,738 L210,738"/> 
            <glyph glyph-name="Ü" unicode="&#xDC;" horiz-adv-x="529" d=" M526,229 Q529,119 471,57.5 Q413,-4 306,-4 Q199,-4 142.5,56 Q86,116 86,229 L86,637 L106,637 L106,229 Q105,126 157,71 Q209,16 306,16 Q403,16 454.5,71 Q506,126 506,229 L506,637 L526,637 M249,800 Q260,789 260,780 Q260,771 254.5,765.5 Q249,760 240,760 Q231,760 225.5,765.5 Q220,771 220,780 Q220,789 225.5,794.5 Q231,800 240,800 M389,800 Q400,789 400,780 Q400,771 394.5,765.5 Q389,760 380,760 Q371,760 365.5,765.5 Q360,771 360,780 Q360,789 365.5,794.5 Q371,800 380,800"/> 
            <glyph glyph-name="Ý" unicode="&#xDD;" horiz-adv-x="466" d=" M248,245 L248,0 L228,0 L228,246 L26,637 L52,637 L63,611 L236,277 L241,277 L429,611 L440,637 L466,637 M348,834 L355,822 L353,817 Q286,779 179,724 L174,727 L167,742 Q258,786 343,836"/> 
            <glyph glyph-name="Þ" unicode="&#xDE;" horiz-adv-x="432" d=" M338,516 Q432,423 432,337 Q432,235 377,180.5 Q322,126 219,126 L130,126 L130,0 L110,0 L110,637 L130,637 L130,514 L251,516 M328,156 Q412,254 412,337 Q412,411 372,452 Q332,493 258,496 L130,495 L130,146 L249,146"/> 
            <glyph glyph-name="ß" unicode="&#xDF;" horiz-adv-x="497" d=" M285,337 Q313,295 333,281 Q353,267 389,245 Q425,224 446,208.5 Q467,193 482,170.5 Q497,148 497,118 Q497,85 479,56.5 Q461,28 428.5,11.5 Q396,-5 355,-5 Q324,-5 293.5,4.5 Q263,14 240,30 L243,47 L248,50 Q295,15 354,15 Q410,15 443.5,45 Q477,75 477,116 Q477,152 452.5,175 Q428,198 378,228 Q341,249 318.5,266 Q296,283 280.5,307 Q265,331 265,364 Q265,400 281.5,423.5 Q298,447 331,477 Q364,507 380,530 Q396,553 396,588 Q396,634 365.5,659 Q335,684 282,684 Q213,684 175,641.5 Q137,599 137,520 L137,0 L117,0 L117,432 L50,432 L46,436 L49,452 L117,452 L117,520 Q117,608 159.5,656 Q202,704 280,704 Q343,704 379.5,674 Q416,644 416,590 Q416,548 398,521.5 Q380,495 345,464 Q314,436 299.5,415.5 Q285,395 285,365"/> 
            <glyph glyph-name="à" unicode="&#xE0;" horiz-adv-x="407" d=" M272,457 Q333,398 333,344 Q333,311 328,211 L323,73 Q323,44 331.5,30.5 Q340,17 359,17 Q369,17 380.5,21 Q392,25 401,32 L407,29 L403,11 Q383,-3 358,-3 Q330,-3 317,14.5 Q304,32 303,73 L300,73 Q270,38 236,17 Q202,-4 169,-5 Q115,-5 85.5,24.5 Q56,54 56,107 Q56,143 77.5,168 Q99,193 138,202 L310,242 L313,340 Q313,387 287.5,412 Q262,437 214,437 Q184,437 148.5,420 Q113,403 77,372 L71,374 L66,389 Q103,422 141.5,439.5 Q180,457 215,457 M143,182 Q111,174 93.5,155 Q76,136 76,107 Q76,64 100.5,39.5 Q125,15 168,15 Q201,15 236.5,39 Q272,63 304,106 L309,221 M223,590 L292,532 L281,519 L276,518 Q201,584 132,653 L131,658 L141,668 L146,669"/> 
            <glyph glyph-name="á" unicode="&#xE1;" horiz-adv-x="407" d=" M272,457 Q333,398 333,344 Q333,311 328,211 L323,73 Q323,44 331.5,30.5 Q340,17 359,17 Q369,17 380.5,21 Q392,25 401,32 L407,29 L403,11 Q383,-3 358,-3 Q330,-3 317,14.5 Q304,32 303,73 L300,73 Q270,38 236,17 Q202,-4 169,-5 Q115,-5 85.5,24.5 Q56,54 56,107 Q56,143 77.5,168 Q99,193 138,202 L310,242 L313,340 Q313,387 287.5,412 Q262,437 214,437 Q184,437 148.5,420 Q113,403 77,372 L71,374 L66,389 Q103,422 141.5,439.5 Q180,457 215,457 M143,182 Q111,174 93.5,155 Q76,136 76,107 Q76,64 100.5,39.5 Q125,15 168,15 Q201,15 236.5,39 Q272,63 304,106 L309,221 M313,668 L323,658 L322,653 Q253,584 178,518 L173,519 L162,532 Q231,590 308,669"/> 
            <glyph glyph-name="â" unicode="&#xE2;" horiz-adv-x="407" d=" M272,457 Q333,398 333,344 Q333,311 328,211 L323,73 Q323,44 331.5,30.5 Q340,17 359,17 Q369,17 380.5,21 Q392,25 401,32 L407,29 L403,11 Q383,-3 358,-3 Q330,-3 317,14.5 Q304,32 303,73 L300,73 Q270,38 236,17 Q202,-4 169,-5 Q115,-5 85.5,24.5 Q56,54 56,107 Q56,143 77.5,168 Q99,193 138,202 L310,242 L313,340 Q313,387 287.5,412 Q262,437 214,437 Q184,437 148.5,420 Q113,403 77,372 L71,374 L66,389 Q103,422 141.5,439.5 Q180,457 215,457 M143,182 Q111,174 93.5,155 Q76,136 76,107 Q76,64 100.5,39.5 Q125,15 168,15 Q201,15 236.5,39 Q272,63 304,106 L309,221 M101,532 Q139,575 202,658 L220,658 Q283,575 321,532 L312,520 L307,520 Q259,573 211,637 Q163,573 115,520 L110,520"/> 
            <glyph glyph-name="ã" unicode="&#xE3;" horiz-adv-x="407" d=" M272,457 Q333,398 333,344 Q333,311 328,211 L323,73 Q323,44 331.5,30.5 Q340,17 359,17 Q369,17 380.5,21 Q392,25 401,32 L407,29 L403,11 Q383,-3 358,-3 Q330,-3 317,14.5 Q304,32 303,73 L300,73 Q270,38 236,17 Q202,-4 169,-5 Q115,-5 85.5,24.5 Q56,54 56,107 Q56,143 77.5,168 Q99,193 138,202 L310,242 L313,340 Q313,387 287.5,412 Q262,437 214,437 Q184,437 148.5,420 Q113,403 77,372 L71,374 L66,389 Q103,422 141.5,439.5 Q180,457 215,457 M143,182 Q111,174 93.5,155 Q76,136 76,107 Q76,64 100.5,39.5 Q125,15 168,15 Q201,15 236.5,39 Q272,63 304,106 L309,221 M350,620 L350,616 L298,569 L292,567 Q272,569 211,587 Q205,589 176,597 Q147,605 136,605 Q131,605 123,599 Q115,593 106,583 L85,564 L81,564 L72,575 L72,579 L124,626 L130,628 Q150,626 211,608 Q217,606 246,598 Q275,590 286,590 Q291,590 299,596 Q307,602 316,612 L337,631 L341,631"/> 
            <glyph glyph-name="ä" unicode="&#xE4;" horiz-adv-x="407" d=" M272,457 Q333,398 333,344 Q333,311 328,211 L323,73 Q323,44 331.5,30.5 Q340,17 359,17 Q369,17 380.5,21 Q392,25 401,32 L407,29 L403,11 Q383,-3 358,-3 Q330,-3 317,14.5 Q304,32 303,73 L300,73 Q270,38 236,17 Q202,-4 169,-5 Q115,-5 85.5,24.5 Q56,54 56,107 Q56,143 77.5,168 Q99,193 138,202 L310,242 L313,340 Q313,387 287.5,412 Q262,437 214,437 Q184,437 148.5,420 Q113,403 77,372 L71,374 L66,389 Q103,422 141.5,439.5 Q180,457 215,457 M143,182 Q111,174 93.5,155 Q76,136 76,107 Q76,64 100.5,39.5 Q125,15 168,15 Q201,15 236.5,39 Q272,63 304,106 L309,221 M150,615 Q161,604 161,595 Q161,586 155.5,580.5 Q150,575 141,575 Q132,575 126.5,580.5 Q121,586 121,595 Q121,604 126.5,609.5 Q132,615 141,615 M290,615 Q301,604 301,595 Q301,586 295.5,580.5 Q290,575 281,575 Q272,575 266.5,580.5 Q261,586 261,595 Q261,604 266.5,609.5 Q272,615 281,615"/> 
            <glyph glyph-name="å" unicode="&#xE5;" horiz-adv-x="407" d=" M272,457 Q333,398 333,344 Q333,311 328,211 L323,73 Q323,44 331.5,30.5 Q340,17 359,17 Q369,17 380.5,21 Q392,25 401,32 L407,29 L403,11 Q383,-3 358,-3 Q330,-3 317,14.5 Q304,32 303,73 L300,73 Q270,38 236,17 Q202,-4 169,-5 Q115,-5 85.5,24.5 Q56,54 56,107 Q56,143 77.5,168 Q99,193 138,202 L310,242 L313,340 Q313,387 287.5,412 Q262,437 214,437 Q184,437 148.5,420 Q113,403 77,372 L71,374 L66,389 Q103,422 141.5,439.5 Q180,457 215,457 M143,182 Q111,174 93.5,155 Q76,136 76,107 Q76,64 100.5,39.5 Q125,15 168,15 Q201,15 236.5,39 Q272,63 304,106 L309,221 M242,668 Q280,626 280,598 Q280,567 258.5,548 Q237,529 209,529 Q181,529 160,548.5 Q139,568 139,599 Q139,629 158.5,648.5 Q178,668 209,668 M186,648 Q159,621 159,599 Q159,576 173.5,562.5 Q188,549 209,549 Q230,549 245,562 Q260,575 260,598 Q260,619 246.5,633.5 Q233,648 209,648"/> 
            <glyph glyph-name="æ" unicode="&#xE6;" horiz-adv-x="624" d=" M619,294 L323,225 Q325,125 364.5,70 Q404,15 477,15 Q512,15 546,27.5 Q580,40 604,61 L610,59 L607,39 Q578,18 543.5,6.5 Q509,-5 475,-5 Q420,-5 381,23.5 Q342,52 322,106 Q275,47 239.5,21.5 Q204,-4 164,-5 Q111,-5 81,26 Q51,57 51,108 Q51,148 71.5,170.5 Q92,193 133,202 L304,241 L304,340 Q304,386 279.5,411.5 Q255,437 212,437 Q147,437 72,372 L66,374 L61,389 Q139,457 214,457 Q266,457 294,429 Q322,401 323,348 Q378,457 478,457 Q543,457 581,416 Q619,375 624,301 M437,437 Q365,390 344,350.5 Q323,311 323,266 L323,246 L602,311 Q597,369 564,403 Q531,437 480,437 M200,15 Q270,67 315,126 Q304,179 304,220 L138,182 Q102,173 86.5,155.5 Q71,138 71,108 Q71,67 95.5,41 Q120,15 163,15"/> 
            <glyph glyph-name="ç" unicode="&#xE7;" horiz-adv-x="366" d=" M267,457 Q337,434 362,415 L355,398 L349,398 Q327,415 295.5,426 Q264,437 233,437 Q162,437 119,378.5 Q76,320 76,222 Q76,128 118.5,71.5 Q161,15 233,15 Q266,15 300,26.5 Q334,38 360,58 L366,56 L364,38 Q338,19 303,7 Q268,-5 232,-5 Q152,-5 104,57 Q56,119 56,222 Q56,293 78,346 Q100,399 140,428 Q180,457 233,457 M231,-55 L262,-75 Q279,-86 287,-97.5 Q295,-109 295,-125 Q295,-149 277.5,-163.5 Q260,-178 235,-178 Q198,-178 176,-145 L182,-127 L186,-127 Q196,-143 207,-150.5 Q218,-158 235,-158 Q253,-158 264,-149.5 Q275,-141 275,-125 Q275,-114 269.5,-107.5 Q264,-101 251,-92 L207,-64 L232,11 L252,11"/> 
            <glyph glyph-name="è" unicode="&#xE8;" horiz-adv-x="388" d=" M311,457 Q388,370 388,292 Q388,272 387,262 L381,255 L77,251 Q76,241 76,221 Q76,126 119.5,70.5 Q163,15 238,15 Q275,15 310,26.5 Q345,38 371,58 L377,56 L374,36 Q312,-5 236,-5 Q153,-5 104.5,56 Q56,117 56,221 Q56,329 106.5,393 Q157,457 242,457 M369,296 Q369,362 334.5,399.5 Q300,437 241,437 Q176,437 133,392.5 Q90,348 79,271 L368,275 M242,590 L311,532 L300,519 L295,518 Q220,584 151,653 L150,658 L160,668 L165,669"/> 
            <glyph glyph-name="é" unicode="&#xE9;" horiz-adv-x="388" d=" M311,457 Q388,370 388,292 Q388,272 387,262 L381,255 L77,251 Q76,241 76,221 Q76,126 119.5,70.5 Q163,15 238,15 Q275,15 310,26.5 Q345,38 371,58 L377,56 L374,36 Q312,-5 236,-5 Q153,-5 104.5,56 Q56,117 56,221 Q56,329 106.5,393 Q157,457 242,457 M369,296 Q369,362 334.5,399.5 Q300,437 241,437 Q176,437 133,392.5 Q90,348 79,271 L368,275 M332,668 L342,658 L341,653 Q272,584 197,518 L192,519 L181,532 Q250,590 327,669"/> 
            <glyph glyph-name="ê" unicode="&#xEA;" horiz-adv-x="388" d=" M311,457 Q388,370 388,292 Q388,272 387,262 L381,255 L77,251 Q76,241 76,221 Q76,126 119.5,70.5 Q163,15 238,15 Q275,15 310,26.5 Q345,38 371,58 L377,56 L374,36 Q312,-5 236,-5 Q153,-5 104.5,56 Q56,117 56,221 Q56,329 106.5,393 Q157,457 242,457 M369,296 Q369,362 334.5,399.5 Q300,437 241,437 Q176,437 133,392.5 Q90,348 79,271 L368,275 M120,532 Q158,575 221,658 L239,658 Q302,575 340,532 L331,520 L326,520 Q278,573 230,637 Q182,573 134,520 L129,520"/> 
            <glyph glyph-name="ë" unicode="&#xEB;" horiz-adv-x="388" d=" M311,457 Q388,370 388,292 Q388,272 387,262 L381,255 L77,251 Q76,241 76,221 Q76,126 119.5,70.5 Q163,15 238,15 Q275,15 310,26.5 Q345,38 371,58 L377,56 L374,36 Q312,-5 236,-5 Q153,-5 104.5,56 Q56,117 56,221 Q56,329 106.5,393 Q157,457 242,457 M369,296 Q369,362 334.5,399.5 Q300,437 241,437 Q176,437 133,392.5 Q90,348 79,271 L368,275 M169,615 Q180,604 180,595 Q180,586 174.5,580.5 Q169,575 160,575 Q151,575 145.5,580.5 Q140,586 140,595 Q140,604 145.5,609.5 Q151,615 160,615 M309,615 Q320,604 320,595 Q320,586 314.5,580.5 Q309,575 300,575 Q291,575 285.5,580.5 Q280,586 280,595 Q280,604 285.5,609.5 Q291,615 300,615"/> 
            <glyph glyph-name="ì" unicode="&#xEC;" horiz-adv-x="191" d=" M101,449 L121,453 L121,0 L101,0 M122,590 L191,532 L180,519 L175,518 Q100,584 31,653 L30,658 L40,668 L45,669"/> 
            <glyph glyph-name="í" unicode="&#xED;" horiz-adv-x="223" d=" M101,449 L121,453 L121,0 L101,0 M213,668 L223,658 L222,653 Q153,584 78,518 L73,519 L62,532 Q131,590 208,669"/> 
            <glyph glyph-name="î" unicode="&#xEE;" horiz-adv-x="221" d=" M101,449 L121,453 L121,0 L101,0 M1,532 Q39,575 102,658 L120,658 Q183,575 221,532 L212,520 L207,520 Q159,573 111,637 Q63,573 15,520 L10,520"/> 
            <glyph glyph-name="ï" unicode="&#xEF;" horiz-adv-x="181" d=" M101,449 L121,453 L121,0 L101,0 M70,615 Q81,604 81,595 Q81,586 75.5,580.5 Q70,575 61,575 Q52,575 46.5,580.5 Q41,586 41,595 Q41,604 46.5,609.5 Q52,615 61,615 M170,615 Q181,604 181,595 Q181,586 175.5,580.5 Q170,575 161,575 Q152,575 146.5,580.5 Q141,586 141,595 Q141,604 146.5,609.5 Q152,615 161,615"/> 
            <glyph glyph-name="ð" unicode="&#xF0;" horiz-adv-x="429" d=" M356,520 Q429,344 429,243 Q429,126 381,60.5 Q333,-5 244,-5 Q157,-5 106.5,56 Q56,117 56,224 Q56,332 108,394.5 Q160,457 251,457 Q323,457 378,413 Q342,507 266,578 L137,523 L133,526 L128,542 L248,593 Q181,651 88,687 L88,692 L97,702 L101,702 Q201,663 270,602 L393,655 L397,652 L402,636 L287,587 M324,15 Q409,135 409,243 Q409,317 390,378 Q333,437 251,437 Q169,437 122.5,380 Q76,323 76,224 Q76,126 121.5,70.5 Q167,15 244,15"/> 
            <glyph glyph-name="ñ" unicode="&#xF1;" horiz-adv-x="411" d=" M343,457 Q411,386 411,321 L411,0 L389,0 L391,320 Q391,375 362,406 Q333,437 280,437 Q241,437 199.5,411.5 Q158,386 120,341 L120,0 L100,0 L100,449 L120,453 L120,374 L124,374 Q161,414 201.5,435.5 Q242,457 280,457 M401,620 L401,616 L349,569 L343,567 Q323,569 262,587 Q256,589 227,597 Q198,605 187,605 Q182,605 174,599 Q166,593 157,583 L136,564 L132,564 L123,575 L123,579 L175,626 L181,628 Q201,626 262,608 Q268,606 297,598 Q326,590 337,590 Q342,590 350,596 Q358,602 367,612 L388,631 L392,631"/> 
            <glyph glyph-name="ò" unicode="&#xF2;" horiz-adv-x="429" d=" M331,457 Q429,336 429,230 Q429,121 378.5,58 Q328,-5 239,-5 Q154,-5 105,55.5 Q56,116 56,222 Q56,331 106.5,394 Q157,457 246,457 M167,437 Q76,323 76,222 Q76,125 119.5,70 Q163,15 239,15 Q318,15 363.5,72 Q409,129 409,230 Q409,327 365.5,382 Q322,437 246,437 M255,590 L324,532 L313,519 L308,518 Q233,584 164,653 L163,658 L173,668 L178,669"/> 
            <glyph glyph-name="ó" unicode="&#xF3;" horiz-adv-x="429" d=" M331,457 Q429,336 429,230 Q429,121 378.5,58 Q328,-5 239,-5 Q154,-5 105,55.5 Q56,116 56,222 Q56,331 106.5,394 Q157,457 246,457 M167,437 Q76,323 76,222 Q76,125 119.5,70 Q163,15 239,15 Q318,15 363.5,72 Q409,129 409,230 Q409,327 365.5,382 Q322,437 246,437 M345,668 L355,658 L354,653 Q285,584 210,518 L205,519 L194,532 Q263,590 340,669"/> 
            <glyph glyph-name="ô" unicode="&#xF4;" horiz-adv-x="429" d=" M331,457 Q429,336 429,230 Q429,121 378.5,58 Q328,-5 239,-5 Q154,-5 105,55.5 Q56,116 56,222 Q56,331 106.5,394 Q157,457 246,457 M167,437 Q76,323 76,222 Q76,125 119.5,70 Q163,15 239,15 Q318,15 363.5,72 Q409,129 409,230 Q409,327 365.5,382 Q322,437 246,437 M133,532 Q171,575 234,658 L252,658 Q315,575 353,532 L344,520 L339,520 Q291,573 243,637 Q195,573 147,520 L142,520"/> 
            <glyph glyph-name="õ" unicode="&#xF5;" horiz-adv-x="429" d=" M331,457 Q429,336 429,230 Q429,121 378.5,58 Q328,-5 239,-5 Q154,-5 105,55.5 Q56,116 56,222 Q56,331 106.5,394 Q157,457 246,457 M167,437 Q76,323 76,222 Q76,125 119.5,70 Q163,15 239,15 Q318,15 363.5,72 Q409,129 409,230 Q409,327 365.5,382 Q322,437 246,437 M382,620 L382,616 L330,569 L324,567 Q304,569 243,587 Q237,589 208,597 Q179,605 168,605 Q163,605 155,599 Q147,593 138,583 L117,564 L113,564 L104,575 L104,579 L156,626 L162,628 Q182,626 243,608 Q249,606 278,598 Q307,590 318,590 Q323,590 331,596 Q339,602 348,612 L369,631 L373,631"/> 
            <glyph glyph-name="ö" unicode="&#xF6;" horiz-adv-x="429" d=" M331,457 Q429,336 429,230 Q429,121 378.5,58 Q328,-5 239,-5 Q154,-5 105,55.5 Q56,116 56,222 Q56,331 106.5,394 Q157,457 246,457 M167,437 Q76,323 76,222 Q76,125 119.5,70 Q163,15 239,15 Q318,15 363.5,72 Q409,129 409,230 Q409,327 365.5,382 Q322,437 246,437 M182,615 Q193,604 193,595 Q193,586 187.5,580.5 Q182,575 173,575 Q164,575 158.5,580.5 Q153,586 153,595 Q153,604 158.5,609.5 Q164,615 173,615 M322,615 Q333,604 333,595 Q333,586 327.5,580.5 Q322,575 313,575 Q304,575 298.5,580.5 Q293,586 293,595 Q293,604 298.5,609.5 Q304,615 313,615"/> 
            <glyph glyph-name="÷" unicode="&#xF7;" horiz-adv-x="456" d=" M456,277 L454,260 L57,260 L54,263 L56,280 L453,280 M273,108 Q284,97 284,88 Q284,79 278.5,73.5 Q273,68 264,68 Q255,68 249.5,73.5 Q244,79 244,88 Q244,97 249.5,102.5 Q255,108 264,108 M273,471 Q284,460 284,451 Q284,442 278.5,436.5 Q273,431 264,431 Q255,431 249.5,436.5 Q244,442 244,451 Q244,460 249.5,465.5 Q255,471 264,471"/> 
            <glyph glyph-name="ø" unicode="&#xF8;" horiz-adv-x="429" d=" M385,403 Q429,300 429,230 Q429,121 378.5,58 Q328,-5 239,-5 Q195,-5 159,12 L106,-107 L90,-104 L88,-100 L142,22 Q101,48 78.5,99.5 Q56,151 56,222 Q56,331 106.5,394 Q157,457 246,457 Q292,457 328,439 L368,530 L383,528 L385,523 L344,430 M76,159 Q115,66 151,41 L319,420 Q287,437 246,437 Q167,437 121.5,380 Q76,323 76,222 M318,15 Q409,129 409,230 Q409,293 390,339.5 Q371,386 335,411 L167,31 Q201,15 239,15"/> 
            <glyph glyph-name="ù" unicode="&#xF9;" horiz-adv-x="475" d=" M475,29 L471,11 Q451,-3 426,-3 Q398,-3 385,17 Q372,37 372,79 L368,79 Q291,-4 208,-4 Q151,-4 120.5,31.5 Q90,67 90,132 L90,449 L110,453 L110,133 Q110,77 136,46.5 Q162,16 211,16 Q251,16 292,39.5 Q333,63 372,108 L372,449 L392,453 L392,79 Q392,47 400.5,32 Q409,17 428,17 Q451,17 469,32 M266,590 L335,532 L324,519 L319,518 Q244,584 175,653 L174,658 L184,668 L189,669"/> 
            <glyph glyph-name="ú" unicode="&#xFA;" horiz-adv-x="475" d=" M475,29 L471,11 Q451,-3 426,-3 Q398,-3 385,17 Q372,37 372,79 L368,79 Q291,-4 208,-4 Q151,-4 120.5,31.5 Q90,67 90,132 L90,449 L110,453 L110,133 Q110,77 136,46.5 Q162,16 211,16 Q251,16 292,39.5 Q333,63 372,108 L372,449 L392,453 L392,79 Q392,47 400.5,32 Q409,17 428,17 Q451,17 469,32 M356,668 L366,658 L365,653 Q296,584 221,518 L216,519 L205,532 Q274,590 351,669"/> 
            <glyph glyph-name="û" unicode="&#xFB;" horiz-adv-x="475" d=" M475,29 L471,11 Q451,-3 426,-3 Q398,-3 385,17 Q372,37 372,79 L368,79 Q291,-4 208,-4 Q151,-4 120.5,31.5 Q90,67 90,132 L90,449 L110,453 L110,133 Q110,77 136,46.5 Q162,16 211,16 Q251,16 292,39.5 Q333,63 372,108 L372,449 L392,453 L392,79 Q392,47 400.5,32 Q409,17 428,17 Q451,17 469,32 M144,532 Q182,575 245,658 L263,658 Q326,575 364,532 L355,520 L350,520 Q302,573 254,637 Q206,573 158,520 L153,520"/> 
            <glyph glyph-name="ü" unicode="&#xFC;" horiz-adv-x="475" d=" M475,29 L471,11 Q451,-3 426,-3 Q398,-3 385,17 Q372,37 372,79 L368,79 Q291,-4 208,-4 Q151,-4 120.5,31.5 Q90,67 90,132 L90,449 L110,453 L110,133 Q110,77 136,46.5 Q162,16 211,16 Q251,16 292,39.5 Q333,63 372,108 L372,449 L392,453 L392,79 Q392,47 400.5,32 Q409,17 428,17 Q451,17 469,32 M193,615 Q204,604 204,595 Q204,586 198.5,580.5 Q193,575 184,575 Q175,575 169.5,580.5 Q164,586 164,595 Q164,604 169.5,609.5 Q175,615 184,615 M333,615 Q344,604 344,595 Q344,586 338.5,580.5 Q333,575 324,575 Q315,575 309.5,580.5 Q304,586 304,595 Q304,604 309.5,609.5 Q315,615 324,615"/> 
            <glyph glyph-name="ý" unicode="&#xFD;" horiz-adv-x="384" d=" M54,409 L194,36 L199,36 L345,409 L360,452 L384,452 L207,0 Q181,-67 154,-104 Q127,-141 91,-159.5 Q55,-178 -4,-190 L-9,-190 Q-13,-186 -17,-178 L-17,-172 Q43,-160 78,-142.5 Q113,-125 137.5,-92.5 Q162,-60 185,0 L19,450 L40,454 M307,668 L317,658 L316,653 Q247,584 172,518 L167,519 L156,532 Q225,590 302,669"/> 
            <glyph glyph-name="þ" unicode="&#xFE;" horiz-adv-x="445" d=" M356,456 Q445,341 445,237 Q445,121 389.5,57.5 Q334,-6 233,-6 Q182,-6 125,4 L125,-185 L105,-185 L105,698 L125,702 L125,385 L128,385 Q157,419 196,437.5 Q235,456 276,456 M325,14 Q425,131 425,237 Q425,332 386,384 Q347,436 276,436 Q234,436 195,414.5 Q156,393 125,353 L125,26 Q187,14 233,14"/> 
            <glyph glyph-name="ÿ" unicode="&#xFF;" horiz-adv-x="384" d=" M54,409 L194,36 L199,36 L345,409 L360,452 L384,452 L207,0 Q181,-67 154,-104 Q127,-141 91,-159.5 Q55,-178 -4,-190 L-9,-190 Q-13,-186 -17,-178 L-17,-172 Q43,-160 78,-142.5 Q113,-125 137.5,-92.5 Q162,-60 185,0 L19,450 L40,454 M144,615 Q155,604 155,595 Q155,586 149.5,580.5 Q144,575 135,575 Q126,575 120.5,580.5 Q115,586 115,595 Q115,604 120.5,609.5 Q126,615 135,615 M284,615 Q295,604 295,595 Q295,586 289.5,580.5 Q284,575 275,575 Q266,575 260.5,580.5 Q255,586 255,595 Q255,604 260.5,609.5 Q266,615 275,615"/> 
            <glyph glyph-name="Ā" unicode="&#x100;" horiz-adv-x="526" d=" M526,0 L503,0 L490,43 L427,213 L125,213 L57,43 L43,0 L19,0 L273,637 L293,637 M284,603 L280,603 L133,233 L420,233 M423,789 L421,772 L134,772 L131,775 L133,792 L420,792"/> 
            <glyph glyph-name="ā" unicode="&#x101;" horiz-adv-x="407" d=" M272,457 Q333,398 333,344 Q333,311 328,211 L323,73 Q323,44 331.5,30.5 Q340,17 359,17 Q369,17 380.5,21 Q392,25 401,32 L407,29 L403,11 Q383,-3 358,-3 Q330,-3 317,14.5 Q304,32 303,73 L300,73 Q270,38 236,17 Q202,-4 169,-5 Q115,-5 85.5,24.5 Q56,54 56,107 Q56,143 77.5,168 Q99,193 138,202 L310,242 L313,340 Q313,387 287.5,412 Q262,437 214,437 Q184,437 148.5,420 Q113,403 77,372 L71,374 L66,389 Q103,422 141.5,439.5 Q180,457 215,457 M143,182 Q111,174 93.5,155 Q76,136 76,107 Q76,64 100.5,39.5 Q125,15 168,15 Q201,15 236.5,39 Q272,63 304,106 L309,221 M357,604 L355,587 L68,587 L65,590 L67,607 L354,607"/> 
            <glyph glyph-name="Ă" unicode="&#x102;" horiz-adv-x="526" d=" M526,0 L503,0 L490,43 L427,213 L125,213 L57,43 L43,0 L19,0 L273,637 L293,637 M284,603 L280,603 L133,233 L420,233 M378,802 Q367,766 340.5,747 Q314,728 276,728 Q238,728 212,747 Q186,766 176,802 L189,813 L194,813 Q202,781 222.5,764.5 Q243,748 276,748 Q309,748 330.5,764.5 Q352,781 360,813 L365,813"/> 
            <glyph glyph-name="ă" unicode="&#x103;" horiz-adv-x="407" d=" M272,457 Q333,398 333,344 Q333,311 328,211 L323,73 Q323,44 331.5,30.5 Q340,17 359,17 Q369,17 380.5,21 Q392,25 401,32 L407,29 L403,11 Q383,-3 358,-3 Q330,-3 317,14.5 Q304,32 303,73 L300,73 Q270,38 236,17 Q202,-4 169,-5 Q115,-5 85.5,24.5 Q56,54 56,107 Q56,143 77.5,168 Q99,193 138,202 L310,242 L313,340 Q313,387 287.5,412 Q262,437 214,437 Q184,437 148.5,420 Q113,403 77,372 L71,374 L66,389 Q103,422 141.5,439.5 Q180,457 215,457 M143,182 Q111,174 93.5,155 Q76,136 76,107 Q76,64 100.5,39.5 Q125,15 168,15 Q201,15 236.5,39 Q272,63 304,106 L309,221 M312,627 Q302,573 277.5,547.5 Q253,522 211,522 Q169,522 144.5,547.5 Q120,573 110,627 L123,640 L128,640 Q135,590 155,566 Q175,542 211,542 Q247,542 267,566 Q287,590 294,640 L299,640"/> 
            <glyph glyph-name="Ą" unicode="&#x104;" horiz-adv-x="534" d=" M526,0 L503,0 L490,43 L427,213 L125,213 L57,43 L43,0 L19,0 L273,637 L293,637 M284,603 L280,603 L133,233 L420,233 M475,-81 Q447,-134 447,-148 Q447,-161 454,-167.5 Q461,-174 473,-174 Q501,-174 517,-132 L519,-132 L534,-143 Q523,-169 507.5,-181 Q492,-193 471,-193 Q451,-193 439,-181.5 Q427,-170 427,-150 Q427,-131 442.5,-102.5 Q458,-74 508,0 L526,0"/> 
            <glyph glyph-name="ą" unicode="&#x105;" horiz-adv-x="436" d=" M272,457 Q333,398 333,344 Q333,311 328,211 L323,73 Q323,44 331.5,30.5 Q340,17 359,17 Q369,17 380.5,21 Q392,25 401,32 L407,29 L403,11 Q383,-3 358,-3 Q330,-3 317,14.5 Q304,32 303,73 L300,73 Q270,38 236,17 Q202,-4 169,-5 Q115,-5 85.5,24.5 Q56,54 56,107 Q56,143 77.5,168 Q99,193 138,202 L310,242 L313,340 Q313,387 287.5,412 Q262,437 214,437 Q184,437 148.5,420 Q113,403 77,372 L71,374 L66,389 Q103,422 141.5,439.5 Q180,457 215,457 M143,182 Q111,174 93.5,155 Q76,136 76,107 Q76,64 100.5,39.5 Q125,15 168,15 Q201,15 236.5,39 Q272,63 304,106 L309,221 M316,65329 Q282,65360 282,65387 Q282,65404 288.5,65419.5 Q295,65435 315.5,65463.5 Q336,65492 366,65531 Q380,65549 379,65547 L403,65547 Q366,65500 342,65468 Q318,65436 310.5,65420.5 Q303,65405 303,65390 Q303,65350 346,65350 Q387,65350 423,65402 L425,65402 L436,65386 Q394,65329 344,65329"/> 
            <glyph glyph-name="Ć" unicode="&#x106;" horiz-adv-x="491" d=" M360,641 Q452,610 489,582 L482,565 L475,565 Q441,592 399.5,606.5 Q358,621 313,621 Q194,621 131,542 Q68,463 68,316 Q68,171 128,93 Q188,15 301,15 Q349,15 396.5,32.5 Q444,50 484,82 L491,80 L489,62 Q447,30 398,12.5 Q349,-5 302,-5 Q179,-5 113.5,78.5 Q48,162 48,317 Q48,473 116.5,557 Q185,641 313,641 M422,834 L429,822 L427,817 Q360,779 253,724 L248,727 L241,742 Q332,786 417,836"/> 
            <glyph glyph-name="ć" unicode="&#x107;" horiz-adv-x="366" d=" M267,457 Q337,434 362,415 L355,398 L349,398 Q327,415 295.5,426 Q264,437 233,437 Q162,437 119,378.5 Q76,320 76,222 Q76,128 118.5,71.5 Q161,15 233,15 Q266,15 300,26.5 Q334,38 360,58 L366,56 L364,38 Q338,19 303,7 Q268,-5 232,-5 Q152,-5 104,57 Q56,119 56,222 Q56,293 78,346 Q100,399 140,428 Q180,457 233,457 M335,668 L345,658 L344,653 Q275,584 200,518 L195,519 L184,532 Q253,590 330,669"/> 
            <glyph glyph-name="Ĉ" unicode="&#x108;" horiz-adv-x="491" d=" M360,641 Q452,610 489,582 L482,565 L475,565 Q441,592 399.5,606.5 Q358,621 313,621 Q194,621 131,542 Q68,463 68,316 Q68,171 128,93 Q188,15 301,15 Q349,15 396.5,32.5 Q444,50 484,82 L491,80 L489,62 Q447,30 398,12.5 Q349,-5 302,-5 Q179,-5 113.5,78.5 Q48,162 48,317 Q48,473 116.5,557 Q185,641 313,641 M206,752 Q253,785 304,828 L320,828 Q386,776 420,752 L413,738 L408,738 Q362,770 313,808 Q264,770 218,738 L213,738"/> 
            <glyph glyph-name="ĉ" unicode="&#x109;" horiz-adv-x="366" d=" M267,457 Q337,434 362,415 L355,398 L349,398 Q327,415 295.5,426 Q264,437 233,437 Q162,437 119,378.5 Q76,320 76,222 Q76,128 118.5,71.5 Q161,15 233,15 Q266,15 300,26.5 Q334,38 360,58 L366,56 L364,38 Q338,19 303,7 Q268,-5 232,-5 Q152,-5 104,57 Q56,119 56,222 Q56,293 78,346 Q100,399 140,428 Q180,457 233,457 M123,532 Q161,575 224,658 L242,658 Q305,575 343,532 L334,520 L329,520 Q281,573 233,637 Q185,573 137,520 L132,520"/> 
            <glyph glyph-name="Ċ" unicode="&#x10A;" horiz-adv-x="491" d=" M360,641 Q452,610 489,582 L482,565 L475,565 Q441,592 399.5,606.5 Q358,621 313,621 Q194,621 131,542 Q68,463 68,316 Q68,171 128,93 Q188,15 301,15 Q349,15 396.5,32.5 Q444,50 484,82 L491,80 L489,62 Q447,30 398,12.5 Q349,-5 302,-5 Q179,-5 113.5,78.5 Q48,162 48,317 Q48,473 116.5,557 Q185,641 313,641 M322,816 Q333,805 333,796 Q333,787 327.5,781.5 Q322,776 313,776 Q304,776 298.5,781.5 Q293,787 293,796 Q293,805 298.5,810.5 Q304,816 313,816"/> 
            <glyph glyph-name="ċ" unicode="&#x10B;" horiz-adv-x="366" d=" M267,457 Q337,434 362,415 L355,398 L349,398 Q327,415 295.5,426 Q264,437 233,437 Q162,437 119,378.5 Q76,320 76,222 Q76,128 118.5,71.5 Q161,15 233,15 Q266,15 300,26.5 Q334,38 360,58 L366,56 L364,38 Q338,19 303,7 Q268,-5 232,-5 Q152,-5 104,57 Q56,119 56,222 Q56,293 78,346 Q100,399 140,428 Q180,457 233,457 M242,631 Q253,620 253,611 Q253,602 247.5,596.5 Q242,591 233,591 Q224,591 218.5,596.5 Q213,602 213,611 Q213,620 218.5,625.5 Q224,631 233,631"/> 
            <glyph glyph-name="Č" unicode="&#x10C;" horiz-adv-x="491" d=" M360,641 Q452,610 489,582 L482,565 L475,565 Q441,592 399.5,606.5 Q358,621 313,621 Q194,621 131,542 Q68,463 68,316 Q68,171 128,93 Q188,15 301,15 Q349,15 396.5,32.5 Q444,50 484,82 L491,80 L489,62 Q447,30 398,12.5 Q349,-5 302,-5 Q179,-5 113.5,78.5 Q48,162 48,317 Q48,473 116.5,557 Q185,641 313,641 M420,805 Q373,772 322,729 L306,729 Q240,781 206,805 L213,819 L218,819 Q264,787 313,749 Q362,787 408,819 L413,819"/> 
            <glyph glyph-name="č" unicode="&#x10D;" horiz-adv-x="366" d=" M267,457 Q337,434 362,415 L355,398 L349,398 Q327,415 295.5,426 Q264,437 233,437 Q162,437 119,378.5 Q76,320 76,222 Q76,128 118.5,71.5 Q161,15 233,15 Q266,15 300,26.5 Q334,38 360,58 L366,56 L364,38 Q338,19 303,7 Q268,-5 232,-5 Q152,-5 104,57 Q56,119 56,222 Q56,293 78,346 Q100,399 140,428 Q180,457 233,457 M343,646 Q305,603 242,520 L224,520 Q161,603 123,646 L132,658 L137,658 Q185,605 233,541 Q281,605 329,658 L334,658"/> 
            <glyph glyph-name="Ď" unicode="&#x10E;" horiz-adv-x="589" d=" M445,642 Q589,485 589,339 Q589,173 514.5,84 Q440,-5 301,-5 Q267,-5 211,-3.5 Q155,-2 110,0 L110,637 L311,642 M430,15 Q569,183 569,339 Q569,476 502,549 Q435,622 311,622 Q280,622 226.5,620.5 Q173,619 130,617 L130,20 Q172,18 221.5,16.5 Q271,15 301,15 M426,805 Q379,772 328,729 L312,729 Q246,781 212,805 L219,819 L224,819 Q270,787 319,749 Q368,787 414,819 L419,819"/> 
            <glyph glyph-name="ď" unicode="&#x10F;" horiz-adv-x="504" d=" M396,75 Q396,45 404,31 Q412,17 431,17 Q454,17 472,32 L478,29 L474,11 Q454,-3 430,-3 Q403,-3 390,14 Q377,31 376,69 L373,69 Q341,32 306,13.5 Q271,-5 229,-5 Q151,-5 103.5,54 Q56,113 56,217 Q56,332 111.5,394.5 Q167,457 268,457 Q319,457 376,440 L376,698 L396,702 M504,651 L492,507 L475,505 L472,509 L484,653 L501,655 M176,437 Q76,322 76,217 Q76,123 118.5,69 Q161,15 230,15 Q314,15 376,101 L376,418 Q321,437 268,437"/> 
            <glyph glyph-name="Đ" unicode="&#x110;" horiz-adv-x="606" d=" M462,642 Q606,485 606,339 Q606,173 531.5,84 Q457,-5 318,-5 Q284,-5 228,-3.5 Q172,-2 127,0 L127,637 L328,642 M447,15 Q586,183 586,339 Q586,476 519,549 Q452,622 328,622 Q297,622 243.5,620.5 Q190,619 147,617 L147,20 Q189,18 238.5,16.5 Q288,15 318,15 M321,336 L320,319 L10,319 L8,322 L9,339 L319,339"/> 
            <glyph glyph-name="đ" unicode="&#x111;" horiz-adv-x="481" d=" M396,75 Q396,45 404,31 Q412,17 431,17 Q454,17 472,32 L478,29 L474,11 Q454,-3 430,-3 Q403,-3 390,14 Q377,31 376,69 L373,69 Q341,32 306,13.5 Q271,-5 229,-5 Q151,-5 103.5,54 Q56,113 56,217 Q56,332 111.5,394.5 Q167,457 268,457 Q319,457 376,440 L376,561 L242,561 L239,564 L241,581 L376,581 L376,698 L396,702 L396,581 L478,581 L481,578 L479,561 L396,561 M321,437 L268,437 Q176,437 126,379.5 Q76,322 76,217 Q76,123 118.5,69 Q161,15 230,15 Q314,15 376,101 L376,418"/> 
            <glyph glyph-name="Ē" unicode="&#x112;" horiz-adv-x="425" d=" M425,16 L421,0 L110,0 L110,637 L418,637 L421,633 L417,617 L130,617 L130,340 L368,340 L371,336 L367,320 L130,320 L130,20 L422,20 M412,789 L410,772 L123,772 L120,775 L122,792 L409,792"/> 
            <glyph glyph-name="ē" unicode="&#x113;" horiz-adv-x="388" d=" M311,457 Q388,370 388,292 Q388,272 387,262 L381,255 L77,251 Q76,241 76,221 Q76,126 119.5,70.5 Q163,15 238,15 Q275,15 310,26.5 Q345,38 371,58 L377,56 L374,36 Q312,-5 236,-5 Q153,-5 104.5,56 Q56,117 56,221 Q56,329 106.5,393 Q157,457 242,457 M369,296 Q369,362 334.5,399.5 Q300,437 241,437 Q176,437 133,392.5 Q90,348 79,271 L368,275 M376,604 L374,587 L87,587 L84,590 L86,607 L373,607"/> 
            <glyph glyph-name="Ĕ" unicode="&#x114;" horiz-adv-x="425" d=" M425,16 L421,0 L110,0 L110,637 L418,637 L421,633 L417,617 L130,617 L130,340 L368,340 L371,336 L367,320 L130,320 L130,20 L422,20 M367,802 Q356,766 329.5,747 Q303,728 265,728 Q227,728 201,747 Q175,766 165,802 L178,813 L183,813 Q191,781 211.5,764.5 Q232,748 265,748 Q298,748 319.5,764.5 Q341,781 349,813 L354,813"/> 
            <glyph glyph-name="ĕ" unicode="&#x115;" horiz-adv-x="388" d=" M311,457 Q388,370 388,292 Q388,272 387,262 L381,255 L77,251 Q76,241 76,221 Q76,126 119.5,70.5 Q163,15 238,15 Q275,15 310,26.5 Q345,38 371,58 L377,56 L374,36 Q312,-5 236,-5 Q153,-5 104.5,56 Q56,117 56,221 Q56,329 106.5,393 Q157,457 242,457 M369,296 Q369,362 334.5,399.5 Q300,437 241,437 Q176,437 133,392.5 Q90,348 79,271 L368,275 M331,627 Q321,573 296.5,547.5 Q272,522 230,522 Q188,522 163.5,547.5 Q139,573 129,627 L142,640 L147,640 Q154,590 174,566 Q194,542 230,542 Q266,542 286,566 Q306,590 313,640 L318,640"/> 
            <glyph glyph-name="Ė" unicode="&#x116;" horiz-adv-x="425" d=" M425,16 L421,0 L110,0 L110,637 L418,637 L421,633 L417,617 L130,617 L130,340 L368,340 L371,336 L367,320 L130,320 L130,20 L422,20 M275,816 Q286,805 286,796 Q286,787 280.5,781.5 Q275,776 266,776 Q257,776 251.5,781.5 Q246,787 246,796 Q246,805 251.5,810.5 Q257,816 266,816"/> 
            <glyph glyph-name="ė" unicode="&#x117;" horiz-adv-x="388" d=" M311,457 Q388,370 388,292 Q388,272 387,262 L381,255 L77,251 Q76,241 76,221 Q76,126 119.5,70.5 Q163,15 238,15 Q275,15 310,26.5 Q345,38 371,58 L377,56 L374,36 Q312,-5 236,-5 Q153,-5 104.5,56 Q56,117 56,221 Q56,329 106.5,393 Q157,457 242,457 M369,296 Q369,362 334.5,399.5 Q300,437 241,437 Q176,437 133,392.5 Q90,348 79,271 L368,275 M239,631 Q250,620 250,611 Q250,602 244.5,596.5 Q239,591 230,591 Q221,591 215.5,596.5 Q210,602 210,611 Q210,620 215.5,625.5 Q221,631 230,631"/> 
            <glyph glyph-name="Ę" unicode="&#x118;" horiz-adv-x="425" d=" M425,16 L421,0 L110,0 L110,637 L418,637 L421,633 L417,617 L130,617 L130,340 L368,340 L371,336 L367,320 L130,320 L130,20 L422,20 M295,65338 Q261,65369 261,65396 Q261,65413 267.5,65428.5 Q274,65444 294.5,65472.5 Q315,65501 345,65540 Q359,65558 358,65556 L382,65556 Q345,65509 321,65477 Q297,65445 289.5,65429.5 Q282,65414 282,65399 Q282,65359 325,65359 Q366,65359 402,65411 L404,65411 L415,65395 Q373,65338 323,65338"/> 
            <glyph glyph-name="ę" unicode="&#x119;" horiz-adv-x="407" d=" M311,457 Q388,370 388,292 Q388,272 387,262 L381,255 L77,251 Q76,241 76,221 Q76,126 119.5,70.5 Q163,15 238,15 Q275,15 310,26.5 Q345,38 371,58 L377,56 L374,36 Q312,-5 236,-5 Q153,-5 104.5,56 Q56,117 56,221 Q56,329 106.5,393 Q157,457 242,457 M369,296 Q369,362 334.5,399.5 Q300,437 241,437 Q176,437 133,392.5 Q90,348 79,271 L368,275 M287,-182 Q253,-151 253,-124 Q253,-107 259.5,-91.5 Q266,-76 286.5,-47.5 Q307,-19 337,20 Q351,38 350,36 L374,36 Q337,-11 313,-43 Q289,-75 281.5,-90.5 Q274,-106 274,-121 Q274,-161 317,-161 Q358,-161 394,-109 L396,-109 L407,-125 Q365,-182 315,-182"/> 
            <glyph glyph-name="Ě" unicode="&#x11A;" horiz-adv-x="425" d=" M425,16 L421,0 L110,0 L110,637 L418,637 L421,633 L417,617 L130,617 L130,340 L368,340 L371,336 L367,320 L130,320 L130,20 L422,20 M373,805 Q326,772 275,729 L259,729 Q193,781 159,805 L166,819 L171,819 Q217,787 266,749 Q315,787 361,819 L366,819"/> 
            <glyph glyph-name="ě" unicode="&#x11B;" horiz-adv-x="388" d=" M311,457 Q388,370 388,292 Q388,272 387,262 L381,255 L77,251 Q76,241 76,221 Q76,126 119.5,70.5 Q163,15 238,15 Q275,15 310,26.5 Q345,38 371,58 L377,56 L374,36 Q312,-5 236,-5 Q153,-5 104.5,56 Q56,117 56,221 Q56,329 106.5,393 Q157,457 242,457 M369,296 Q369,362 334.5,399.5 Q300,437 241,437 Q176,437 133,392.5 Q90,348 79,271 L368,275 M340,646 Q302,603 239,520 L221,520 Q158,603 120,646 L129,658 L134,658 Q182,605 230,541 Q278,605 326,658 L331,658"/> 
            <glyph glyph-name="Ĝ" unicode="&#x11C;" horiz-adv-x="523" d=" M386,641 Q479,613 523,587 L517,569 L510,569 Q423,621 343,621 Q211,621 139.5,541 Q68,461 68,312 Q68,169 130,92 Q192,15 307,15 Q354,15 393.5,21.5 Q433,28 496,45 L496,246 L516,248 L516,30 Q450,11 406.5,3.5 Q363,-4 308,-5 Q183,-5 115.5,77.5 Q48,160 48,313 Q48,471 124.5,556 Q201,641 343,641 M218,752 Q265,785 316,828 L332,828 Q398,776 432,752 L425,738 L420,738 Q374,770 325,808 Q276,770 230,738 L225,738"/> 
            <glyph glyph-name="ĝ" unicode="&#x11D;" horiz-adv-x="455" d=" M408,427 L346,416 L344,413 Q383,372 383,304 Q383,233 341,191.5 Q299,150 226,150 Q184,150 151,164 Q120,144 108,131 Q96,118 96,107 Q96,84 126.5,73.5 Q157,63 224,52 Q284,43 322.5,33.5 Q361,24 388,2.5 Q415,-19 415,-55 Q415,-91 387.5,-122.5 Q360,-154 314,-173 Q268,-192 216,-192 Q145,-192 102.5,-159.5 Q60,-127 60,-77 Q65,-43 89,-16.5 Q113,10 162,38 L162,43 Q120,52 97.5,68 Q75,84 75,111 Q80,136 132,171 L132,174 Q103,194 87,226.5 Q71,259 71,301 Q71,374 113,415 Q155,456 229,456 Q284,456 323,431 Q397,445 451,460 L455,457 L455,439 M290,170 Q364,241 364,304 Q364,366 328,401 Q292,436 229,436 Q164,436 127,400 Q90,364 90,301 Q90,240 126,205 Q162,170 226,170 M395,-26 Q350,8 317.5,16 Q285,24 231,32 Q218,33 197,37 Q142,9 111,-20 Q80,-49 80,-82 Q80,-119 117,-145.5 Q154,-172 216,-172 Q264,-172 305,-155 Q346,-138 370.5,-111 Q395,-84 395,-55 M127,66058 Q165,66101 228,66184 L246,66184 Q309,66101 347,66058 L338,66046 L333,66046 Q285,66099 237,66163 Q189,66099 141,66046 L136,66046"/> 
            <glyph glyph-name="Ğ" unicode="&#x11E;" horiz-adv-x="523" d=" M386,641 Q479,613 523,587 L517,569 L510,569 Q423,621 343,621 Q211,621 139.5,541 Q68,461 68,312 Q68,169 130,92 Q192,15 307,15 Q354,15 393.5,21.5 Q433,28 496,45 L496,246 L516,248 L516,30 Q450,11 406.5,3.5 Q363,-4 308,-5 Q183,-5 115.5,77.5 Q48,160 48,313 Q48,471 124.5,556 Q201,641 343,641 M426,802 Q415,766 388.5,747 Q362,728 324,728 Q286,728 260,747 Q234,766 224,802 L237,813 L242,813 Q250,781 270.5,764.5 Q291,748 324,748 Q357,748 378.5,764.5 Q400,781 408,813 L413,813"/> 
            <glyph glyph-name="ğ" unicode="&#x11F;" horiz-adv-x="455" d=" M408,427 L346,416 L344,413 Q383,372 383,304 Q383,233 341,191.5 Q299,150 226,150 Q184,150 151,164 Q120,144 108,131 Q96,118 96,107 Q96,84 126.5,73.5 Q157,63 224,52 Q284,43 322.5,33.5 Q361,24 388,2.5 Q415,-19 415,-55 Q415,-91 387.5,-122.5 Q360,-154 314,-173 Q268,-192 216,-192 Q145,-192 102.5,-159.5 Q60,-127 60,-77 Q65,-43 89,-16.5 Q113,10 162,38 L162,43 Q120,52 97.5,68 Q75,84 75,111 Q80,136 132,171 L132,174 Q103,194 87,226.5 Q71,259 71,301 Q71,374 113,415 Q155,456 229,456 Q284,456 323,431 Q397,445 451,460 L455,457 L455,439 M290,170 Q364,241 364,304 Q364,366 328,401 Q292,436 229,436 Q164,436 127,400 Q90,364 90,301 Q90,240 126,205 Q162,170 226,170 M395,-26 Q350,8 317.5,16 Q285,24 231,32 Q218,33 197,37 Q142,9 111,-20 Q80,-49 80,-82 Q80,-119 117,-145.5 Q154,-172 216,-172 Q264,-172 305,-155 Q346,-138 370.5,-111 Q395,-84 395,-55 M338,66153 Q328,66099 303.5,66073.5 Q279,66048 237,66048 Q195,66048 170.5,66073.5 Q146,66099 136,66153 L149,66166 L154,66166 Q161,66116 181,66092 Q201,66068 237,66068 Q273,66068 293,66092 Q313,66116 320,66166 L325,66166"/> 
            <glyph glyph-name="Ġ" unicode="&#x120;" horiz-adv-x="523" d=" M386,641 Q479,613 523,587 L517,569 L510,569 Q423,621 343,621 Q211,621 139.5,541 Q68,461 68,312 Q68,169 130,92 Q192,15 307,15 Q354,15 393.5,21.5 Q433,28 496,45 L496,246 L516,248 L516,30 Q450,11 406.5,3.5 Q363,-4 308,-5 Q183,-5 115.5,77.5 Q48,160 48,313 Q48,471 124.5,556 Q201,641 343,641 M334,816 Q345,805 345,796 Q345,787 339.5,781.5 Q334,776 325,776 Q316,776 310.5,781.5 Q305,787 305,796 Q305,805 310.5,810.5 Q316,816 325,816"/> 
            <glyph glyph-name="ġ" unicode="&#x121;" horiz-adv-x="455" d=" M408,427 L346,416 L344,413 Q383,372 383,304 Q383,233 341,191.5 Q299,150 226,150 Q184,150 151,164 Q120,144 108,131 Q96,118 96,107 Q96,84 126.5,73.5 Q157,63 224,52 Q284,43 322.5,33.5 Q361,24 388,2.5 Q415,-19 415,-55 Q415,-91 387.5,-122.5 Q360,-154 314,-173 Q268,-192 216,-192 Q145,-192 102.5,-159.5 Q60,-127 60,-77 Q65,-43 89,-16.5 Q113,10 162,38 L162,43 Q120,52 97.5,68 Q75,84 75,111 Q80,136 132,171 L132,174 Q103,194 87,226.5 Q71,259 71,301 Q71,374 113,415 Q155,456 229,456 Q284,456 323,431 Q397,445 451,460 L455,457 L455,439 M290,170 Q364,241 364,304 Q364,366 328,401 Q292,436 229,436 Q164,436 127,400 Q90,364 90,301 Q90,240 126,205 Q162,170 226,170 M395,-26 Q350,8 317.5,16 Q285,24 231,32 Q218,33 197,37 Q142,9 111,-20 Q80,-49 80,-82 Q80,-119 117,-145.5 Q154,-172 216,-172 Q264,-172 305,-155 Q346,-138 370.5,-111 Q395,-84 395,-55 M246,66157 Q257,66146 257,66137 Q257,66128 251.5,66122.5 Q246,66117 237,66117 Q228,66117 222.5,66122.5 Q217,66128 217,66137 Q217,66146 222.5,66151.5 Q228,66157 237,66157"/> 
            <glyph glyph-name="Ģ" unicode="&#x122;" horiz-adv-x="523" d=" M386,641 Q479,613 523,587 L517,569 L510,569 Q423,621 343,621 Q211,621 139.5,541 Q68,461 68,312 Q68,169 130,92 Q192,15 307,15 Q354,15 393.5,21.5 Q433,28 496,45 L496,246 L516,248 L516,30 Q450,11 406.5,3.5 Q363,-4 308,-5 Q183,-5 115.5,77.5 Q48,160 48,313 Q48,471 124.5,556 Q201,641 343,641 M350,-87 L350,-118 Q350,-138 333,-162 Q316,-186 284,-211 L274,-200 L275,-197 Q301,-178 315,-157.5 Q329,-137 329,-119 Q329,-99 299,-85 L299,-81 Q304,-74 312,-70"/> 
            <glyph glyph-name="ģ" unicode="&#x123;" horiz-adv-x="455" d=" M408,427 L346,416 L344,413 Q383,372 383,304 Q383,233 341,191.5 Q299,150 226,150 Q184,150 151,164 Q120,144 108,131 Q96,118 96,107 Q96,84 126.5,73.5 Q157,63 224,52 Q284,43 322.5,33.5 Q361,24 388,2.5 Q415,-19 415,-55 Q415,-91 387.5,-122.5 Q360,-154 314,-173 Q268,-192 216,-192 Q145,-192 102.5,-159.5 Q60,-127 60,-77 Q65,-43 89,-16.5 Q113,10 162,38 L162,43 Q120,52 97.5,68 Q75,84 75,111 Q80,136 132,171 L132,174 Q103,194 87,226.5 Q71,259 71,301 Q71,374 113,415 Q155,456 229,456 Q284,456 323,431 Q397,445 451,460 L455,457 L455,439 M290,170 Q364,241 364,304 Q364,366 328,401 Q292,436 229,436 Q164,436 127,400 Q90,364 90,301 Q90,240 126,205 Q162,170 226,170 M395,-26 Q350,8 317.5,16 Q285,24 231,32 Q218,33 197,37 Q142,9 111,-20 Q80,-49 80,-82 Q80,-119 117,-145.5 Q154,-172 216,-172 Q264,-172 305,-155 Q346,-138 370.5,-111 Q395,-84 395,-55 M197,531 L197,574 Q197,620 250,676 L263,665 L263,661 Q219,614 219,578 Q219,548 257,539 L257,535 Q256,532 247,519"/> 
            <glyph glyph-name="Ĥ" unicode="&#x124;" horiz-adv-x="560" d=" M560,637 L560,0 L540,0 L540,314 L130,314 L130,0 L110,0 L110,637 L130,637 L130,334 L540,334 L540,637 M228,752 Q275,785 326,828 L342,828 Q408,776 442,752 L435,738 L430,738 Q384,770 335,808 Q286,770 240,738 L235,738"/> 
            <glyph glyph-name="ĥ" unicode="&#x125;" horiz-adv-x="417" d=" M348,457 Q417,386 416,321 L415,194 L414,0 L394,0 L396,320 Q396,375 367,406 Q338,437 285,437 Q246,437 204.5,411.5 Q163,386 125,341 L125,0 L105,0 L105,698 L125,702 L125,374 L129,374 Q166,414 206.5,435.5 Q247,457 285,457 M8,755 Q55,788 106,831 L122,831 Q188,779 222,755 L215,741 L210,741 Q164,773 115,811 Q66,773 20,741 L15,741"/> 
            <glyph glyph-name="Ħ" unicode="&#x126;" horiz-adv-x="645" d=" M643,484 L575,484 L575,0 L555,0 L555,314 L145,314 L145,0 L125,0 L125,484 L59,484 L55,487 L57,504 L125,504 L125,637 L145,637 L145,504 L555,504 L555,637 L575,637 L575,504 L641,504 L645,501 M555,484 L145,484 L145,334 L555,334"/> 
            <glyph glyph-name="ħ" unicode="&#x127;" horiz-adv-x="406" d=" M337,457 Q406,386 405,321 L404,194 L403,0 L383,0 L385,320 Q385,375 356,406 Q327,437 274,437 Q235,437 193.5,411.5 Q152,386 114,341 L114,0 L94,0 L94,556 L22,556 L19,559 L21,576 L94,576 L94,698 L114,702 L114,576 L275,576 L278,573 L276,556 L114,556 L114,374 L118,374 Q155,414 195.5,435.5 Q236,457 274,457"/> 
            <glyph glyph-name="Ĩ" unicode="&#x128;" horiz-adv-x="244" d=" M130,0 L110,0 L110,637 L130,637 M244,802 L244,798 L197,751 L191,749 Q175,751 119,769 Q65,787 54,787 Q49,787 41,780 Q33,773 24,763 L8,747 L5,747 L-4,758 L-4,762 L43,809 L49,811 Q65,809 121,791 Q175,773 186,773 Q191,773 198,779 Q205,785 213,794 L232,813 L235,813"/> 
            <glyph glyph-name="ĩ" unicode="&#x129;" horiz-adv-x="235" d=" M101,449 L121,453 L121,0 L101,0 M235,617 L235,613 L188,566 L182,564 Q166,566 110,584 Q56,602 45,602 Q40,602 32,595 Q24,588 15,578 L-1,562 L-4,562 L-13,573 L-13,577 L34,624 L40,626 Q56,624 112,606 Q166,588 177,588 Q182,588 189,594 Q196,600 204,609 L223,628 L226,628"/> 
            <glyph glyph-name="Ī" unicode="&#x12A;" horiz-adv-x="226" d=" M130,0 L110,0 L110,637 L130,637 M226,789 L224,772 L17,772 L14,775 L16,792 L223,792"/> 
            <glyph glyph-name="ī" unicode="&#x12B;" horiz-adv-x="217" d=" M101,449 L121,453 L121,0 L101,0 M217,604 L215,587 L8,587 L5,590 L7,607 L214,607"/> 
            <glyph glyph-name="Ĭ" unicode="&#x12C;" horiz-adv-x="221" d=" M130,0 L110,0 L110,637 L130,637 M221,802 Q210,766 183.5,747 Q157,728 119,728 Q81,728 55,747 Q29,766 19,802 L32,813 L37,813 Q45,781 65.5,764.5 Q86,748 119,748 Q152,748 173.5,764.5 Q195,781 203,813 L208,813"/> 
            <glyph glyph-name="ĭ" unicode="&#x12D;" horiz-adv-x="212" d=" M101,449 L121,453 L121,0 L101,0 M212,627 Q202,573 177.5,547.5 Q153,522 111,522 Q69,522 44.5,547.5 Q20,573 10,627 L23,640 L28,640 Q35,590 55,566 Q75,542 111,542 Q147,542 167,566 Q187,590 194,640 L199,640"/> 
            <glyph glyph-name="Į" unicode="&#x12E;" horiz-adv-x="138" d=" M130,0 L110,0 L110,637 L130,637 M79,-81 Q51,-134 51,-148 Q51,-161 58,-167.5 Q65,-174 77,-174 Q105,-174 121,-132 L123,-132 L138,-143 Q127,-169 111.5,-181 Q96,-193 75,-193 Q55,-193 43,-181.5 Q31,-170 31,-150 Q31,-131 46.5,-102.5 Q62,-74 112,0 L130,0"/> 
            <glyph glyph-name="į" unicode="&#x12F;" horiz-adv-x="131" d=" M101,449 L121,453 L121,0 L101,0 M120,631 Q131,620 131,611 Q131,602 125.5,596.5 Q120,591 111,591 Q102,591 96.5,596.5 Q91,602 91,611 Q91,620 96.5,625.5 Q102,631 111,631 M70,-81 Q42,-134 42,-148 Q42,-161 49,-167.5 Q56,-174 68,-174 Q96,-174 112,-132 L114,-132 L129,-143 Q118,-169 102.5,-181 Q87,-193 66,-193 Q46,-193 34,-181.5 Q22,-170 22,-150 Q22,-131 37.5,-102.5 Q53,-74 103,0 L121,0"/> 
            <glyph glyph-name="İ" unicode="&#x130;" horiz-adv-x="140" d=" M130,0 L110,0 L110,637 L130,637 M129,816 Q140,805 140,796 Q140,787 134.5,781.5 Q129,776 120,776 Q111,776 105.5,781.5 Q100,787 100,796 Q100,805 105.5,810.5 Q111,816 120,816"/> 
            <glyph glyph-name="ı" unicode="&#x131;" horiz-adv-x="121" d=" M101,449 L121,453 L121,0 L101,0"/> 
            <glyph glyph-name="Ĳ" unicode="&#x132;" horiz-adv-x="400" d=" M130,0 L110,0 L110,637 L130,637 M400,115 Q400,45 370.5,-3.5 Q341,-52 271,-98 L260,-87 L260,-81 Q324,-39 352,6 Q380,51 380,113 L380,617 L252,617 L248,621 L251,637 L400,637"/> 
            <glyph glyph-name="ĳ" unicode="&#x133;" horiz-adv-x="350" d=" M101,449 L121,453 L121,0 L101,0 M120,631 Q131,620 131,611 Q131,602 125.5,596.5 Q120,591 111,591 Q102,591 96.5,596.5 Q91,602 91,611 Q91,620 96.5,625.5 Q102,631 111,631 M350,451 L350,12 Q350,-66 330.5,-108.5 Q311,-151 257,-192 L247,-182 L247,-176 Q295,-139 312.5,-99.5 Q330,-60 330,8 L330,432 L246,432 L242,436 L245,452 L328,452 L348,453 M334,631 Q345,620 345,611 Q345,602 339.5,596.5 Q334,591 325,591 Q316,591 310.5,596.5 Q305,602 305,611 Q305,620 310.5,625.5 Q316,631 325,631"/> 
            <glyph glyph-name="Ĵ" unicode="&#x134;" horiz-adv-x="215" d=" M160,115 Q160,45 130.5,-3.5 Q101,-52 31,-98 L20,-87 L20,-81 Q84,-39 112,6 Q140,51 140,113 L140,617 L12,617 L8,621 L11,637 L160,637 M1,752 Q48,785 99,828 L115,828 Q181,776 215,752 L208,738 L203,738 Q157,770 108,808 Q59,770 13,738 L8,738"/> 
            <glyph glyph-name="ĵ" unicode="&#x135;" horiz-adv-x="213" d=" M128,451 L128,12 Q128,-66 108.5,-108.5 Q89,-151 35,-192 L25,-182 L25,-176 Q73,-139 90.5,-99.5 Q108,-60 108,8 L108,432 L24,432 L20,436 L23,452 L106,452 L126,453 M-7,532 Q31,575 94,658 L112,658 Q175,575 213,532 L204,520 L199,520 Q151,573 103,637 Q55,573 7,520 L2,520"/> 
            <glyph glyph-name="Ķ" unicode="&#x136;" horiz-adv-x="498" d=" M130,0 L110,0 L110,637 L130,637 M186,340 Q332,164 498,5 L498,1 Q495,-2 484,-7 L480,-6 Q297,172 159,338 L159,341 L408,590 L451,637 L482,637 M312,-87 L312,-118 Q312,-138 295,-162 Q278,-186 246,-211 L236,-200 L237,-197 Q263,-178 277,-157.5 Q291,-137 291,-119 Q291,-99 261,-85 L261,-81 Q266,-74 274,-70"/> 
            <glyph glyph-name="ķ" unicode="&#x137;" horiz-adv-x="408" d=" M125,0 L105,0 L105,698 L125,702 M181,241 Q291,117 408,5 L408,1 Q406,-2 393,-7 L389,-6 Q264,116 155,238 L155,243 L332,418 L361,452 L392,452 M276,-87 L276,-118 Q276,-138 259,-162 Q242,-186 210,-211 L200,-200 L201,-197 Q227,-178 241,-157.5 Q255,-137 255,-119 Q255,-99 225,-85 L225,-81 Q230,-74 238,-70"/> 
            <glyph glyph-name="ĸ" unicode="&#x138;" horiz-adv-x="402" d=" M100,449 L120,453 L120,0 L100,0 M175,241 Q284,117 402,5 L402,1 Q399,-2 388,-7 L384,-6 Q263,112 149,238 L149,243 L327,418 L356,452 L386,452"/> 
            <glyph glyph-name="Ĺ" unicode="&#x139;" horiz-adv-x="393" d=" M393,16 L389,0 L109,0 L109,637 L129,637 L129,20 L390,20 M228,834 L235,822 L233,817 Q166,779 59,724 L54,727 L47,742 Q138,786 223,836"/> 
            <glyph glyph-name="ĺ" unicode="&#x13A;" horiz-adv-x="231" d=" M125,0 L105,0 L105,698 L125,702 M224,877 L231,865 L229,860 Q162,822 55,767 L50,770 L43,785 Q134,829 219,879"/> 
            <glyph glyph-name="Ļ" unicode="&#x13B;" horiz-adv-x="393" d=" M393,16 L389,0 L109,0 L109,637 L129,637 L129,20 L390,20 M274,-87 L274,-118 Q274,-138 257,-162 Q240,-186 208,-211 L198,-200 L199,-197 Q225,-178 239,-157.5 Q253,-137 253,-119 Q253,-99 223,-85 L223,-81 Q228,-74 236,-70"/> 
            <glyph glyph-name="ļ" unicode="&#x13C;" horiz-adv-x="153" d=" M125,0 L105,0 L105,698 L125,702 M153,-87 L153,-118 Q153,-138 136,-162 Q119,-186 87,-211 L77,-200 L78,-197 Q104,-178 118,-157.5 Q132,-137 132,-119 Q132,-99 102,-85 L102,-81 Q107,-74 115,-70"/> 
            <glyph glyph-name="Ľ" unicode="&#x13D;" horiz-adv-x="393" d=" M393,16 L389,0 L109,0 L109,637 L129,637 L129,20 L390,20 M326,429 L323,433 L335,577 L352,579 L355,575 L343,431"/> 
            <glyph glyph-name="ľ" unicode="&#x13E;" horiz-adv-x="243" d=" M125,0 L105,0 L105,698 L125,702 M243,641 L231,497 L214,495 L211,499 L223,643 L240,645"/> 
            <glyph glyph-name="Ŀ" unicode="&#x13F;" horiz-adv-x="393" d=" M393,16 L389,0 L109,0 L109,637 L129,637 L129,20 L390,20 M318,387 Q329,376 329,367 Q329,358 323.5,352.5 Q318,347 309,347 Q300,347 294.5,352.5 Q289,358 289,367 Q289,376 294.5,381.5 Q300,387 309,387"/> 
            <glyph glyph-name="ŀ" unicode="&#x140;" horiz-adv-x="247" d=" M125,0 L105,0 L105,698 L125,702 M236,287 Q247,276 247,267 Q247,258 241.5,252.5 Q236,247 227,247 Q218,247 212.5,252.5 Q207,258 207,267 Q207,276 212.5,281.5 Q218,287 227,287"/> 
            <glyph glyph-name="Ł" unicode="&#x141;" horiz-adv-x="403" d=" M403,16 L399,0 L119,0 L119,333 L33,286 L28,289 L22,304 L119,357 L119,637 L139,637 L139,367 L299,454 L304,452 L310,437 L139,344 L139,20 L400,20"/> 
            </font>
</defs>
</svg>
