<?xml version="1.0" encoding="utf-8"?>
<!-- Generator: Adobe Illustrator 21.0.0, SVG Export Plug-In . SVG Version: 6.00 Build 0)  -->
<svg version="1.1" id="Слой_1" xmlns="http://www.w3.org/2000/svg" xmlns:xlink="http://www.w3.org/1999/xlink" x="0px" y="0px"
	 viewBox="0 0 19.6 20.4" style="enable-background:new 0 0 19.6 20.4;" xml:space="preserve">
<style type="text/css">
	.st0{fill:none;stroke:#000000;stroke-width:0.75;stroke-miterlimit:10;}
	.st1{fill:#FFFFFF;}
	.st2{fill:#FFFFFF;stroke:#000000;stroke-width:0.75;stroke-miterlimit:10;}
</style>
<g id="иконка">
	<circle class="st0" cx="9.9" cy="10.7" r="9.3"/>
	<rect x="1.8" y="4" transform="matrix(0.6369 0.7709 -0.7709 0.6369 4.6638 -0.2936)" class="st1" width="1.6" height="1.5"/>
	<rect x="16.2" y="4" transform="matrix(0.6369 0.7709 -0.7709 0.6369 9.8607 -11.3278)" class="st1" width="1.6" height="1.5"/>
	<rect x="14.9" y="16.8" transform="matrix(0.5528 0.8333 -0.8333 0.5528 21.8737 -5.1105)" class="st1" width="1.6" height="2"/>
	
		<ellipse transform="matrix(0.9981 -6.104203e-02 6.104203e-02 0.9981 -0.1956 0.5914)" class="st2" cx="9.6" cy="3.5" rx="2.7" ry="3.1"/>
	<path class="st0" d="M5.2,18.6c0,0-0.1-3.4,0.2-5c0.2-1.5,1-2.4,0.7-3.3c0,0-0.8-1.2-1.4-1.8S1.5,4.8,1.5,4.8S1,4.1,1.5,3.7
		C2,3.4,2.6,3.4,2.8,3.6S5,5.9,5,5.9S7.1,8,9.1,8c2,0,3-0.6,3.3-0.8s1.3-0.8,1.8-1.2s2.5-2,2.5-2s0.7-0.7,1.1-0.5
		c0,0,0.5,0.1,0.7,0.5s-0.6,1.2-0.6,1.2l-2.2,2.2c0,0-2.3,2.6-2.4,4.4c0,0-0.2,1.8,0.2,3.6s1,3.1,1,3.1"/>
</g>
</svg>
