<svg xmlns="http://www.w3.org/2000/svg">
	<symbol id="man-icon" viewBox="0 0 19.6 20.4">
		<g>
			<circle class="st0" cx="9.9" cy="10.7" r="9.3"/>
			<rect x="1.8" y="4" transform="matrix(0.6369 0.7709 -0.7709 0.6369 4.6638 -0.2936)" class="st1" width="1.6" height="1.5"/>
			<rect x="16.2" y="4" transform="matrix(0.6369 0.7709 -0.7709 0.6369 9.8607 -11.3278)" class="st1" width="1.6" height="1.5"/>
			<rect x="14.9" y="16.8" transform="matrix(0.5528 0.8333 -0.8333 0.5528 21.8737 -5.1105)" class="st1" width="1.6" height="2"/>

			<ellipse transform="matrix(0.9981 -6.104203e-02 6.104203e-02 0.9981 -0.1956 0.5914)" class="st2" cx="9.6" cy="3.5" rx="2.7" ry="3.1"/>
			<path class="st0" d="M5.2,18.6c0,0-0.1-3.4,0.2-5c0.2-1.5,1-2.4,0.7-3.3c0,0-0.8-1.2-1.4-1.8S1.5,4.8,1.5,4.8S1,4.1,1.5,3.7
			C2,3.4,2.6,3.4,2.8,3.6S5,5.9,5,5.9S7.1,8,9.1,8c2,0,3-0.6,3.3-0.8s1.3-0.8,1.8-1.2s2.5-2,2.5-2s0.7-0.7,1.1-0.5
			c0,0,0.5,0.1,0.7,0.5s-0.6,1.2-0.6,1.2l-2.2,2.2c0,0-2.3,2.6-2.4,4.4c0,0-0.2,1.8,0.2,3.6s1,3.1,1,3.1"/>
		</g>
	</symbol>
	<symbol id="smile-icon" viewBox="0 0 20.6 20.8">
		<g>
			<circle class="st0" cx="10.3" cy="10.4" r="9.8"/>
			<path class="st0" d="M4.1,12.8c0,0,2.4,3.3,6.1,3.3s5.9-3.3,5.9-3.3"/>
			<g>
				<path class="st0" d="M6.9,11.1c0,0-2.6-1.4-2.6-2.7C4.2,7.2,5.7,6.3,6.9,7.8"/>
				<path class="st0" d="M6.5,11.1c0,0,2.6-1.4,2.6-2.7c0.1-1.2-1.4-2.1-2.6-0.7"/>
				<polygon points="6.6,8 6.7,8.1 6.8,8 6.8,7.8 6.6,7.9 		"/>
			</g>
			<g>
				<path class="st0" d="M13.7,11.1c0,0-2.6-1.4-2.6-2.7c-0.1-1.2,1.4-2.1,2.6-0.7"/>
				<path class="st0" d="M13.3,11.1c0,0,2.6-1.4,2.6-2.7c0.1-1.2-1.4-2.1-2.6-0.7"/>
				<polygon points="13.4,8 13.5,8.1 13.6,8 13.6,7.8 13.4,7.9 		"/>
			</g>
		</g>
	</symbol>
	<symbol id="strength-icon" viewBox="0 0 22.3 18.9">
		<path d="M7.3,11.6c-0.3-0.7-0.9-2-1.7-2.7c-1.2-1-2.1-2.4-2.5-3.8c0-0.5,0.3-1,1-1.2c0,0,0.2,1,0.7,1s0.8-0.2,1.4-0.9
		c0.6-0.7,0.7-0.8,0.7-0.8s0.5-0.8,0-1.2S5.1,0.7,5.1,0.7S4.5,0.5,4.2,0.5S3.3,0.5,2.8,1C2.2,1.4,1,2.6,1,2.6S0.4,3.4,0.4,4.5
		c0,1.2,0.4,4.8,0.4,4.8s0.5,2.5,1.1,4.1c0.6,1.6,1.9,3.3,3.1,4.3c0.4,0.4,0.9,0.7,1.1,0.7c0.6,0,1.4-0.6,2.1-0.6
		c0.7,0,2.1,0.6,3.4,0.6s5.3-0.9,6.8-5.8c0,0,3.5-0.8,3.5-4.5c0-3.7-3.1-4.6-4.4-4.6S13,4.4,13,7.7v0.6c0,0-0.7-0.5-1.8-0.5
		c-1.1,0-3.4,0.7-3.6,3.7L7.3,11.6z"/>
	</symbol>
	<symbol id="car-icon" viewBox="0 0 18.2 14.8">
		<g>
			<path d="M1.9,12h8.3c0.4,0,0.8-0.3,0.8-0.8V3c0-0.4-0.3-0.8-0.8-0.8H1.9C1.4,2.2,1.1,2.6,1.1,3v8.3
			C1.1,11.7,1.4,12,1.9,12z"/>
			<path class="st0" d="M11.2,3.8h3.6c0,0,0.4,0,0.9,0.5c0.2,0.2,0.4,0.5,0.7,0.9c0.5,0.7,1.1,1.4,1.1,1.4s0.4,0.4,0.4,1.1
			s0,3.5,0,3.5s0.1,0.8-1.1,0.8c-0.9,0-5.1,0-6.1,0c-0.1,0-0.2,0-0.2,0"/>
			<circle class="st1" cx="4.7" cy="12.4" r="1.9"/>
			<circle class="st1" cx="14.1" cy="12.4" r="1.9"/>
			<g>
				<circle class="st1" cx="4" cy="4.2" r="3.7"/>
				<polyline class="st0" points="2.7,5.5 4.1,4.4 4.1,1.9 		"/>
				<circle cx="4" cy="4.4" r="0.5"/>
			</g>
			<path class="st0" d="M17.7,8.1h-4c0,0-0.6-0.1-0.6-0.8s0-1.5,0-1.5s0-0.5,0.7-0.5c0.8,0,2.5,0,2.5,0"/>
		</g>
	</symbol>
	<symbol id="leaves-icon" viewBox="0 0 16 15.2">
		<g>
			<path class="st0" d="M2.4,14.9c0,0,2.9-5.9,9.9-5.3"/>
			<path class="st0" d="M4.3,12.3c0,0-0.8-5.4,5.1-5.5c4.5,0.3,6.1,2.7,6.1,2.7s-2,4.3-7,4.8c-1.6,0.1-3.6-1-3.6-1"/>
			<path class="st0" d="M2.8,12.1c0,0-0.1-2.2-0.4-3.2S2,5.3,2.7,3.8"/>
			<path class="st0" d="M2.3,9.4c0,0-2-1-1.8-3.8S3,0.6,3,0.6s4.1,3.7,0.6,7.9"/>
		</g>
	</symbol>
	<symbol id="meter-icon" viewBox="0 0 15.2 15.2">
		<g>
			<path class="st0" d="M10,3.8c0,0,0.3-3.4-3.8-3.4c-3.2,0-2.5,0-2.5,0S1,0.4,0.4,2.6c0,2,0,5.7,0,6.1s0.6,2.4,3.5,2.4"/>
			<path class="st0" d="M14.7,6.8c0,0,0,4.6,0,6.3s-1.6,1.6-1.6,1.6s-5,0-6.4,0s-1.5-0.8-1.5-0.8s0-1.7,0-3.4s1.2-1.6,1.2-1.6
			s4.7,0,6.2,0S14.7,8.2,14.7,6.8s-1.4-1.7-1.4-1.7s-7.4,0-9.3,0S0.8,3.7,0.8,3.7L0.4,3.2"/>
			<line class="st0" x1="8.9" y1="10.8" x2="8.9" y2="9"/>
			<line class="st0" x1="12.5" y1="10.8" x2="12.5" y2="8.9"/>
			<ellipse cx="5.2" cy="2.9" rx="1" ry="0.4"/>
		</g>
	</symbol>
	<symbol id="fb-icon" viewBox="0 0 36.711 36.711">
		<path d="M36.711,34.686c0,1.119-0.907,2.025-2.026,2.025H25.33V22.495h4.771l0.715-5.541H25.33v-3.537
		c0-1.604,0.445-2.696,2.746-2.696l2.934-0.001V5.764c-0.508-0.067-2.249-0.219-4.275-0.219c-4.23,0-7.127,2.582-7.127,7.323v4.086
		h-4.784v5.541h4.784v14.216H2.026C0.907,36.711,0,35.805,0,34.686V2.026C0,0.907,0.907,0,2.026,0h32.659
		c1.119,0,2.026,0.907,2.026,2.026V34.686z"/>
	</symbol>
	<symbol id="inst-icon" viewBox="0 0 36.663 36.664">
		<path d="M32.305,0H4.357C1.95,0,0,1.946,0,4.349v27.967c0,2.4,1.95,4.348,4.357,4.348h27.947
		c2.407,0,4.358-1.947,4.358-4.348V4.349C36.663,1.946,34.712,0,32.305,0 M26.352,5.729c0-0.632,0.513-1.146,1.146-1.146h3.438
		c0.632,0,1.145,0.514,1.145,1.146v3.438c0,0.633-0.513,1.146-1.145,1.146h-3.438c-0.633,0-1.146-0.513-1.146-1.146V5.729z
		M18.374,11.341c3.894,0,7.051,3.149,7.051,7.033c0,3.885-3.157,7.034-7.051,7.034s-7.051-3.148-7.051-7.034
		C11.323,14.49,14.48,11.341,18.374,11.341 M33.226,32.08c0,0.633-0.513,1.146-1.146,1.146H4.583c-0.633,0-1.146-0.514-1.146-1.146
		V14.895H8.02c-0.597,0.858-0.798,2.462-0.798,3.479c0,6.135,5.003,11.127,11.152,11.127s11.153-4.992,11.153-11.127
		c0-1.018-0.145-2.596-0.885-3.479h4.583V32.08z"/>
	</symbol>
	<symbol id="twitt-icon" viewBox="0 0 37.453 31.21">
		<path d="M36.421,0.577c-1.486,0.902-3.129,1.558-4.884,1.909C30.14,0.956,28.142,0,25.93,0
		c-4.24,0-7.682,3.528-7.682,7.879c0,0.618,0.066,1.217,0.198,1.794C12.061,9.344,6.399,6.211,2.607,1.438
		c-0.662,1.168-1.04,2.522-1.04,3.966c0,2.731,1.356,5.144,3.418,6.557c-1.257-0.038-2.444-0.396-3.481-0.981v0.096
		c0,3.819,2.648,7.004,6.167,7.725c-0.645,0.186-1.324,0.277-2.025,0.277c-0.495,0-0.979-0.047-1.447-0.139
		c0.979,3.129,3.815,5.408,7.179,5.469c-2.63,2.115-5.944,3.375-9.544,3.375c-0.619,0-1.232-0.037-1.833-0.109
		c3.4,2.232,7.441,3.537,11.778,3.537c14.136,0,21.863-12.004,21.863-22.417c0-0.343-0.006-0.685-0.021-1.021
		c1.502-1.112,2.807-2.498,3.832-4.078c-1.376,0.626-2.857,1.05-4.412,1.24C34.629,3.961,35.847,2.417,36.421,0.577"/>
	</symbol>
	<symbol>
	
	</symbol
</svg>