<svg xmlns="http://www.w3.org/2000/svg">
	<symbol id="man-icon" viewBox="0 0 19.6 20.4">
		<g>
			<circle class="st0" cx="9.9" cy="10.7" r="9.3"/>
			<rect x="1.8" y="4" transform="matrix(0.6369 0.7709 -0.7709 0.6369 4.6638 -0.2936)" class="st1" width="1.6" height="1.5"/>
			<rect x="16.2" y="4" transform="matrix(0.6369 0.7709 -0.7709 0.6369 9.8607 -11.3278)" class="st1" width="1.6" height="1.5"/>
			<rect x="14.9" y="16.8" transform="matrix(0.5528 0.8333 -0.8333 0.5528 21.8737 -5.1105)" class="st1" width="1.6" height="2"/>

			<ellipse transform="matrix(0.9981 -6.104203e-02 6.104203e-02 0.9981 -0.1956 0.5914)" class="st2" cx="9.6" cy="3.5" rx="2.7" ry="3.1"/>
			<path class="st0" d="M5.2,18.6c0,0-0.1-3.4,0.2-5c0.2-1.5,1-2.4,0.7-3.3c0,0-0.8-1.2-1.4-1.8S1.5,4.8,1.5,4.8S1,4.1,1.5,3.7
			C2,3.4,2.6,3.4,2.8,3.6S5,5.9,5,5.9S7.1,8,9.1,8c2,0,3-0.6,3.3-0.8s1.3-0.8,1.8-1.2s2.5-2,2.5-2s0.7-0.7,1.1-0.5
			c0,0,0.5,0.1,0.7,0.5s-0.6,1.2-0.6,1.2l-2.2,2.2c0,0-2.3,2.6-2.4,4.4c0,0-0.2,1.8,0.2,3.6s1,3.1,1,3.1"/>
		</g>
	</symbol>
	<symbol id="smile-icon" viewBox="0 0 20.6 20.8">
		<g>
			<circle class="st0" cx="10.3" cy="10.4" r="9.8"/>
			<path class="st0" d="M4.1,12.8c0,0,2.4,3.3,6.1,3.3s5.9-3.3,5.9-3.3"/>
			<g>
				<path class="st0" d="M6.9,11.1c0,0-2.6-1.4-2.6-2.7C4.2,7.2,5.7,6.3,6.9,7.8"/>
				<path class="st0" d="M6.5,11.1c0,0,2.6-1.4,2.6-2.7c0.1-1.2-1.4-2.1-2.6-0.7"/>
				<polygon points="6.6,8 6.7,8.1 6.8,8 6.8,7.8 6.6,7.9 		"/>
			</g>
			<g>
				<path class="st0" d="M13.7,11.1c0,0-2.6-1.4-2.6-2.7c-0.1-1.2,1.4-2.1,2.6-0.7"/>
				<path class="st0" d="M13.3,11.1c0,0,2.6-1.4,2.6-2.7c0.1-1.2-1.4-2.1-2.6-0.7"/>
				<polygon points="13.4,8 13.5,8.1 13.6,8 13.6,7.8 13.4,7.9 		"/>
			</g>
		</g>
	</symbol>
	<symbol id="strength-icon" viewBox="0 0 22.3 18.9">
		<path d="M7.3,11.6c-0.3-0.7-0.9-2-1.7-2.7c-1.2-1-2.1-2.4-2.5-3.8c0-0.5,0.3-1,1-1.2c0,0,0.2,1,0.7,1s0.8-0.2,1.4-0.9
		c0.6-0.7,0.7-0.8,0.7-0.8s0.5-0.8,0-1.2S5.1,0.7,5.1,0.7S4.5,0.5,4.2,0.5S3.3,0.5,2.8,1C2.2,1.4,1,2.6,1,2.6S0.4,3.4,0.4,4.5
		c0,1.2,0.4,4.8,0.4,4.8s0.5,2.5,1.1,4.1c0.6,1.6,1.9,3.3,3.1,4.3c0.4,0.4,0.9,0.7,1.1,0.7c0.6,0,1.4-0.6,2.1-0.6
		c0.7,0,2.1,0.6,3.4,0.6s5.3-0.9,6.8-5.8c0,0,3.5-0.8,3.5-4.5c0-3.7-3.1-4.6-4.4-4.6S13,4.4,13,7.7v0.6c0,0-0.7-0.5-1.8-0.5
		c-1.1,0-3.4,0.7-3.6,3.7L7.3,11.6z"/>
	</symbol>
	<symbol>
		<g>
			<path class="st0" d="M1.9,12h8.3c0.4,0,0.8-0.3,0.8-0.8V3c0-0.4-0.3-0.8-0.8-0.8H1.9C1.4,2.2,1.1,2.6,1.1,3v8.3
			C1.1,11.7,1.4,12,1.9,12z"/>
			<path class="st0" d="M11.2,3.8h3.6c0,0,0.4,0,0.9,0.5c0.2,0.2,0.4,0.5,0.7,0.9c0.5,0.7,1.1,1.4,1.1,1.4s0.4,0.4,0.4,1.1
			s0,3.5,0,3.5s0.1,0.8-1.1,0.8c-0.9,0-5.1,0-6.1,0c-0.1,0-0.2,0-0.2,0"/>
			<circle class="st1" cx="4.7" cy="12.4" r="1.9"/>
			<circle class="st1" cx="14.1" cy="12.4" r="1.9"/>
			<g>
				<circle class="st1" cx="4" cy="4.2" r="3.7"/>
				<polyline class="st0" points="2.7,5.5 4.1,4.4 4.1,1.9 		"/>
				<circle cx="4" cy="4.4" r="0.5"/>
			</g>
			<path class="st0" d="M17.7,8.1h-4c0,0-0.6-0.1-0.6-0.8s0-1.5,0-1.5s0-0.5,0.7-0.5c0.8,0,2.5,0,2.5,0"/>
		</g>
	</symbol>
</svg>