<svg xmlns="http://www.w3.org/2000/svg">
	<symbol id="man-icon" viewBox="0 0 19.6 20.4">
		<g>
			<circle class="st0" cx="9.9" cy="10.7" r="9.3"/>
			<rect x="1.8" y="4" transform="matrix(0.6369 0.7709 -0.7709 0.6369 4.6638 -0.2936)" class="st1" width="1.6" height="1.5"/>
			<rect x="16.2" y="4" transform="matrix(0.6369 0.7709 -0.7709 0.6369 9.8607 -11.3278)" class="st1" width="1.6" height="1.5"/>
			<rect x="14.9" y="16.8" transform="matrix(0.5528 0.8333 -0.8333 0.5528 21.8737 -5.1105)" class="st1" width="1.6" height="2"/>

			<ellipse transform="matrix(0.9981 -6.104203e-02 6.104203e-02 0.9981 -0.1956 0.5914)" class="st2" cx="9.6" cy="3.5" rx="2.7" ry="3.1"/>
			<path class="st0" d="M5.2,18.6c0,0-0.1-3.4,0.2-5c0.2-1.5,1-2.4,0.7-3.3c0,0-0.8-1.2-1.4-1.8S1.5,4.8,1.5,4.8S1,4.1,1.5,3.7
			C2,3.4,2.6,3.4,2.8,3.6S5,5.9,5,5.9S7.1,8,9.1,8c2,0,3-0.6,3.3-0.8s1.3-0.8,1.8-1.2s2.5-2,2.5-2s0.7-0.7,1.1-0.5
			c0,0,0.5,0.1,0.7,0.5s-0.6,1.2-0.6,1.2l-2.2,2.2c0,0-2.3,2.6-2.4,4.4c0,0-0.2,1.8,0.2,3.6s1,3.1,1,3.1"/>
		</g>
	</symbol>
	<symbol id="smile" viewBox="0 0 20.6 20.8">
		<g>
			<circle class="st0" cx="10.3" cy="10.4" r="9.8"/>
			<path class="st0" d="M4.1,12.8c0,0,2.4,3.3,6.1,3.3s5.9-3.3,5.9-3.3"/>
			<g>
				<path class="st0" d="M6.9,11.1c0,0-2.6-1.4-2.6-2.7C4.2,7.2,5.7,6.3,6.9,7.8"/>
				<path class="st0" d="M6.5,11.1c0,0,2.6-1.4,2.6-2.7c0.1-1.2-1.4-2.1-2.6-0.7"/>
				<polygon points="6.6,8 6.7,8.1 6.8,8 6.8,7.8 6.6,7.9 		"/>
			</g>
			<g>
				<path class="st0" d="M13.7,11.1c0,0-2.6-1.4-2.6-2.7c-0.1-1.2,1.4-2.1,2.6-0.7"/>
				<path class="st0" d="M13.3,11.1c0,0,2.6-1.4,2.6-2.7c0.1-1.2-1.4-2.1-2.6-0.7"/>
				<polygon points="13.4,8 13.5,8.1 13.6,8 13.6,7.8 13.4,7.9 		"/>
			</g>
		</g>
	</symbol>
</svg>