<svg xmlns="http://www.w3.org/2000/svg">

	<symbol id="man-icon" viewBox="0 0 19.6 20.4">
		<g>
			<circle cx="9.9" cy="10.7" r="9.3"/>

			<rect x="1.8" y="4" transform="matrix(0.6369 0.7709 -0.7709 0.6369 4.6638 -0.2936)" width="1.6" height="1.5" fill="#f2f5f4" stroke="transparent"/>
			<rect x="16.2" y="4" transform="matrix(0.6369 0.7709 -0.7709 0.6369 9.8607 -11.3278)" width="1.6" height="1.5" fill="#f2f5f4" stroke="transparent"/>
			<rect x="14.9" y="16.8" transform="matrix(0.5528 0.8333 -0.8333 0.5528 21.8737 -5.1105)" width="1.6" height="2" fill="#f2f5f4" stroke="transparent"/>

			<ellipse transform="matrix(0.9981 -6.104203e-02 6.104203e-02 0.9981 -0.1956 0.5914)" cx="9.6" cy="3.5" rx="2.7" ry="3.1" fill="#f2f5f4"/>

			<path d="M5.2,18.6c0,0-0.1-3.4,0.2-5c0.2-1.5,1-2.4,0.7-3.3c0,0-0.8-1.2-1.4-1.8S1.5,4.8,1.5,4.8S1,4.1,1.5,3.7
			C2,3.4,2.6,3.4,2.8,3.6S5,5.9,5,5.9S7.1,8,9.1,8c2,0,3-0.6,3.3-0.8s1.3-0.8,1.8-1.2s2.5-2,2.5-2s0.7-0.7,1.1-0.5
			c0,0,0.5,0.1,0.7,0.5s-0.6,1.2-0.6,1.2l-2.2,2.2c0,0-2.3,2.6-2.4,4.4c0,0-0.2,1.8,0.2,3.6s1,3.1,1,3.1"/>
		</g>
	</symbol>
	<symbol id="smile-icon" viewBox="0 0 20.6 20.8">
		<g>
			<circle cx="10.3" cy="10.4" r="9.8"/>
			<path d="M4.1,12.8c0,0,2.4,3.3,6.1,3.3s5.9-3.3,5.9-3.3"/>
			<g>
				<path d="M6.9,11.1c0,0-2.6-1.4-2.6-2.7C4.2,7.2,5.7,6.3,6.9,7.8"/>
				<path d="M6.5,11.1c0,0,2.6-1.4,2.6-2.7c0.1-1.2-1.4-2.1-2.6-0.7"/>
				<polygon points="6.6,8 6.7,8.1 6.8,8 6.8,7.8 6.6,7.9"/>
			</g>
			<g>
				<path d="M13.7,11.1c0,0-2.6-1.4-2.6-2.7c-0.1-1.2,1.4-2.1,2.6-0.7"/>
				<path d="M13.3,11.1c0,0,2.6-1.4,2.6-2.7c0.1-1.2-1.4-2.1-2.6-0.7"/>
				<polygon points="13.4,8 13.5,8.1 13.6,8 13.6,7.8 13.4,7.9"/>
			</g>
		</g>
	</symbol>
	<symbol id="strength-icon" viewBox="0 0 22.3 18.9">
		<path d="M7.3,11.6c-0.3-0.7-0.9-2-1.7-2.7c-1.2-1-2.1-2.4-2.5-3.8c0-0.5,0.3-1,1-1.2c0,0,0.2,1,0.7,1s0.8-0.2,1.4-0.9
		c0.6-0.7,0.7-0.8,0.7-0.8s0.5-0.8,0-1.2S5.1,0.7,5.1,0.7S4.5,0.5,4.2,0.5S3.3,0.5,2.8,1C2.2,1.4,1,2.6,1,2.6S0.4,3.4,0.4,4.5
		c0,1.2,0.4,4.8,0.4,4.8s0.5,2.5,1.1,4.1c0.6,1.6,1.9,3.3,3.1,4.3c0.4,0.4,0.9,0.7,1.1,0.7c0.6,0,1.4-0.6,2.1-0.6
		c0.7,0,2.1,0.6,3.4,0.6s5.3-0.9,6.8-5.8c0,0,3.5-0.8,3.5-4.5c0-3.7-3.1-4.6-4.4-4.6S13,4.4,13,7.7v0.6c0,0-0.7-0.5-1.8-0.5
		c-1.1,0-3.4,0.7-3.6,3.7L7.3,11.6z"/>
	</symbol>
	<symbol id="car-icon" viewBox="0 0 18.2 14.8">
		<g>
			<path d="M1.9,12h8.3c0.4,0,0.8-0.3,0.8-0.8V3c0-0.4-0.3-0.8-0.8-0.8H1.9C1.4,2.2,1.1,2.6,1.1,3v8.3
			C1.1,11.7,1.4,12,1.9,12z"/>
			<path d="M11.2,3.8h3.6c0,0,0.4,0,0.9,0.5c0.2,0.2,0.4,0.5,0.7,0.9c0.5,0.7,1.1,1.4,1.1,1.4s0.4,0.4,0.4,1.1
			s0,3.5,0,3.5s0.1,0.8-1.1,0.8c-0.9,0-5.1,0-6.1,0c-0.1,0-0.2,0-0.2,0"/>
			<circle cx="4.7" cy="12.4" r="1.9" fill="#61c4d9"/>
			<circle cx="14.1" cy="12.4" r="1.9" fill="#61c4d9"/>
			<g>
				<circle cx="4" cy="4.2" r="3.7" fill="#61c4d9"/>
				<polyline points="2.7,5.5 4.1,4.4 4.1,1.9"/>
				<circle cx="4" cy="4.4" r="0.5"/>
			</g>
			<path d="M17.7,8.1h-4c0,0-0.6-0.1-0.6-0.8s0-1.5,0-1.5s0-0.5,0.7-0.5c0.8,0,2.5,0,2.5,0"/>
		</g>
	</symbol>
	<symbol id="leaves-icon" viewBox="0 0 16 15.2">
		<g>
			<path d="M2.4,14.9c0,0,2.9-5.9,9.9-5.3"/>
			<path d="M4.3,12.3c0,0-0.8-5.4,5.1-5.5c4.5,0.3,6.1,2.7,6.1,2.7s-2,4.3-7,4.8c-1.6,0.1-3.6-1-3.6-1"/>
			<path d="M2.8,12.1c0,0-0.1-2.2-0.4-3.2S2,5.3,2.7,3.8"/>
			<path d="M2.3,9.4c0,0-2-1-1.8-3.8S3,0.6,3,0.6s4.1,3.7,0.6,7.9"/>
		</g>
	</symbol>
	<symbol id="meter-icon" viewBox="0 0 15.2 15.2">
		<g>
			<path d="M10,3.8c0,0,0.3-3.4-3.8-3.4c-3.2,0-2.5,0-2.5,0S1,0.4,0.4,2.6c0,2,0,5.7,0,6.1s0.6,2.4,3.5,2.4"/>
			<path d="M14.7,6.8c0,0,0,4.6,0,6.3s-1.6,1.6-1.6,1.6s-5,0-6.4,0s-1.5-0.8-1.5-0.8s0-1.7,0-3.4s1.2-1.6,1.2-1.6
			s4.7,0,6.2,0S14.7,8.2,14.7,6.8s-1.4-1.7-1.4-1.7s-7.4,0-9.3,0S0.8,3.7,0.8,3.7L0.4,3.2"/>
			<line x1="8.9" y1="10.8" x2="8.9" y2="9"/>
			<line x1="12.5" y1="10.8" x2="12.5" y2="8.9"/>
			<ellipse cx="5.2" cy="2.9" rx="1" ry="0.4"/>
		</g>
	</symbol>
	<symbol id="fb-icon" viewBox="0 0 36.711 36.711">
		<path d="M36.711,34.686c0,1.119-0.907,2.025-2.026,2.025H25.33V22.495h4.771l0.715-5.541H25.33v-3.537
		c0-1.604,0.445-2.696,2.746-2.696l2.934-0.001V5.764c-0.508-0.067-2.249-0.219-4.275-0.219c-4.23,0-7.127,2.582-7.127,7.323v4.086
		h-4.784v5.541h4.784v14.216H2.026C0.907,36.711,0,35.805,0,34.686V2.026C0,0.907,0.907,0,2.026,0h32.659
		c1.119,0,2.026,0.907,2.026,2.026V34.686z"/>
	</symbol>
	<symbol id="inst-icon" viewBox="0 0 36.663 36.664">
		<path d="M32.305,0H4.357C1.95,0,0,1.946,0,4.349v27.967c0,2.4,1.95,4.348,4.357,4.348h27.947
		c2.407,0,4.358-1.947,4.358-4.348V4.349C36.663,1.946,34.712,0,32.305,0 M26.352,5.729c0-0.632,0.513-1.146,1.146-1.146h3.438
		c0.632,0,1.145,0.514,1.145,1.146v3.438c0,0.633-0.513,1.146-1.145,1.146h-3.438c-0.633,0-1.146-0.513-1.146-1.146V5.729z
		M18.374,11.341c3.894,0,7.051,3.149,7.051,7.033c0,3.885-3.157,7.034-7.051,7.034s-7.051-3.148-7.051-7.034
		C11.323,14.49,14.48,11.341,18.374,11.341 M33.226,32.08c0,0.633-0.513,1.146-1.146,1.146H4.583c-0.633,0-1.146-0.514-1.146-1.146
		V14.895H8.02c-0.597,0.858-0.798,2.462-0.798,3.479c0,6.135,5.003,11.127,11.152,11.127s11.153-4.992,11.153-11.127
		c0-1.018-0.145-2.596-0.885-3.479h4.583V32.08z"/>
	</symbol>
	<symbol id="twitt-icon" viewBox="0 0 37.453 31.21">
		<path d="M36.421,0.577c-1.486,0.902-3.129,1.558-4.884,1.909C30.14,0.956,28.142,0,25.93,0
		c-4.24,0-7.682,3.528-7.682,7.879c0,0.618,0.066,1.217,0.198,1.794C12.061,9.344,6.399,6.211,2.607,1.438
		c-0.662,1.168-1.04,2.522-1.04,3.966c0,2.731,1.356,5.144,3.418,6.557c-1.257-0.038-2.444-0.396-3.481-0.981v0.096
		c0,3.819,2.648,7.004,6.167,7.725c-0.645,0.186-1.324,0.277-2.025,0.277c-0.495,0-0.979-0.047-1.447-0.139
		c0.979,3.129,3.815,5.408,7.179,5.469c-2.63,2.115-5.944,3.375-9.544,3.375c-0.619,0-1.232-0.037-1.833-0.109
		c3.4,2.232,7.441,3.537,11.778,3.537c14.136,0,21.863-12.004,21.863-22.417c0-0.343-0.006-0.685-0.021-1.021
		c1.502-1.112,2.807-2.498,3.832-4.078c-1.376,0.626-2.857,1.05-4.412,1.24C34.629,3.961,35.847,2.417,36.421,0.577"/>
	</symbol>
	<symbol id="vk-icon" viewBox="0 0 126 72">
		<g>
			<path d="M124.523,64.503c-0.152-0.328-0.293-0.597-0.426-0.816
			c-2.172-3.91-6.324-8.711-12.449-14.401l-0.129-0.134l-0.066-0.063l-0.066-0.066h-0.063c-2.781-2.651-4.543-4.434-5.281-5.344
			c-1.348-1.738-1.652-3.5-0.914-5.281c0.523-1.348,2.477-4.19,5.867-8.538c1.781-2.302,3.195-4.149,4.234-5.539
			c7.52-9.996,10.777-16.383,9.777-19.164l-0.387-0.649c-0.262-0.39-0.934-0.75-2.02-1.074c-1.086-0.327-2.477-0.383-4.172-0.163
			L99.656,3.398c-0.301-0.105-0.738-0.099-1.301,0.034c-0.566,0.13-0.852,0.195-0.852,0.195L97.18,3.793l-0.258,0.195
			c-0.219,0.129-0.457,0.354-0.719,0.683c-0.258,0.325-0.477,0.707-0.648,1.142c-2.047,5.258-4.367,10.145-6.977,14.663
			c-1.609,2.695-3.086,5.031-4.434,7.009c-1.348,1.976-2.477,3.434-3.387,4.366c-0.914,0.935-1.738,1.685-2.477,2.246
			c-0.742,0.567-1.305,0.806-1.695,0.72c-0.391-0.091-0.762-0.177-1.109-0.263c-0.609-0.39-1.098-0.922-1.465-1.597
			c-0.371-0.672-0.621-1.52-0.75-2.543c-0.129-1.021-0.207-1.899-0.23-2.637c-0.02-0.738-0.008-1.785,0.035-3.129
			c0.043-1.349,0.066-2.263,0.066-2.738c0-1.653,0.031-3.446,0.094-5.379c0.066-1.935,0.121-3.465,0.164-4.594
			c0.043-1.13,0.066-2.324,0.066-3.587c0-1.258-0.078-2.245-0.23-2.965c-0.148-0.715-0.379-1.41-0.684-2.086
			c-0.305-0.672-0.75-1.194-1.336-1.562c-0.586-0.371-1.313-0.664-2.18-0.883c-2.305-0.521-5.238-0.802-8.8-0.849
			c-8.082-0.086-13.274,0.438-15.579,1.567c-0.914,0.476-1.738,1.129-2.476,1.953c-0.781,0.957-0.891,1.479-0.328,1.565
			c2.609,0.392,4.453,1.325,5.543,2.802l0.39,0.784c0.305,0.563,0.61,1.563,0.911,2.996c0.304,1.435,0.5,3.021,0.585,4.758
			c0.219,3.173,0.219,5.888,0,8.149c-0.214,2.257-0.421,4.019-0.617,5.277c-0.195,1.262-0.488,2.28-0.879,3.065
			c-0.39,0.782-0.652,1.258-0.785,1.435c-0.129,0.172-0.238,0.28-0.324,0.323c-0.566,0.22-1.152,0.328-1.762,0.328
			c-0.605,0-1.344-0.304-2.215-0.914c-0.867-0.608-1.769-1.444-2.703-2.512c-0.933-1.062-1.988-2.55-3.164-4.464
			c-1.172-1.911-2.386-4.168-3.648-6.778l-1.043-1.89c-0.653-1.215-1.543-2.985-2.672-5.313c-1.129-2.323-2.129-4.569-2.996-6.745
			c-0.348-0.91-0.871-1.605-1.567-2.087l-0.324-0.194c-0.219-0.172-0.566-0.356-1.043-0.556c-0.48-0.194-0.976-0.336-1.5-0.422
			L4.172,3.265c-1.824,0-3.063,0.414-3.715,1.238L0.195,4.895C0.066,5.113,0,5.46,0,5.938c0,0.48,0.129,1.065,0.391,1.762
			C3,13.824,5.832,19.734,8.898,25.425c3.063,5.696,5.723,10.278,7.981,13.754c2.262,3.478,4.562,6.758,6.91,9.84
			c2.348,3.086,3.902,5.063,4.66,5.935c0.762,0.871,1.36,1.519,1.793,1.953l1.629,1.565c1.043,1.043,2.574,2.293,4.598,3.746
			c2.02,1.457,4.258,2.891,6.711,4.305c2.457,1.41,5.312,2.563,8.574,3.453c3.258,0.892,6.43,1.25,9.516,1.074h7.496
			c1.52-0.129,2.672-0.609,3.453-1.433l0.258-0.324c0.176-0.262,0.34-0.665,0.488-1.208c0.152-0.542,0.23-1.14,0.23-1.792
			c-0.043-1.868,0.098-3.551,0.422-5.051c0.324-1.496,0.695-2.625,1.109-3.388c0.414-0.762,0.879-1.401,1.402-1.922
			c0.52-0.522,0.891-0.836,1.109-0.944c0.215-0.11,0.387-0.185,0.52-0.231c1.043-0.347,2.27-0.007,3.684,1.012
			c1.41,1.024,2.734,2.281,3.977,3.781c1.238,1.5,2.727,3.184,4.461,5.051c1.742,1.867,3.262,3.258,4.563,4.172l1.305,0.781
			c0.871,0.524,2,1,3.391,1.435c1.391,0.437,2.605,0.547,3.648,0.327l16.688-0.262c1.648,0,2.934-0.272,3.844-0.815
			c0.914-0.544,1.453-1.142,1.629-1.789c0.176-0.653,0.184-1.392,0.035-2.22C124.824,65.406,124.672,64.828,124.523,64.503
			L124.523,64.503z M124.523,64.503"/>
		</g>
	<symbol id="phone" viewBox="0 0 11 11">
		<g>
			<path d="M10.758,9.774c-0.164,0.383-0.602,0.633-0.953,0.828C9.344,10.852,8.875,11,8.352,11
			c-0.727,0-1.383-0.297-2.047-0.539c-0.477-0.172-0.938-0.383-1.367-0.648c-1.328-0.82-2.93-2.422-3.75-3.75
			C0.922,5.633,0.711,5.172,0.54,4.695C0.297,4.031,0,3.375,0,2.648c0-0.523,0.148-0.992,0.398-1.453
			c0.196-0.352,0.446-0.789,0.829-0.953C1.485,0.125,2.032,0,2.313,0c0.055,0,0.109,0,0.164,0.023
			c0.164,0.055,0.336,0.438,0.414,0.594c0.25,0.445,0.492,0.898,0.75,1.336C3.766,2.156,4,2.406,4,2.648
			C4,3.125,2.586,3.82,2.586,4.242c0,0.211,0.195,0.484,0.305,0.672C3.68,6.336,4.665,7.321,6.086,8.11
			c0.188,0.109,0.461,0.305,0.672,0.305C7.18,8.415,7.875,7,8.352,7C8.594,7,8.844,7.235,9.047,7.36
			c0.438,0.258,0.891,0.5,1.336,0.75c0.156,0.078,0.539,0.25,0.594,0.414C11,8.579,11,8.633,11,8.688
			C11,8.969,10.875,9.516,10.758,9.774z"/>
		</g>
	</symbol>
	<symbol id="triple-circlet" viewBox="0 0 70 25">
		<g>
    	<circle fill="#f2f5f4" cx="7.8287835" cy="12.49053" r="6"/>
			<circle fill="#f2f5f4" cx="56.520008" cy="12.49053" r="6" />
    	<circle fill="#f2f5f4" cx="32.174397" cy="12.49053" r="10"/>
    </g>
	</symbol>
</svg>