<?xml version="1.0" encoding="utf-8"?><svg xmlns="http://www.w3.org/2000/svg" xmlns:xlink="http://www.w3.org/1999/xlink"><symbol id="car-icon" viewBox="0 0 18.2 14.8" xml:space="preserve" xmlns="http://www.w3.org/2000/svg"><style>.ast0,.ast1{fill:none;stroke:#000;stroke-width:.5;stroke-miterlimit:10}.ast1{fill:#fff}</style><g id="aдоставка"><path class="ast0" d="M1.9 12h8.3c.4 0 .8-.3.8-.8V3c0-.4-.3-.8-.8-.8H1.9c-.5 0-.8.4-.8.8v8.3c0 .4.3.7.8.7z"/><path class="ast0" d="M11.2 3.8h3.6s.4 0 .9.5c.2.2.4.5.7.9.5.7 1.1 1.4 1.1 1.4s.4.4.4 1.1v3.5s.1.8-1.1.8h-6.3"/><circle class="ast1" cx="4.7" cy="12.4" r="1.9"/><circle class="ast1" cx="14.1" cy="12.4" r="1.9"/><circle class="ast1" cx="4" cy="4.2" r="3.7"/><path class="ast0" d="M2.7 5.5l1.4-1.1V1.9"/><circle cx="4" cy="4.4" r=".5"/><path class="ast0" d="M17.7 8.1h-4s-.6-.1-.6-.8V5.8s0-.5.7-.5h2.5"/></g></symbol><symbol viewBox="0 0 496 496" id="equalizer-cinema-icon" xmlns="http://www.w3.org/2000/svg"><path d="M47.625 192A208.155 208.155 0 0 1 115.09 88M40.152 240a207.77 207.77 0 0 1 2.297-24M208 176h80v32h-80zM88 288h80v32H88zm240-56h80v32h-80zm0 0"/><path d="M248 0C111.035 0 0 111.035 0 248s111.035 248 248 248 248-111.035 248-248C495.824 111.105 384.895.176 248 0zm0 480C119.871 480 16 376.129 16 248S119.871 16 248 16s232 103.871 232 232c-.148 128.066-103.934 231.852-232 232zm0 0"/><path d="M120.2 94.152a8.004 8.004 0 0 0-2.273-13.766 8.007 8.007 0 0 0-7.95 1.462 215.02 215.02 0 0 0-70.055 108 7.998 7.998 0 0 0 5.555 9.859 7.998 7.998 0 0 0 9.859-5.555 199.101 199.101 0 0 1 64.863-100zM43.664 208.098a8 8 0 0 0-9.129 6.68 217.49 217.49 0 0 0-2.398 24.917 7.994 7.994 0 0 0 2.133 5.754A7.988 7.988 0 0 0 39.848 248h.312a8.002 8.002 0 0 0 8-7.695c.285-7.73 1.02-15.438 2.2-23.082a7.984 7.984 0 0 0-1.458-5.95 7.98 7.98 0 0 0-5.238-3.175zM288 168h-32v-24a8 8 0 0 0-16 0v24h-32a8 8 0 0 0-8 8v32a8 8 0 0 0 8 8h32v136a8 8 0 0 0 16 0V216h32a8 8 0 0 0 8-8v-32a8 8 0 0 0-8-8zm-8 32h-64v-16h64zm-112 80h-32V144a8 8 0 0 0-16 0v136H88a8 8 0 0 0-8 8v32a8 8 0 0 0 8 8h32v24a8 8 0 0 0 16 0v-24h32a8 8 0 0 0 8-8v-32a8 8 0 0 0-8-8zm-8 32H96v-16h64zm248-88h-32v-80a8 8 0 0 0-16 0v80h-32a8 8 0 0 0-8 8v32a8 8 0 0 0 8 8h32v80a8 8 0 0 0 16 0v-80h32a8 8 0 0 0 8-8v-32a8 8 0 0 0-8-8zm-8 32h-64v-16h64zm0 0"/></symbol><symbol viewBox="0 0 36.71 36.71" id="fb-icon" xmlns="http://www.w3.org/2000/svg"><path d="M36.711 34.686a2.025 2.025 0 0 1-2.026 2.025H25.33V22.495h4.771l.715-5.541H25.33v-3.537c0-1.604.445-2.696 2.746-2.696l2.934-.001V5.764c-.508-.067-2.249-.219-4.275-.219-4.23 0-7.127 2.582-7.127 7.323v4.086h-4.784v5.541h4.784v14.216H2.026A2.025 2.025 0 0 1 0 34.686V2.026C0 .907.907 0 2.026 0h32.659c1.119 0 2.026.907 2.026 2.026v32.66z"/></symbol><symbol viewBox="0 0 36.66 36.67" id="inst-icon" xmlns="http://www.w3.org/2000/svg"><path d="M32.305 0H4.357A4.352 4.352 0 0 0 0 4.349v27.967c0 2.4 1.95 4.348 4.357 4.348h27.947a4.353 4.353 0 0 0 4.358-4.348V4.349A4.351 4.351 0 0 0 32.305 0m-5.953 5.729c0-.632.513-1.146 1.146-1.146h3.438c.632 0 1.145.514 1.145 1.146v3.438c0 .633-.513 1.146-1.145 1.146h-3.438a1.146 1.146 0 0 1-1.146-1.146V5.729zm-7.978 5.612c3.894 0 7.051 3.149 7.051 7.033 0 3.885-3.157 7.034-7.051 7.034s-7.051-3.148-7.051-7.034c0-3.884 3.157-7.033 7.051-7.033M33.226 32.08c0 .633-.513 1.146-1.146 1.146H4.583a1.147 1.147 0 0 1-1.146-1.146V14.895H8.02c-.597.858-.798 2.462-.798 3.479 0 6.135 5.003 11.127 11.152 11.127s11.153-4.992 11.153-11.127c0-1.018-.145-2.596-.885-3.479h4.583V32.08z"/></symbol><symbol id="leaves-icon" viewBox="0 0 16 15.2" xml:space="preserve" xmlns="http://www.w3.org/2000/svg"><style>.est0{fill:none;stroke:#000;stroke-width:.5;stroke-miterlimit:10}</style><g id="eлистья"><path class="est0" d="M2.4 14.9S5.3 9 12.3 9.6m-8 2.7s-.8-5.4 5.1-5.5c4.5.3 6.1 2.7 6.1 2.7s-2 4.3-7 4.8c-1.6.1-3.6-1-3.6-1m-2.1-1.2s-.1-2.2-.4-3.2-.4-3.6.3-5.1"/><path class="est0" d="M2.3 9.4s-2-1-1.8-3.8S3 .6 3 .6s4.1 3.7.6 7.9"/></g></symbol><symbol id="man-icon" viewBox="0 0 19.6 20.4" xml:space="preserve" xmlns="http://www.w3.org/2000/svg"><style>.fst0{fill:none;stroke:#000;stroke-width:.75;stroke-miterlimit:10}.fst1{fill:#fff}</style><g id="fиконка"><circle class="fst0" cx="9.9" cy="10.7" r="9.3"/><path transform="rotate(50.437 2.644 4.805)" class="fst1" d="M1.8 4h1.6v1.5H1.8z"/><path transform="rotate(50.437 16.957 4.805)" class="fst1" d="M16.2 4h1.6v1.5h-1.6z"/><path transform="rotate(56.441 15.699 17.825)" class="fst1" d="M14.9 16.8h1.6v2h-1.6z"/><ellipse transform="rotate(-3.5 9.582 3.497) scale(.99996)" cx="9.6" cy="3.5" rx="2.7" ry="3.1" stroke-width=".75" stroke-miterlimit="10"/><path class="fst0" d="M5.2 18.6s-.1-3.4.2-5c.2-1.5 1-2.4.7-3.3 0 0-.8-1.2-1.4-1.8S1.5 4.8 1.5 4.8s-.5-.7 0-1.1c.5-.3 1.1-.3 1.3-.1S5 5.9 5 5.9 7.1 8 9.1 8c2 0 3-.6 3.3-.8s1.3-.8 1.8-1.2l2.5-2s.7-.7 1.1-.5c0 0 .5.1.7.5s-.6 1.2-.6 1.2l-2.2 2.2s-2.3 2.6-2.4 4.4c0 0-.2 1.8.2 3.6s1 3.1 1 3.1"/></g></symbol><symbol id="meter-icon" viewBox="0 0 15.2 15.2" xml:space="preserve" xmlns="http://www.w3.org/2000/svg"><style>.gst0{fill:none;stroke:#000;stroke-width:.5;stroke-miterlimit:10}</style><g id="gлинейка"><path class="gst0" d="M10 3.8S10.3.4 6.2.4H3.7S1 .4.4 2.6v6.1c0 .4.6 2.4 3.5 2.4"/><path class="gst0" d="M14.7 6.8v6.3c0 1.7-1.6 1.6-1.6 1.6H6.7c-1.4 0-1.5-.8-1.5-.8v-3.4c0-1.7 1.2-1.6 1.2-1.6h6.2c1.5 0 2.1-.7 2.1-2.1s-1.4-1.7-1.4-1.7H4C2.1 5.1.8 3.7.8 3.7l-.4-.5m8.5 7.6V9m3.6 1.8V8.9"/><ellipse cx="5.2" cy="2.9" rx="1" ry=".4"/></g></symbol><symbol viewBox="0 0 108.36 108.36" id="mute-icon" xmlns="http://www.w3.org/2000/svg"><path d="M54.182 0C24.258 0 0 24.258 0 54.182c0 29.924 24.258 54.183 54.182 54.183 29.923 0 54.182-24.259 54.182-54.183S84.105 0 54.182 0zM30.969 34.198c.506-2.932 3.172-8.333 9.83-7.787a2.5 2.5 0 0 1 2.285 2.697 2.488 2.488 0 0 1-2.695 2.287c-3.697-.312-4.422 3.246-4.492 3.652a2.502 2.502 0 0 1-2.889 2.039 2.5 2.5 0 0 1-2.039-2.888zm13.715 7.625c0 3.426-1.832 6.203-4.09 6.203s-4.09-2.777-4.09-6.203c0-3.424 1.832-6.201 4.09-6.201s4.09 2.777 4.09 6.201zm29.627 33.838H71.16v2.649a3.479 3.479 0 1 1-6.958 0v-2.649h-5.543v2.649a3.478 3.478 0 1 1-6.958 0v-2.649h-6.043v2.649a3.478 3.478 0 1 1-6.958 0v-2.649h-2.648a3.479 3.479 0 1 1 0-6.958h2.65v-2.65a3.478 3.478 0 1 1 6.958 0v2.65h6.043v-2.65a3.478 3.478 0 1 1 6.958 0v2.65h5.543v-2.65a3.478 3.478 0 1 1 6.958 0v2.65h3.149a3.48 3.48 0 0 1 0 6.958zm-9.69-33.838c0-3.424 1.832-6.201 4.09-6.201s4.09 2.777 4.09 6.201c0 3.426-1.832 6.203-4.09 6.203s-4.09-2.778-4.09-6.203zm11.676-4.737a2.502 2.502 0 0 1-2.889-2.039c-.07-.406-.795-3.964-4.492-3.652a2.487 2.487 0 0 1-2.695-2.287 2.5 2.5 0 0 1 2.285-2.697c6.658-.546 9.324 4.855 9.83 7.787a2.499 2.499 0 0 1-2.039 2.888z"/></symbol><symbol viewBox="0 0 496 496" id="pause-cinema-icon" xmlns="http://www.w3.org/2000/svg"><path d="M152 168h32v160h-32zm160 0h32v160h-32zm0 0"/><path d="M248 8C115.453 8 8 115.453 8 248s107.453 240 240 240 240-107.453 240-240S380.547 8 248 8zm0 440c-110.457 0-200-89.543-200-200S137.543 48 248 48s200 89.543 200 200-89.543 200-200 200zm0 0"/><path d="M152 168h32v160h-32zm160 0h32v160h-32zm0 0"/><path d="M152 168h32v160h-32zm160 0h32v160h-32zm0 0"/><path d="M248 0C111.035 0 0 111.035 0 248s111.035 248 248 248 248-111.035 248-248C495.844 111.098 384.902.156 248 0zm0 480C119.871 480 16 376.129 16 248S119.871 16 248 16s232 103.871 232 232c-.145 128.07-103.93 231.855-232 232zm0 0"/><path d="M248 40C133.125 40 40 133.125 40 248s93.125 208 208 208 208-93.125 208-208c-.129-114.82-93.18-207.871-208-208zm0 400c-106.04 0-192-85.96-192-192S141.96 56 248 56s192 85.96 192 192c-.125 105.988-86.012 191.875-192 192zm0 0"/><path d="M423.2 231.258a8.004 8.004 0 0 0-8.712-7.227 7.998 7.998 0 0 0-7.222 8.711c.476 5.082.718 10.211.718 15.258a8 8 0 0 0 16 0c.016-5.535-.25-11.2-.785-16.742zm-10.087-15.481a8 8 0 0 0 5.871-9.672C399.84 127.254 329.141 71.805 248 72a8 8 0 0 0 0 16c73.758-.18 138.027 50.219 155.441 121.895A7.996 7.996 0 0 0 411.2 216c.645 0 1.285-.074 1.914-.223zM184 160h-32a8 8 0 0 0-8 8v160a8 8 0 0 0 8 8h32a8 8 0 0 0 8-8V168a8 8 0 0 0-8-8zm-8 160h-16V176h16zm0 0"/><path d="M344 160h-32a8 8 0 0 0-8 8v160a8 8 0 0 0 8 8h32a8 8 0 0 0 8-8V168a8 8 0 0 0-8-8zm-8 160h-16V176h16zm0 0"/></symbol><symbol viewBox="0 0 11 11" id="phone-icon" xmlns="http://www.w3.org/2000/svg"><path d="M10.758 9.774c-.164.383-.602.633-.953.828-.461.25-.93.398-1.453.398-.727 0-1.383-.297-2.047-.539a7.313 7.313 0 0 1-1.367-.648c-1.328-.82-2.93-2.422-3.75-3.75A7.227 7.227 0 0 1 .54 4.695C.297 4.031 0 3.375 0 2.648c0-.523.148-.992.398-1.453.196-.352.446-.789.829-.953C1.485.125 2.032 0 2.313 0c.055 0 .109 0 .164.023.164.055.336.438.414.594.25.445.492.898.75 1.336.125.203.359.453.359.695 0 .477-1.414 1.172-1.414 1.594 0 .211.195.484.305.672.789 1.422 1.774 2.407 3.195 3.196.188.109.461.305.672.305C7.18 8.415 7.875 7 8.352 7c.242 0 .492.235.695.36.438.258.891.5 1.336.75.156.078.539.25.594.414a.406.406 0 0 1 .023.164c0 .281-.125.828-.242 1.086z"/></symbol><symbol viewBox="0 0 496 496" id="play-cinema-icon" xmlns="http://www.w3.org/2000/svg"><path d="M168 152l192 96-192 96zm0 0"/><path d="M248 8C115.453 8 8 115.453 8 248s107.453 240 240 240 240-107.453 240-240S380.547 8 248 8zm0 448c-110.457 0-200-89.543-200-200S137.543 56 248 56s200 89.543 200 200-89.543 200-200 200zm0 0"/><path d="M168 152l192 96-192 96zm0 0"/><path d="M360 248l-192 96V152zm0 0"/><path d="M248 0C111.035 0 0 111.035 0 248s111.035 248 248 248 248-111.035 248-248C495.84 111.098 384.902.16 248 0zm0 480C119.871 480 16 376.129 16 248S119.871 16 248 16s232 103.871 232 232c-.14 128.07-103.93 231.86-232 232zm0 0"/><path d="M248 40C133.125 40 40 133.125 40 248s93.125 208 208 208 208-93.125 208-208c-.133-114.82-93.18-207.867-208-208zm0 400c-106.04 0-192-85.96-192-192S141.96 56 248 56s192 85.96 192 192c-.125 105.988-86.012 191.875-192 192zm0 0"/><path d="M423.2 231.238c-.419-4.398-4.325-7.62-8.723-7.203a8.003 8.003 0 0 0-7.204 8.727c.48 5.015.72 10.14.72 15.238a8 8 0 0 0 16 0c.007-5.602-.259-11.2-.794-16.762zm-10.095-15.461c4.293-1.047 6.93-5.379 5.88-9.672C399.834 127.258 329.14 71.81 248 72a8 8 0 0 0 0 16c73.758-.184 138.027 50.219 155.434 121.895a7.993 7.993 0 0 0 7.765 6.105c.64 0 1.281-.074 1.906-.223zm-49.531 25.063l-192-96A8.001 8.001 0 0 0 160 152v192a7.998 7.998 0 0 0 11.574 7.2l192-96a7.993 7.993 0 0 0 4.434-7.16 8.001 8.001 0 0 0-4.434-7.161zM176 331.055v-166.11L342.113 248zm0 0"/></symbol><symbol viewBox="0 0 300 300" id="play-icon" xmlns="http://www.w3.org/2000/svg"><path d="M196.1 139.6l-91-72.5c-8.7-6.9-21.5-.7-21.5 10.4v145c0 11.1 12.8 17.3 21.5 10.4l91-72.5c6.7-5.3 6.7-15.5 0-20.8z"/></symbol><symbol id="smile-icon" viewBox="0 0 20.6 20.8" xml:space="preserve" xmlns="http://www.w3.org/2000/svg"><style>.mst0{fill:none;stroke:#000;stroke-width:.75;stroke-miterlimit:10}</style><circle class="mst0" cx="10.3" cy="10.4" r="9.8"/><path class="mst0" d="M4.1 12.8s2.4 3.3 6.1 3.3 5.9-3.3 5.9-3.3m-9.2-1.7S4.3 9.7 4.3 8.4c-.1-1.2 1.4-2.1 2.6-.6"/><path class="mst0" d="M6.5 11.1s2.6-1.4 2.6-2.7c.1-1.2-1.4-2.1-2.6-.7"/><path d="M6.6 8l.1.1.1-.1v-.2l-.2.1z"/><path class="mst0" d="M13.7 11.1s-2.6-1.4-2.6-2.7c-.1-1.2 1.4-2.1 2.6-.7"/><path class="mst0" d="M13.3 11.1s2.6-1.4 2.6-2.7c.1-1.2-1.4-2.1-2.6-.7"/><path d="M13.4 8l.1.1.1-.1v-.2l-.2.1z"/></symbol><symbol viewBox="0 0 496 496" id="stop-cinema-icon" xmlns="http://www.w3.org/2000/svg"><path d="M160 160h176v176H160zm0 0"/><path d="M248 8C115.453 8 8 115.453 8 248s107.453 240 240 240 240-107.453 240-240S380.547 8 248 8zm0 440c-110.457 0-200-89.543-200-200S137.543 48 248 48s200 89.543 200 200-89.543 200-200 200zm0 0"/><path d="M160 160h176v176H160zm0 0"/><path d="M160 160h176v176H160zm0 0"/><path d="M248 0C111.035 0 0 111.035 0 248s111.035 248 248 248 248-111.035 248-248C495.84 111.098 384.902.16 248 0zm0 480C119.871 480 16 376.129 16 248S119.871 16 248 16s232 103.871 232 232c-.14 128.07-103.93 231.86-232 232zm0 0"/><path d="M248 40C133.125 40 40 133.125 40 248s93.125 208 208 208 208-93.125 208-208c-.133-114.82-93.18-207.867-208-208zm0 400c-106.04 0-192-85.96-192-192S141.96 56 248 56s192 85.96 192 192c-.125 105.988-86.012 191.875-192 192zm0 0"/><path d="M423.2 231.238c-.419-4.398-4.325-7.62-8.723-7.203a8.003 8.003 0 0 0-7.204 8.727c.48 5.015.72 10.14.72 15.238a8 8 0 0 0 16 0c.007-5.602-.259-11.2-.794-16.762zm-10.095-15.461c4.293-1.047 6.93-5.379 5.88-9.672C399.834 127.258 329.14 71.81 248 72a8 8 0 0 0 0 16c73.758-.184 138.027 50.219 155.434 121.895a7.993 7.993 0 0 0 7.765 6.105c.64 0 1.281-.074 1.906-.223zm0 0"/><path d="M336 152H160a8 8 0 0 0-8 8v176a8 8 0 0 0 8 8h176a8 8 0 0 0 8-8V160a8 8 0 0 0-8-8zm-8 176H168V168h160zm0 0"/></symbol><symbol viewBox="0 0 22.3 18.9" id="strength-icon" xmlns="http://www.w3.org/2000/svg"><path d="M7.3 11.6c-.3-.7-.9-2-1.7-2.7-1.2-1-2.1-2.4-2.5-3.8 0-.5.3-1 1-1.2 0 0 .2 1 .7 1s.8-.2 1.4-.9c.6-.7.7-.8.7-.8s.5-.8 0-1.2S5.1.7 5.1.7 4.5.5 4.2.5s-.9 0-1.4.5C2.2 1.4 1 2.6 1 2.6s-.6.8-.6 1.9c0 1.2.4 4.8.4 4.8s.5 2.5 1.1 4.1c.6 1.6 1.9 3.3 3.1 4.3.4.4.9.7 1.1.7.6 0 1.4-.6 2.1-.6.7 0 2.1.6 3.4.6s5.3-.9 6.8-5.8c0 0 3.5-.8 3.5-4.5s-3.1-4.6-4.4-4.6-4.5.9-4.5 4.2v.6s-.7-.5-1.8-.5-3.4.7-3.6 3.7l-.3.1z" stroke-width=".75" stroke-miterlimit="10"/></symbol><symbol viewBox="0 0 37.45 31.21" id="twitt-icon" xmlns="http://www.w3.org/2000/svg"><path d="M36.421.577a15.112 15.112 0 0 1-4.884 1.909A7.575 7.575 0 0 0 25.93 0c-4.24 0-7.682 3.528-7.682 7.879 0 .618.066 1.217.198 1.794-6.385-.329-12.047-3.462-15.839-8.235a8.02 8.02 0 0 0-1.04 3.966c0 2.731 1.356 5.144 3.418 6.557a7.547 7.547 0 0 1-3.481-.981v.096c0 3.819 2.648 7.004 6.167 7.725a7.292 7.292 0 0 1-2.025.277c-.495 0-.979-.047-1.447-.139.979 3.129 3.815 5.408 7.179 5.469a15.172 15.172 0 0 1-9.544 3.375c-.619 0-1.232-.037-1.833-.109a21.388 21.388 0 0 0 11.778 3.537c14.136 0 21.863-12.004 21.863-22.417 0-.343-.006-.685-.021-1.021a15.749 15.749 0 0 0 3.832-4.078 15.04 15.04 0 0 1-4.412 1.24 7.861 7.861 0 0 0 3.38-4.358"/></symbol><symbol viewBox="0 0 126.01 71.62" id="vk-icon" xmlns="http://www.w3.org/2000/svg"><defs><path id="qa" d="M0 0h126v72H0z"/></defs><clipPath id="qb"><use xlink:href="#qa" overflow="visible"/></clipPath><path clip-path="url(#qb)" d="M124.523 64.503a8.35 8.35 0 0 0-.426-.816c-2.172-3.91-6.324-8.711-12.449-14.401l-.129-.134-.066-.063-.066-.066h-.063c-2.781-2.651-4.543-4.434-5.281-5.344-1.348-1.738-1.652-3.5-.914-5.281.523-1.348 2.477-4.19 5.867-8.538a447.262 447.262 0 0 0 4.234-5.539c7.52-9.996 10.777-16.383 9.777-19.164l-.387-.649c-.262-.39-.934-.75-2.02-1.074-1.086-.327-2.477-.383-4.172-.163l-18.772.127c-.301-.105-.738-.099-1.301.034l-.852.195-.323.166-.258.195c-.219.129-.457.354-.719.683a4.443 4.443 0 0 0-.648 1.142c-2.047 5.258-4.367 10.145-6.977 14.663-1.609 2.695-3.086 5.031-4.434 7.009-1.348 1.976-2.477 3.434-3.387 4.366-.914.935-1.738 1.685-2.477 2.246-.742.567-1.305.806-1.695.72-.391-.091-.762-.177-1.109-.263a4.288 4.288 0 0 1-1.465-1.597c-.371-.672-.621-1.52-.75-2.543a28.65 28.65 0 0 1-.23-2.637c-.02-.738-.008-1.785.035-3.129.043-1.349.066-2.263.066-2.738 0-1.653.031-3.446.094-5.379.066-1.935.121-3.465.164-4.594.043-1.13.066-2.324.066-3.587 0-1.258-.078-2.245-.23-2.965a9.987 9.987 0 0 0-.684-2.086c-.305-.672-.75-1.194-1.336-1.562-.586-.371-1.313-.664-2.18-.883-2.305-.521-5.238-.802-8.8-.849-8.082-.086-13.274.438-15.579 1.567-.914.476-1.738 1.129-2.476 1.953-.781.957-.891 1.479-.328 1.565 2.609.392 4.453 1.325 5.543 2.802l.39.784c.305.563.61 1.563.911 2.996.304 1.435.5 3.021.585 4.758.219 3.173.219 5.888 0 8.149-.214 2.257-.421 4.019-.617 5.277-.195 1.262-.488 2.28-.879 3.065-.39.782-.652 1.258-.785 1.435-.129.172-.238.28-.324.323a4.815 4.815 0 0 1-1.762.328c-.605 0-1.344-.304-2.215-.914-.867-.608-1.769-1.444-2.703-2.512-.933-1.062-1.988-2.55-3.164-4.464-1.172-1.911-2.386-4.168-3.648-6.778l-1.043-1.89c-.653-1.215-1.543-2.985-2.672-5.313a100.975 100.975 0 0 1-2.996-6.745c-.348-.91-.871-1.605-1.567-2.087l-.324-.194c-.219-.172-.566-.356-1.043-.556a7.006 7.006 0 0 0-1.5-.422l-17.858.133c-1.824 0-3.063.414-3.715 1.238l-.262.392C.066 5.113 0 5.46 0 5.938c0 .48.129 1.065.391 1.762a215.077 215.077 0 0 0 8.507 17.725c3.063 5.696 5.723 10.278 7.981 13.754a161.747 161.747 0 0 0 6.91 9.84c2.348 3.086 3.902 5.063 4.66 5.935a43.02 43.02 0 0 0 1.793 1.953l1.629 1.565c1.043 1.043 2.574 2.293 4.598 3.746 2.02 1.457 4.258 2.891 6.711 4.305 2.457 1.41 5.312 2.563 8.574 3.453 3.258.892 6.43 1.25 9.516 1.074h7.496c1.52-.129 2.672-.609 3.453-1.433l.258-.324c.176-.262.34-.665.488-1.208.152-.542.23-1.14.23-1.792-.043-1.868.098-3.551.422-5.051.324-1.496.695-2.625 1.109-3.388.414-.762.879-1.401 1.402-1.922.52-.522.891-.836 1.109-.944.215-.11.387-.185.52-.231 1.043-.347 2.27-.007 3.684 1.012 1.41 1.024 2.734 2.281 3.977 3.781 1.238 1.5 2.727 3.184 4.461 5.051 1.742 1.867 3.262 3.258 4.563 4.172l1.305.781c.871.524 2 1 3.391 1.435 1.391.437 2.605.547 3.648.327l16.688-.262c1.648 0 2.934-.272 3.844-.815.914-.544 1.453-1.142 1.629-1.789.176-.653.184-1.392.035-2.22-.158-.824-.31-1.402-.459-1.727zm0 0"/></symbol><symbol viewBox="0 0 300 300" id="volume-icon" xmlns="http://www.w3.org/2000/svg"><path d="M178.5 59.2L112.1 112c-4.8-2.6-10.3-4-16.1-4-18.8 0-34 15.2-34 34s15.2 34 34 34c5.8 0 11.3-1.5 16.1-4l66.4 52.9c8.7 6.9 21.5.7 21.5-10.4v-145c0-11.1-12.8-17.3-21.5-10.3z"/></symbol></svg>