<svg height="496pt" viewBox="0 0 496 496" width="496pt" xmlns="http://www.w3.org/2000/svg"><path d="m47.625 192c11.402344-40.714844 34.9375-76.988281 67.464844-104" fill="#57a4ff"/><path d="m40.152344 240c.300781-8.039062 1.066406-16.050781 2.296875-24" fill="#57a4ff"/><path d="m208 176h80v32h-80zm0 0" fill="#57a4ff"/><path d="m88 288h80v32h-80zm0 0" fill="#57a4ff"/><path d="m328 232h80v32h-80zm0 0" fill="#57a4ff"/><g fill="#004fac"><path d="m248 0c-136.964844 0-248 111.035156-248 248s111.035156 248 248 248 248-111.035156 248-248c-.175781-136.894531-111.105469-247.824219-248-248zm0 480c-128.128906 0-232-103.871094-232-232s103.871094-232 232-232 232 103.871094 232 232c-.148438 128.066406-103.933594 231.851562-232 232zm0 0"/><path d="m120.199219 94.152344c2.257812-1.808594 3.363281-4.695313 2.890625-7.546875-.472656-2.855469-2.445313-5.230469-5.164063-6.21875-2.71875-.984375-5.757812-.425781-7.949219 1.460937-33.832031 28-58.28125 65.691406-70.054687 108-1.191406 4.257813 1.296875 8.671875 5.554687 9.859375 4.257813 1.191407 8.671876-1.296875 9.859376-5.554687 10.902343-39.175782 33.539062-74.074219 64.863281-100zm0 0"/><path d="m43.664062 208.097656c-4.363281-.675781-8.449218 2.3125-9.128906 6.679688-1.277344 8.253906-2.078125 16.574218-2.398437 24.917968-.082031 2.125.683593 4.195313 2.132812 5.753907 1.445313 1.558593 3.453125 2.476562 5.578125 2.550781h.3125c4.300782.003906 7.835938-3.398438 8-7.695312.285156-7.730469 1.019532-15.4375 2.199219-23.082032.324219-2.097656-.199219-4.238281-1.457031-5.949218-1.253906-1.714844-3.140625-2.855469-5.238282-3.175782zm0 0"/><path d="m288 168h-32v-24c0-4.417969-3.582031-8-8-8s-8 3.582031-8 8v24h-32c-4.417969 0-8 3.582031-8 8v32c0 4.417969 3.582031 8 8 8h32v136c0 4.417969 3.582031 8 8 8s8-3.582031 8-8v-136h32c4.417969 0 8-3.582031 8-8v-32c0-4.417969-3.582031-8-8-8zm-8 32h-64v-16h64zm0 0"/><path d="m168 280h-32v-136c0-4.417969-3.582031-8-8-8s-8 3.582031-8 8v136h-32c-4.417969 0-8 3.582031-8 8v32c0 4.417969 3.582031 8 8 8h32v24c0 4.417969 3.582031 8 8 8s8-3.582031 8-8v-24h32c4.417969 0 8-3.582031 8-8v-32c0-4.417969-3.582031-8-8-8zm-8 32h-64v-16h64zm0 0"/><path d="m408 224h-32v-80c0-4.417969-3.582031-8-8-8s-8 3.582031-8 8v80h-32c-4.417969 0-8 3.582031-8 8v32c0 4.417969 3.582031 8 8 8h32v80c0 4.417969 3.582031 8 8 8s8-3.582031 8-8v-80h32c4.417969 0 8-3.582031 8-8v-32c0-4.417969-3.582031-8-8-8zm-8 32h-64v-16h64zm0 0"/></g></svg>