<?xml version="1.0" encoding="utf-8"?>
<!-- Generator: Adobe Illustrator 21.0.0, SVG Export Plug-In . SVG Version: 6.00 Build 0)  -->
<svg version="1.1" id="Слой_1" xmlns="http://www.w3.org/2000/svg" xmlns:xlink="http://www.w3.org/1999/xlink" x="0px" y="0px"
	 viewBox="0 0 16 15.2" style="enable-background:new 0 0 16 15.2;" xml:space="preserve">
<style type="text/css">
	.st0{fill:none;stroke:#000000;stroke-width:0.5;stroke-miterlimit:10;}
</style>
<g id="листья">
	<path class="st0" d="M2.4,14.9c0,0,2.9-5.9,9.9-5.3"/>
	<path class="st0" d="M4.3,12.3c0,0-0.8-5.4,5.1-5.5c4.5,0.3,6.1,2.7,6.1,2.7s-2,4.3-7,4.8c-1.6,0.1-3.6-1-3.6-1"/>
	<path class="st0" d="M2.8,12.1c0,0-0.1-2.2-0.4-3.2S2,5.3,2.7,3.8"/>
	<path class="st0" d="M2.3,9.4c0,0-2-1-1.8-3.8S3,0.6,3,0.6s4.1,3.7,0.6,7.9"/>
</g>
</svg>
