<?xml version="1.0" encoding="iso-8859-1"?>
<!-- Generator: Adobe Illustrator 16.0.0, SVG Export Plug-In . SVG Version: 6.00 Build 0)  -->
<!DOCTYPE svg PUBLIC "-//W3C//DTD SVG 1.1//EN" "http://www.w3.org/Graphics/SVG/1.1/DTD/svg11.dtd">
<svg version="1.1" id="Capa_1" xmlns="http://www.w3.org/2000/svg" xmlns:xlink="http://www.w3.org/1999/xlink" x="0px" y="0px"
	 width="108.364px" height="108.364px" viewBox="0 0 108.364 108.364" style="enable-background:new 0 0 108.364 108.364;"
	 xml:space="preserve">
<g>
	<g>
		<path d="M54.182,0C24.258,0,0,24.258,0,54.182c0,29.924,24.258,54.183,54.182,54.183c29.923,0,54.182-24.259,54.182-54.183
			C108.364,24.258,84.105,0,54.182,0z M30.969,34.198c0.506-2.932,3.172-8.333,9.83-7.787c1.375,0.113,2.398,1.32,2.285,2.697
			c-0.111,1.375-1.301,2.4-2.695,2.287c-3.697-0.312-4.422,3.246-4.492,3.652c-0.211,1.217-1.268,2.075-2.461,2.075
			c-0.141,0-0.285-0.013-0.428-0.036C31.647,36.851,30.735,35.558,30.969,34.198z M44.684,41.823c0,3.426-1.832,6.203-4.09,6.203
			c-2.258,0-4.09-2.777-4.09-6.203c0-3.424,1.832-6.201,4.09-6.201C42.852,35.622,44.684,38.399,44.684,41.823z M74.311,75.661
			h-3.151v2.649c0,1.922-1.558,3.479-3.479,3.479c-1.92,0-3.479-1.558-3.479-3.479v-2.649h-5.543v2.649
			c0,1.922-1.557,3.479-3.479,3.479c-1.92,0-3.479-1.558-3.479-3.479v-2.649h-6.043v2.649c0,1.922-1.557,3.479-3.479,3.479
			c-1.92,0-3.479-1.558-3.479-3.479v-2.649h-2.648c-1.922,0-3.479-1.558-3.479-3.479c0-1.92,1.557-3.479,3.479-3.479h2.65v-2.65
			c0-1.922,1.557-3.479,3.479-3.479c1.92,0,3.479,1.557,3.479,3.479v2.65h6.043v-2.65c0-1.922,1.557-3.479,3.479-3.479
			c1.92,0,3.479,1.557,3.479,3.479v2.65h5.543v-2.65c0-1.922,1.557-3.479,3.479-3.479c1.92,0,3.479,1.557,3.479,3.479v2.65h3.149
			c1.922,0,3.479,1.559,3.479,3.479C77.79,74.104,76.232,75.661,74.311,75.661z M64.621,41.823c0-3.424,1.832-6.201,4.09-6.201
			s4.09,2.777,4.09,6.201c0,3.426-1.832,6.203-4.09,6.203S64.621,45.248,64.621,41.823z M76.297,37.086
			c-0.143,0.023-0.287,0.036-0.428,0.036c-1.193,0-2.25-0.858-2.461-2.075c-0.07-0.406-0.795-3.964-4.492-3.652
			c-1.395,0.113-2.584-0.912-2.695-2.287c-0.113-1.377,0.91-2.584,2.285-2.697c6.658-0.546,9.324,4.855,9.83,7.787
			C78.571,35.558,77.659,36.851,76.297,37.086z"/>
	</g>
</g>
<g>
</g>
<g>
</g>
<g>
</g>
<g>
</g>
<g>
</g>
<g>
</g>
<g>
</g>
<g>
</g>
<g>
</g>
<g>
</g>
<g>
</g>
<g>
</g>
<g>
</g>
<g>
</g>
<g>
</g>
</svg>
