<svg height="495pt" viewBox="0 -63 495.90169 495" width="495pt" xmlns="http://www.w3.org/2000/svg"><path d="m8 80.449219h40v208h-40zm0 0" fill="#57a4ff"/><path d="m312 344.449219-176-72v-176l176-72zm0 0" fill="#57a4ff"/><g fill="#004fac"><path d="m376 .449219h-64c-4.417969 0-8 3.582031-8 8v10.625l-169.601562 69.375h-78.398438v-8c0-4.417969-3.582031-8-8-8h-40c-4.417969 0-8 3.582031-8 8v208c0 4.417969 3.582031 8 8 8h40c4.417969 0 8-3.582031 8-8v-8h78.398438l169.601562 69.378906v10.621094c0 4.417969 3.582031 8 8 8h64c4.417969 0 8-3.582031 8-8v-352c0-4.417969-3.582031-8-8-8zm-336 280h-24v-192h24zm16-176h72v160h-72zm88 162.632812v-165.261719l160-65.449218v296.160156zm224 85.367188h-48v-336h48zm0 0"/><path d="m459.3125 184.449219 34.34375-34.34375c3.03125-3.136719 2.988281-8.128907-.097656-11.214844-3.085938-3.085937-8.074219-3.128906-11.214844-.097656l-34.34375 34.347656-34.34375-34.347656c-3.140625-3.03125-8.128906-2.988281-11.214844.097656-3.085937 3.085937-3.128906 8.078125-.097656 11.214844l34.34375 34.34375-34.34375 34.34375c-2.078125 2.011719-2.914062 4.984375-2.179688 7.78125.730469 2.796875 2.914063 4.980469 5.710938 5.714843 2.796875.730469 5.773438-.101562 7.78125-2.183593l34.34375-34.34375 34.34375 34.34375c3.140625 3.03125 8.128906 2.988281 11.214844-.097657 3.085937-3.085937 3.128906-8.074218.097656-11.214843zm0 0"/><path d="m344.640625 35.492188c.175781.507812.417969.992187.71875 1.4375.296875.421874.617187.820312.960937 1.199218.777344.707032 1.671876 1.277344 2.640626 1.683594.960937.410156 1.992187.625 3.039062.636719 2.117188-.03125 4.144531-.859375 5.679688-2.320313l.960937-1.199218c.300781-.445313.542969-.929688.71875-1.4375.230469-.453126.394531-.941407.480469-1.441407.09375-.527343.148437-1.0625.160156-1.601562-.011719-1.042969-.230469-2.078125-.640625-3.039063-.367187-.988281-.9375-1.886718-1.679687-2.640625-2.316407-2.234375-5.738282-2.894531-8.71875-1.679687-.96875.40625-1.863282.976562-2.640626 1.679687-.742187.753907-1.3125 1.652344-1.679687 2.640625-.410156.960938-.628906 1.996094-.640625 3.039063.011719.539062.066406 1.074219.160156 1.601562.085938.5.25.988281.480469 1.441407zm0 0"/><path d="m352 160.449219c4.417969 0 8-3.582031 8-8v-96c0-4.417969-3.582031-8-8-8s-8 3.582031-8 8v96c0 4.417969 3.582031 8 8 8zm0 0"/></g></svg>