<svg height="496pt" viewBox="0 0 496 496" width="496pt" xmlns="http://www.w3.org/2000/svg"><g fill="#57a4ff"><path d="m152 168h32v160h-32zm0 0"/><path d="m312 168h32v160h-32zm0 0"/><path d="m248 8c-132.546875 0-240 107.453125-240 240s107.453125 240 240 240 240-107.453125 240-240-107.453125-240-240-240zm0 440c-110.457031 0-200-89.542969-200-200s89.542969-200 200-200 200 89.542969 200 200-89.542969 200-200 200zm0 0"/><path d="m152 168h32v160h-32zm0 0"/><path d="m312 168h32v160h-32zm0 0"/><path d="m152 168h32v160h-32zm0 0"/><path d="m312 168h32v160h-32zm0 0"/></g><path d="m248 0c-136.964844 0-248 111.035156-248 248s111.035156 248 248 248 248-111.035156 248-248c-.15625-136.902344-111.097656-247.84375-248-248zm0 480c-128.128906 0-232-103.871094-232-232s103.871094-232 232-232 232 103.871094 232 232c-.144531 128.070312-103.929688 231.855469-232 232zm0 0" fill="#004fac"/><path d="m248 40c-114.875 0-208 93.125-208 208s93.125 208 208 208 208-93.125 208-208c-.128906-114.820312-93.179688-207.871094-208-208zm0 400c-106.039062 0-192-85.960938-192-192s85.960938-192 192-192 192 85.960938 192 192c-.125 105.988281-86.011719 191.875-192 192zm0 0" fill="#004fac"/><path d="m423.199219 231.257812c-.410157-4.402343-4.3125-7.636718-8.710938-7.226562-4.402343.410156-7.636719 4.3125-7.222656 8.710938.476563 5.082031.71875 10.210937.71875 15.257812 0 4.417969 3.582031 8 8 8s8-3.582031 8-8c.015625-5.535156-.25-11.199219-.785156-16.742188zm0 0" fill="#004fac"/><path d="m413.113281 215.777344c4.292969-1.050782 6.921875-5.382813 5.871094-9.671875-19.144531-78.851563-89.84375-134.300781-170.984375-134.105469-4.417969 0-8 3.582031-8 8s3.582031 8 8 8c73.757812-.179688 138.027344 50.21875 155.441406 121.894531.871094 3.578125 4.074219 6.101563 7.757813 6.105469.644531 0 1.285156-.074219 1.914062-.222656zm0 0" fill="#004fac"/><path d="m184 160h-32c-4.417969 0-8 3.582031-8 8v160c0 4.417969 3.582031 8 8 8h32c4.417969 0 8-3.582031 8-8v-160c0-4.417969-3.582031-8-8-8zm-8 160h-16v-144h16zm0 0" fill="#004fac"/><path d="m344 160h-32c-4.417969 0-8 3.582031-8 8v160c0 4.417969 3.582031 8 8 8h32c4.417969 0 8-3.582031 8-8v-160c0-4.417969-3.582031-8-8-8zm-8 160h-16v-144h16zm0 0" fill="#004fac"/></svg>