<svg height="496pt" viewBox="0 0 496 496" width="496pt" xmlns="http://www.w3.org/2000/svg"><path d="m168 152 192 96-192 96zm0 0" fill="#57a4ff"/><path d="m248 8c-132.546875 0-240 107.453125-240 240s107.453125 240 240 240 240-107.453125 240-240-107.453125-240-240-240zm0 448c-110.457031 0-200-89.542969-200-200s89.542969-200 200-200 200 89.542969 200 200-89.542969 200-200 200zm0 0" fill="#57a4ff"/><path d="m168 152 192 96-192 96zm0 0" fill="#57a4ff"/><path d="m360 248-192 96v-192zm0 0" fill="#57a4ff"/><g fill="#004fac"><path d="m248 0c-136.964844 0-248 111.035156-248 248s111.035156 248 248 248 248-111.035156 248-248c-.160156-136.902344-111.097656-247.839844-248-248zm0 480c-128.128906 0-232-103.871094-232-232s103.871094-232 232-232 232 103.871094 232 232c-.140625 128.070312-103.929688 231.859375-232 232zm0 0"/><path d="m248 40c-114.875 0-208 93.125-208 208s93.125 208 208 208 208-93.125 208-208c-.132812-114.820312-93.179688-207.867188-208-208zm0 400c-106.039062 0-192-85.960938-192-192s85.960938-192 192-192 192 85.960938 192 192c-.125 105.988281-86.011719 191.875-192 192zm0 0"/><path d="m423.199219 231.238281c-.417969-4.398437-4.324219-7.621093-8.722657-7.203125-4.398437.421875-7.625 4.328125-7.203124 8.726563.480468 5.015625.71875 10.140625.71875 15.238281 0 4.417969 3.582031 8 8 8 4.417968 0 8-3.582031 8-8 .007812-5.601562-.257813-11.199219-.792969-16.761719zm0 0"/><path d="m413.105469 215.777344c4.292969-1.046875 6.929687-5.378906 5.878906-9.671875-19.148437-78.847657-89.84375-134.296875-170.984375-134.105469-4.417969 0-8 3.582031-8 8s3.582031 8 8 8c73.757812-.183594 138.027344 50.21875 155.433594 121.894531.871094 3.582031 4.078125 6.105469 7.765625 6.105469.640625 0 1.28125-.074219 1.90625-.222656zm0 0"/><path d="m363.574219 240.839844-192-96c-2.480469-1.238282-5.425781-1.105469-7.78125.351562-2.359375 1.460938-3.792969 4.035156-3.792969 6.808594v192c-.015625 2.78125 1.414062 5.367188 3.773438 6.835938 2.363281 1.46875 5.316406 1.605468 7.800781.363281l192-96c2.71875-1.351563 4.433593-4.125 4.433593-7.160157 0-3.03125-1.714843-5.804687-4.433593-7.160156zm-187.574219 90.214844v-166.109376l166.113281 83.054688zm0 0"/></g></svg>